# Blender 4.3.2
# www.blender.org
mtllib torch2.mtl
o Cube
v 0.162735 4.530162 -0.135825
v 0.162735 -0.169588 -0.135825
v 0.162735 4.530162 0.135825
v 0.162735 -0.169588 0.135825
v -0.162735 4.530162 -0.135825
v -0.162735 -0.169588 -0.135825
v -0.162735 4.530162 0.135825
v -0.162735 -0.169588 0.135825
v 0.350000 5.004228 -0.350000
v 0.350000 4.304227 -0.350000
v 0.350000 5.004228 0.350000
v 0.350000 4.304227 0.350000
v -0.350000 5.004228 -0.350000
v -0.350000 4.304227 -0.350000
v -0.350000 5.004228 0.350000
v -0.350000 4.304227 0.350000
vn -0.0000 1.0000 -0.0000
vn -0.0000 -0.0000 1.0000
vn -1.0000 -0.0000 -0.0000
vn -0.0000 -1.0000 -0.0000
vn 1.0000 -0.0000 -0.0000
vn -0.0000 -0.0000 -1.0000
vt 0.211525 0.545066
vt 0.211525 0.756591
vt 0.000000 0.756591
vt 0.000000 0.545066
vt 0.423050 0.756591
vt 0.211525 0.756591
vt 0.211525 0.545066
vt 0.423050 0.545066
vt 0.634575 0.756591
vt 0.423050 0.756591
vt 0.423050 0.545066
vt 0.634575 0.545066
vt 0.846100 0.545066
vt 0.846100 0.756591
vt 0.634575 0.756591
vt 0.211525 0.968116
vt 0.000000 0.968116
vt 0.000000 0.756591
vt 0.211525 0.756591
vt 0.423050 0.968116
vt 0.211525 0.968116
vt 0.211525 0.756591
vt 0.423050 0.756591
vt 0.454934 0.545066
vt 0.000000 0.545066
vt 0.000000 0.000000
vt 0.454934 0.000000
vt 0.877606 1.000000
vt 0.846100 1.000000
vt 0.846100 0.545066
vt 0.877606 0.545066
vt 0.941373 0.545066
vt 0.909867 0.545066
vt 0.909867 -0.000000
vt 0.941373 -0.000000
vt 0.909868 0.545066
vt 0.454934 0.545066
vt 0.454934 0.000000
vt 0.909868 0.000000
vt 0.972878 0.545066
vt 0.941373 0.545066
vt 0.941373 -0.000000
vt 0.972878 -0.000000
vt 0.909111 1.000000
vt 0.877606 1.000000
vt 0.877606 0.545066
vt 0.909111 0.545066
s 0
usemtl Material.002
f 1/1/1 5/2/1 7/3/1 3/4/1
f 4/5/2 3/6/2 7/7/2 8/8/2
f 8/9/3 7/10/3 5/11/3 6/12/3
f 6/13/4 2/14/4 4/15/4 8/12/4
f 2/16/5 1/17/5 3/18/5 4/19/5
f 6/20/6 5/21/6 1/22/6 2/23/6
usemtl 
f 9/24/1 13/25/1 15/26/1 11/27/1
f 12/28/2 11/29/2 15/30/2 16/31/2
f 16/32/3 15/33/3 13/34/3 14/35/3
f 14/36/4 10/37/4 12/38/4 16/39/4
f 10/40/5 9/41/5 11/42/5 12/43/5
f 14/44/6 13/45/6 9/46/6 10/47/6
