# Blender 4.3.2
# www.blender.org
mtllib axe3.mtl
o Cone.009
v 0.000000 1.732508 -0.808107
v 0.039018 1.732508 -0.804264
v 0.076537 1.732508 -0.792883
v 0.111114 1.732508 -0.774401
v 0.141421 1.732508 -0.749528
v 0.166294 1.732508 -0.719221
v 0.184776 1.732508 -0.684643
v 0.196157 1.732508 -0.647125
v 0.200000 1.732508 -0.608107
v 0.196157 1.732508 -0.569089
v 0.184776 1.732508 -0.531570
v 0.166294 1.732508 -0.496993
v 0.141421 1.732508 -0.466685
v 0.111114 1.732508 -0.441813
v 0.076537 1.732508 -0.423331
v 0.039018 1.732508 -0.411950
v 0.000000 1.732508 -0.408107
v -0.039018 1.732508 -0.411950
v -0.076537 1.732508 -0.423331
v -0.111114 1.732508 -0.441813
v -0.141421 1.732508 -0.466685
v -0.166294 1.732508 -0.496993
v -0.184776 1.732508 -0.531570
v -0.196157 1.732508 -0.569089
v -0.200000 1.732508 -0.608107
v -0.196157 1.732508 -0.647125
v -0.184776 1.732508 -0.684643
v -0.166294 1.732508 -0.719221
v -0.141421 1.732508 -0.749528
v -0.111114 1.732508 -0.774401
v -0.076537 1.732508 -0.792883
v -0.039018 1.732508 -0.804264
v 0.000000 2.132508 -0.608107
v 0.000000 -0.200000 -0.200000
v 0.039018 -0.200000 -0.196157
v 0.076537 -0.200000 -0.184776
v 0.111114 -0.200000 -0.166294
v 0.141421 -0.200000 -0.141421
v 0.166294 -0.200000 -0.111114
v 0.184776 -0.200000 -0.076537
v 0.196157 -0.200000 -0.039018
v 0.200000 -0.200000 0.000000
v 0.196157 -0.200000 0.039018
v 0.184776 -0.200000 0.076537
v 0.166294 -0.200000 0.111114
v 0.141421 -0.200000 0.141421
v 0.111114 -0.200000 0.166294
v 0.076537 -0.200000 0.184776
v 0.039018 -0.200000 0.196157
v 0.000000 -0.200000 0.200000
v -0.039018 -0.200000 0.196157
v -0.076537 -0.200000 0.184776
v -0.111114 -0.200000 0.166294
v -0.141421 -0.200000 0.141421
v -0.166294 -0.200000 0.111114
v -0.184776 -0.200000 0.076537
v -0.196157 -0.200000 0.039018
v -0.200000 -0.200000 0.000000
v -0.196157 -0.200000 -0.039018
v -0.184776 -0.200000 -0.076537
v -0.166294 -0.200000 -0.111114
v -0.141421 -0.200000 -0.141421
v -0.111114 -0.200000 -0.166294
v -0.076537 -0.200000 -0.184776
v -0.039018 -0.200000 -0.196157
v 0.000000 0.200000 0.000000
v 0.000000 0.140138 -0.200000
v 0.039018 0.140138 -0.196157
v 0.076537 0.140138 -0.184776
v 0.111114 0.140138 -0.166294
v 0.141421 0.140138 -0.141421
v 0.166294 0.140138 -0.111114
v 0.184776 0.140138 -0.076537
v 0.196157 0.140138 -0.039018
v 0.200000 0.140138 0.000000
v 0.196157 0.140138 0.039018
v 0.184776 0.140138 0.076537
v 0.166294 0.140138 0.111114
v 0.141421 0.140138 0.141421
v 0.111114 0.140138 0.166294
v 0.076537 0.140138 0.184776
v 0.039018 0.140138 0.196157
v 0.000000 0.140138 0.200000
v -0.039018 0.140138 0.196157
v -0.076537 0.140138 0.184776
v -0.111114 0.140138 0.166294
v -0.141421 0.140138 0.141421
v -0.166294 0.140138 0.111114
v -0.184776 0.140138 0.076537
v -0.196157 0.140138 0.039018
v -0.200000 0.140138 0.000000
v -0.196157 0.140138 -0.039018
v -0.184776 0.140138 -0.076537
v -0.166294 0.140138 -0.111114
v -0.141421 0.140138 -0.141421
v -0.111114 0.140138 -0.166294
v -0.076537 0.140138 -0.184776
v -0.039018 0.140138 -0.196157
v 0.000000 0.540138 0.000000
v 0.000000 0.431462 -0.200000
v 0.039018 0.431462 -0.196157
v 0.076537 0.431462 -0.184776
v 0.111114 0.431462 -0.166294
v 0.141421 0.431462 -0.141421
v 0.166294 0.431462 -0.111114
v 0.184776 0.431462 -0.076537
v 0.196157 0.431462 -0.039018
v 0.200000 0.431462 0.000000
v 0.196157 0.431462 0.039018
v 0.184776 0.431462 0.076537
v 0.166294 0.431462 0.111114
v 0.141421 0.431462 0.141421
v 0.111114 0.431462 0.166294
v 0.076537 0.431462 0.184776
v 0.039018 0.431462 0.196157
v 0.000000 0.431462 0.200000
v -0.039018 0.431462 0.196157
v -0.076537 0.431462 0.184776
v -0.111114 0.431462 0.166294
v -0.141421 0.431462 0.141421
v -0.166294 0.431462 0.111114
v -0.184776 0.431462 0.076537
v -0.196157 0.431462 0.039018
v -0.200000 0.431462 0.000000
v -0.196157 0.431462 -0.039018
v -0.184776 0.431462 -0.076537
v -0.166294 0.431462 -0.111114
v -0.141421 0.431462 -0.141421
v -0.111114 0.431462 -0.166294
v -0.076537 0.431462 -0.184776
v -0.039018 0.431462 -0.196157
v 0.000000 0.831462 0.000000
v 0.000000 0.732282 -0.200000
v 0.039018 0.732282 -0.196157
v 0.076537 0.732282 -0.184776
v 0.111114 0.732282 -0.166294
v 0.141421 0.732282 -0.141421
v 0.166294 0.732282 -0.111114
v 0.184776 0.732282 -0.076537
v 0.196157 0.732282 -0.039018
v 0.200000 0.732282 0.000000
v 0.196157 0.732282 0.039018
v 0.184776 0.732282 0.076537
v 0.166294 0.732282 0.111114
v 0.141421 0.732282 0.141421
v 0.111114 0.732282 0.166294
v 0.076537 0.732282 0.184776
v 0.039018 0.732282 0.196157
v 0.000000 0.732282 0.200000
v -0.039018 0.732282 0.196157
v -0.076537 0.732282 0.184776
v -0.111114 0.732282 0.166294
v -0.141421 0.732282 0.141421
v -0.166294 0.732282 0.111114
v -0.184776 0.732282 0.076537
v -0.196157 0.732282 0.039018
v -0.200000 0.732282 0.000000
v -0.196157 0.732282 -0.039018
v -0.184776 0.732282 -0.076537
v -0.166294 0.732282 -0.111114
v -0.141421 0.732282 -0.141421
v -0.111114 0.732282 -0.166294
v -0.076537 0.732282 -0.184776
v -0.039018 0.732282 -0.196157
v 0.000000 1.132282 0.000000
v 0.000000 1.089481 -0.200000
v 0.039018 1.089481 -0.196157
v 0.076537 1.089481 -0.184776
v 0.111114 1.089481 -0.166294
v 0.141421 1.089481 -0.141421
v 0.166294 1.089481 -0.111114
v 0.184776 1.089481 -0.076537
v 0.196157 1.089481 -0.039018
v 0.200000 1.089481 0.000000
v 0.196157 1.089481 0.039018
v 0.184776 1.089481 0.076537
v 0.166294 1.089481 0.111114
v 0.141421 1.089481 0.141421
v 0.111114 1.089481 0.166294
v 0.076537 1.089481 0.184776
v 0.039018 1.089481 0.196157
v 0.000000 1.089481 0.200000
v -0.039018 1.089481 0.196157
v -0.076537 1.089481 0.184776
v -0.111114 1.089481 0.166294
v -0.141421 1.089481 0.141421
v -0.166294 1.089481 0.111114
v -0.184776 1.089481 0.076537
v -0.196157 1.089481 0.039018
v -0.200000 1.089481 0.000000
v -0.196157 1.089481 -0.039018
v -0.184776 1.089481 -0.076537
v -0.166294 1.089481 -0.111114
v -0.141421 1.089481 -0.141421
v -0.111114 1.089481 -0.166294
v -0.076537 1.089481 -0.184776
v -0.039018 1.089481 -0.196157
v 0.000000 1.489480 0.000000
v 0.000000 1.466569 -0.200000
v 0.039018 1.466569 -0.196157
v 0.076537 1.466569 -0.184776
v 0.111114 1.466569 -0.166294
v 0.141421 1.466569 -0.141421
v 0.166294 1.466569 -0.111114
v 0.184776 1.466569 -0.076537
v 0.196157 1.466569 -0.039018
v 0.200000 1.466569 0.000000
v 0.196157 1.466569 0.039018
v 0.184776 1.466569 0.076537
v 0.166294 1.466569 0.111114
v 0.141421 1.466569 0.141421
v 0.111114 1.466569 0.166294
v 0.076537 1.466569 0.184776
v 0.039018 1.466569 0.196157
v 0.000000 1.466569 0.200000
v -0.039018 1.466569 0.196157
v -0.076537 1.466569 0.184776
v -0.111114 1.466569 0.166294
v -0.141421 1.466569 0.141421
v -0.166294 1.466569 0.111114
v -0.184776 1.466569 0.076537
v -0.196157 1.466569 0.039018
v -0.200000 1.466569 0.000000
v -0.196157 1.466569 -0.039018
v -0.184776 1.466569 -0.076537
v -0.166294 1.466569 -0.111114
v -0.141421 1.466569 -0.141421
v -0.111114 1.466569 -0.166294
v -0.076537 1.466569 -0.184776
v -0.039018 1.466569 -0.196157
v 0.000000 1.866569 0.000000
v 0.000000 1.810173 -0.200000
v 0.039018 1.810173 -0.196157
v 0.076537 1.810173 -0.184776
v 0.111114 1.810173 -0.166294
v 0.141421 1.810173 -0.141421
v 0.166294 1.810173 -0.111114
v 0.184776 1.810173 -0.076537
v 0.196157 1.810173 -0.039018
v 0.200000 1.810173 0.000000
v 0.196157 1.810173 0.039018
v 0.184776 1.810173 0.076537
v 0.166294 1.810173 0.111114
v 0.141421 1.810173 0.141421
v 0.111114 1.810173 0.166294
v 0.076537 1.810173 0.184776
v 0.039018 1.810173 0.196157
v 0.000000 1.810173 0.200000
v -0.039018 1.810173 0.196157
v -0.076537 1.810173 0.184776
v -0.111114 1.810173 0.166294
v -0.141421 1.810173 0.141421
v -0.166294 1.810173 0.111114
v -0.184776 1.810173 0.076537
v -0.196157 1.810173 0.039018
v -0.200000 1.810173 0.000000
v -0.196157 1.810173 -0.039018
v -0.184776 1.810173 -0.076537
v -0.166294 1.810173 -0.111114
v -0.141421 1.810173 -0.141421
v -0.111114 1.810173 -0.166294
v -0.076537 1.810173 -0.184776
v -0.039018 1.810173 -0.196157
v 0.000000 2.210173 0.000000
v 0.000000 2.133702 -0.200000
v 0.039018 2.133702 -0.196157
v 0.076537 2.133702 -0.184776
v 0.111114 2.133702 -0.166294
v 0.141421 2.133702 -0.141421
v 0.166294 2.133702 -0.111114
v 0.184776 2.133702 -0.076537
v 0.196157 2.133702 -0.039018
v 0.200000 2.133702 0.000000
v 0.196157 2.133702 0.039018
v 0.184776 2.133702 0.076537
v 0.166294 2.133702 0.111114
v 0.141421 2.133702 0.141421
v 0.111114 2.133702 0.166294
v 0.076537 2.133702 0.184776
v 0.039018 2.133702 0.196157
v 0.000000 2.133702 0.200000
v -0.039018 2.133702 0.196157
v -0.076537 2.133702 0.184776
v -0.111114 2.133702 0.166294
v -0.141421 2.133702 0.141421
v -0.166294 2.133702 0.111114
v -0.184776 2.133702 0.076537
v -0.196157 2.133702 0.039018
v -0.200000 2.133702 0.000000
v -0.196157 2.133702 -0.039018
v -0.184776 2.133702 -0.076537
v -0.166294 2.133702 -0.111114
v -0.141421 2.133702 -0.141421
v -0.111114 2.133702 -0.166294
v -0.076537 2.133702 -0.184776
v -0.039018 2.133702 -0.196157
v 0.000000 2.533702 0.000000
v 0.000000 1.942773 -0.510070
v 0.039018 1.942773 -0.506227
v 0.076537 1.942773 -0.494846
v 0.111114 1.942773 -0.476364
v 0.141421 1.942773 -0.451491
v 0.166294 1.942773 -0.421184
v 0.184776 1.942773 -0.386607
v 0.196157 1.942773 -0.349088
v 0.200000 1.942773 -0.310070
v 0.196157 1.942773 -0.271052
v 0.184776 1.942773 -0.233533
v 0.166294 1.942773 -0.198956
v 0.141421 1.942773 -0.168649
v 0.111114 1.942773 -0.143776
v 0.076537 1.942773 -0.125294
v 0.039018 1.942773 -0.113913
v 0.000000 1.942773 -0.110070
v -0.039018 1.942773 -0.113913
v -0.076537 1.942773 -0.125294
v -0.111114 1.942773 -0.143776
v -0.141421 1.942773 -0.168649
v -0.166294 1.942773 -0.198956
v -0.184776 1.942773 -0.233533
v -0.196157 1.942773 -0.271052
v -0.200000 1.942773 -0.310070
v -0.196157 1.942773 -0.349088
v -0.184776 1.942773 -0.386607
v -0.166294 1.942773 -0.421184
v -0.141421 1.942773 -0.451491
v -0.111114 1.942773 -0.476364
v -0.076537 1.942773 -0.494846
v -0.039018 1.942773 -0.506227
v 0.000000 2.342773 -0.310070
v 0.000000 1.370108 -0.808107
v 0.039018 1.370108 -0.804264
v 0.076537 1.370108 -0.792883
v 0.111114 1.370108 -0.774401
v 0.141421 1.370108 -0.749528
v 0.166294 1.370108 -0.719221
v 0.184776 1.370108 -0.684643
v 0.196157 1.370108 -0.647125
v 0.200000 1.370108 -0.608107
v 0.196157 1.370108 -0.569089
v 0.184776 1.370108 -0.531570
v 0.166294 1.370108 -0.496993
v 0.141421 1.370108 -0.466685
v 0.111114 1.370108 -0.441813
v 0.076537 1.370108 -0.423331
v 0.039018 1.370108 -0.411950
v 0.000000 1.370108 -0.408107
v -0.039018 1.370108 -0.411950
v -0.076537 1.370108 -0.423331
v -0.111114 1.370108 -0.441813
v -0.141421 1.370108 -0.466685
v -0.166294 1.370108 -0.496993
v -0.184776 1.370108 -0.531570
v -0.196157 1.370108 -0.569089
v -0.200000 1.370108 -0.608107
v -0.196157 1.370108 -0.647125
v -0.184776 1.370108 -0.684643
v -0.166294 1.370108 -0.719221
v -0.141421 1.370108 -0.749528
v -0.111114 1.370108 -0.774401
v -0.076537 1.370108 -0.792883
v -0.039018 1.370108 -0.804264
v 0.000000 1.770108 -0.608107
v 0.000000 1.879056 0.052205
v 0.039018 1.879056 0.056048
v 0.076537 1.879056 0.067429
v 0.111114 1.879056 0.085911
v 0.141421 1.879056 0.110784
v 0.166294 1.879056 0.141091
v 0.184776 1.879056 0.175668
v 0.196157 1.879056 0.213187
v 0.200000 1.879056 0.252205
v 0.196157 1.879056 0.291223
v 0.184776 1.879056 0.328742
v 0.166294 1.879056 0.363319
v 0.141421 1.879056 0.393626
v 0.111114 1.879056 0.418499
v 0.076537 1.879056 0.436981
v 0.039018 1.879056 0.448362
v 0.000000 1.879056 0.452205
v -0.039018 1.879056 0.448362
v -0.076537 1.879056 0.436981
v -0.111114 1.879056 0.418499
v -0.141421 1.879056 0.393626
v -0.166294 1.879056 0.363319
v -0.184776 1.879056 0.328742
v -0.196157 1.879056 0.291223
v -0.200000 1.879056 0.252205
v -0.196157 1.879056 0.213187
v -0.184776 1.879056 0.175668
v -0.166294 1.879056 0.141091
v -0.141421 1.879056 0.110784
v -0.111114 1.879056 0.085911
v -0.076537 1.879056 0.067429
v -0.039018 1.879056 0.056048
v 0.000000 2.279056 0.252205
vn 0.0878 0.4455 -0.8910
vn 0.2599 0.4455 -0.8567
vn 0.4220 0.4455 -0.7896
vn 0.5680 0.4455 -0.6921
vn 0.6921 0.4455 -0.5680
vn 0.7896 0.4455 -0.4220
vn 0.8567 0.4455 -0.2599
vn 0.8910 0.4455 -0.0878
vn 0.8910 0.4455 0.0878
vn 0.8567 0.4455 0.2599
vn 0.7896 0.4455 0.4220
vn 0.6921 0.4455 0.5680
vn 0.5680 0.4455 0.6921
vn 0.4220 0.4455 0.7896
vn 0.2599 0.4455 0.8567
vn 0.0878 0.4455 0.8910
vn -0.0878 0.4455 0.8910
vn -0.2599 0.4455 0.8567
vn -0.4220 0.4455 0.7896
vn -0.5680 0.4455 0.6921
vn -0.6921 0.4455 0.5680
vn -0.7896 0.4455 0.4220
vn -0.8567 0.4455 0.2599
vn -0.8910 0.4455 0.0878
vn -0.8910 0.4455 -0.0878
vn -0.8567 0.4455 -0.2599
vn -0.7896 0.4455 -0.4220
vn -0.6921 0.4455 -0.5680
vn -0.5680 0.4455 -0.6921
vn -0.4220 0.4455 -0.7896
vn -0.0000 -1.0000 -0.0000
vn -0.2599 0.4455 -0.8567
vn -0.0878 0.4455 -0.8910
vt 0.250000 0.490000
vt 0.250000 0.250000
vt 0.296822 0.485388
vt 0.341844 0.471731
vt 0.383337 0.449553
vt 0.419706 0.419706
vt 0.449553 0.383337
vt 0.471731 0.341844
vt 0.485388 0.296822
vt 0.490000 0.250000
vt 0.485388 0.203178
vt 0.471731 0.158156
vt 0.449553 0.116663
vt 0.419706 0.080294
vt 0.383337 0.050447
vt 0.341844 0.028269
vt 0.296822 0.014612
vt 0.250000 0.010000
vt 0.203178 0.014612
vt 0.158156 0.028269
vt 0.116663 0.050447
vt 0.080294 0.080294
vt 0.050447 0.116663
vt 0.028269 0.158156
vt 0.014612 0.203178
vt 0.010000 0.250000
vt 0.014612 0.296822
vt 0.028269 0.341844
vt 0.050447 0.383337
vt 0.080294 0.419706
vt 0.116663 0.449553
vt 0.158156 0.471731
vt 0.750000 0.490000
vt 0.796822 0.485388
vt 0.841844 0.471731
vt 0.883337 0.449553
vt 0.919706 0.419706
vt 0.949553 0.383337
vt 0.971731 0.341844
vt 0.985388 0.296822
vt 0.990000 0.250000
vt 0.985388 0.203178
vt 0.971731 0.158156
vt 0.949553 0.116663
vt 0.919706 0.080294
vt 0.883337 0.050447
vt 0.841844 0.028269
vt 0.796822 0.014612
vt 0.750000 0.010000
vt 0.703178 0.014612
vt 0.658156 0.028269
vt 0.616663 0.050447
vt 0.580294 0.080294
vt 0.550447 0.116663
vt 0.528269 0.158156
vt 0.514612 0.203178
vt 0.510000 0.250000
vt 0.514612 0.296822
vt 0.528269 0.341844
vt 0.550447 0.383337
vt 0.580294 0.419706
vt 0.616663 0.449553
vt 0.658156 0.471731
vt 0.703178 0.485388
vt 0.203178 0.485388
s 0
f 1/1/1 33/2/1 2/3/1
f 2/3/2 33/2/2 3/4/2
f 3/4/3 33/2/3 4/5/3
f 4/5/4 33/2/4 5/6/4
f 5/6/5 33/2/5 6/7/5
f 6/7/6 33/2/6 7/8/6
f 7/8/7 33/2/7 8/9/7
f 8/9/8 33/2/8 9/10/8
f 9/10/9 33/2/9 10/11/9
f 10/11/10 33/2/10 11/12/10
f 11/12/11 33/2/11 12/13/11
f 12/13/12 33/2/12 13/14/12
f 13/14/13 33/2/13 14/15/13
f 14/15/14 33/2/14 15/16/14
f 15/16/15 33/2/15 16/17/15
f 16/17/16 33/2/16 17/18/16
f 17/18/17 33/2/17 18/19/17
f 18/19/18 33/2/18 19/20/18
f 19/20/19 33/2/19 20/21/19
f 20/21/20 33/2/20 21/22/20
f 21/22/21 33/2/21 22/23/21
f 22/23/22 33/2/22 23/24/22
f 23/24/23 33/2/23 24/25/23
f 24/25/24 33/2/24 25/26/24
f 25/26/25 33/2/25 26/27/25
f 26/27/26 33/2/26 27/28/26
f 27/28/27 33/2/27 28/29/27
f 28/29/28 33/2/28 29/30/28
f 29/30/29 33/2/29 30/31/29
f 30/31/30 33/2/30 31/32/30
f 1/33/31 2/34/31 3/35/31 4/36/31 5/37/31 6/38/31 7/39/31 8/40/31 9/41/31 10/42/31 11/43/31 12/44/31 13/45/31 14/46/31 15/47/31 16/48/31 17/49/31 18/50/31 19/51/31 20/52/31 21/53/31 22/54/31 23/55/31 24/56/31 25/57/31 26/58/31 27/59/31 28/60/31 29/61/31 30/62/31 31/63/31 32/64/31
f 31/32/32 33/2/32 32/65/32
f 32/65/33 33/2/33 1/1/33
f 34/1/1 66/2/1 35/3/1
f 35/3/2 66/2/2 36/4/2
f 36/4/3 66/2/3 37/5/3
f 37/5/4 66/2/4 38/6/4
f 38/6/5 66/2/5 39/7/5
f 39/7/6 66/2/6 40/8/6
f 40/8/7 66/2/7 41/9/7
f 41/9/8 66/2/8 42/10/8
f 42/10/9 66/2/9 43/11/9
f 43/11/10 66/2/10 44/12/10
f 44/12/11 66/2/11 45/13/11
f 45/13/12 66/2/12 46/14/12
f 46/14/13 66/2/13 47/15/13
f 47/15/14 66/2/14 48/16/14
f 48/16/15 66/2/15 49/17/15
f 49/17/16 66/2/16 50/18/16
f 50/18/17 66/2/17 51/19/17
f 51/19/18 66/2/18 52/20/18
f 52/20/19 66/2/19 53/21/19
f 53/21/20 66/2/20 54/22/20
f 54/22/21 66/2/21 55/23/21
f 55/23/22 66/2/22 56/24/22
f 56/24/23 66/2/23 57/25/23
f 57/25/24 66/2/24 58/26/24
f 58/26/25 66/2/25 59/27/25
f 59/27/26 66/2/26 60/28/26
f 60/28/27 66/2/27 61/29/27
f 61/29/28 66/2/28 62/30/28
f 62/30/29 66/2/29 63/31/29
f 63/31/30 66/2/30 64/32/30
f 34/33/31 35/34/31 36/35/31 37/36/31 38/37/31 39/38/31 40/39/31 41/40/31 42/41/31 43/42/31 44/43/31 45/44/31 46/45/31 47/46/31 48/47/31 49/48/31 50/49/31 51/50/31 52/51/31 53/52/31 54/53/31 55/54/31 56/55/31 57/56/31 58/57/31 59/58/31 60/59/31 61/60/31 62/61/31 63/62/31 64/63/31 65/64/31
f 64/32/32 66/2/32 65/65/32
f 65/65/33 66/2/33 34/1/33
f 67/1/1 99/2/1 68/3/1
f 68/3/2 99/2/2 69/4/2
f 69/4/3 99/2/3 70/5/3
f 70/5/4 99/2/4 71/6/4
f 71/6/5 99/2/5 72/7/5
f 72/7/6 99/2/6 73/8/6
f 73/8/7 99/2/7 74/9/7
f 74/9/8 99/2/8 75/10/8
f 75/10/9 99/2/9 76/11/9
f 76/11/10 99/2/10 77/12/10
f 77/12/11 99/2/11 78/13/11
f 78/13/12 99/2/12 79/14/12
f 79/14/13 99/2/13 80/15/13
f 80/15/14 99/2/14 81/16/14
f 81/16/15 99/2/15 82/17/15
f 82/17/16 99/2/16 83/18/16
f 83/18/17 99/2/17 84/19/17
f 84/19/18 99/2/18 85/20/18
f 85/20/19 99/2/19 86/21/19
f 86/21/20 99/2/20 87/22/20
f 87/22/21 99/2/21 88/23/21
f 88/23/22 99/2/22 89/24/22
f 89/24/23 99/2/23 90/25/23
f 90/25/24 99/2/24 91/26/24
f 91/26/25 99/2/25 92/27/25
f 92/27/26 99/2/26 93/28/26
f 93/28/27 99/2/27 94/29/27
f 94/29/28 99/2/28 95/30/28
f 95/30/29 99/2/29 96/31/29
f 96/31/30 99/2/30 97/32/30
f 67/33/31 68/34/31 69/35/31 70/36/31 71/37/31 72/38/31 73/39/31 74/40/31 75/41/31 76/42/31 77/43/31 78/44/31 79/45/31 80/46/31 81/47/31 82/48/31 83/49/31 84/50/31 85/51/31 86/52/31 87/53/31 88/54/31 89/55/31 90/56/31 91/57/31 92/58/31 93/59/31 94/60/31 95/61/31 96/62/31 97/63/31 98/64/31
f 97/32/32 99/2/32 98/65/32
f 98/65/33 99/2/33 67/1/33
f 100/1/1 132/2/1 101/3/1
f 101/3/2 132/2/2 102/4/2
f 102/4/3 132/2/3 103/5/3
f 103/5/4 132/2/4 104/6/4
f 104/6/5 132/2/5 105/7/5
f 105/7/6 132/2/6 106/8/6
f 106/8/7 132/2/7 107/9/7
f 107/9/8 132/2/8 108/10/8
f 108/10/9 132/2/9 109/11/9
f 109/11/10 132/2/10 110/12/10
f 110/12/11 132/2/11 111/13/11
f 111/13/12 132/2/12 112/14/12
f 112/14/13 132/2/13 113/15/13
f 113/15/14 132/2/14 114/16/14
f 114/16/15 132/2/15 115/17/15
f 115/17/16 132/2/16 116/18/16
f 116/18/17 132/2/17 117/19/17
f 117/19/18 132/2/18 118/20/18
f 118/20/19 132/2/19 119/21/19
f 119/21/20 132/2/20 120/22/20
f 120/22/21 132/2/21 121/23/21
f 121/23/22 132/2/22 122/24/22
f 122/24/23 132/2/23 123/25/23
f 123/25/24 132/2/24 124/26/24
f 124/26/25 132/2/25 125/27/25
f 125/27/26 132/2/26 126/28/26
f 126/28/27 132/2/27 127/29/27
f 127/29/28 132/2/28 128/30/28
f 128/30/29 132/2/29 129/31/29
f 129/31/30 132/2/30 130/32/30
f 100/33/31 101/34/31 102/35/31 103/36/31 104/37/31 105/38/31 106/39/31 107/40/31 108/41/31 109/42/31 110/43/31 111/44/31 112/45/31 113/46/31 114/47/31 115/48/31 116/49/31 117/50/31 118/51/31 119/52/31 120/53/31 121/54/31 122/55/31 123/56/31 124/57/31 125/58/31 126/59/31 127/60/31 128/61/31 129/62/31 130/63/31 131/64/31
f 130/32/32 132/2/32 131/65/32
f 131/65/33 132/2/33 100/1/33
f 133/1/1 165/2/1 134/3/1
f 134/3/2 165/2/2 135/4/2
f 135/4/3 165/2/3 136/5/3
f 136/5/4 165/2/4 137/6/4
f 137/6/5 165/2/5 138/7/5
f 138/7/6 165/2/6 139/8/6
f 139/8/7 165/2/7 140/9/7
f 140/9/8 165/2/8 141/10/8
f 141/10/9 165/2/9 142/11/9
f 142/11/10 165/2/10 143/12/10
f 143/12/11 165/2/11 144/13/11
f 144/13/12 165/2/12 145/14/12
f 145/14/13 165/2/13 146/15/13
f 146/15/14 165/2/14 147/16/14
f 147/16/15 165/2/15 148/17/15
f 148/17/16 165/2/16 149/18/16
f 149/18/17 165/2/17 150/19/17
f 150/19/18 165/2/18 151/20/18
f 151/20/19 165/2/19 152/21/19
f 152/21/20 165/2/20 153/22/20
f 153/22/21 165/2/21 154/23/21
f 154/23/22 165/2/22 155/24/22
f 155/24/23 165/2/23 156/25/23
f 156/25/24 165/2/24 157/26/24
f 157/26/25 165/2/25 158/27/25
f 158/27/26 165/2/26 159/28/26
f 159/28/27 165/2/27 160/29/27
f 160/29/28 165/2/28 161/30/28
f 161/30/29 165/2/29 162/31/29
f 162/31/30 165/2/30 163/32/30
f 133/33/31 134/34/31 135/35/31 136/36/31 137/37/31 138/38/31 139/39/31 140/40/31 141/41/31 142/42/31 143/43/31 144/44/31 145/45/31 146/46/31 147/47/31 148/48/31 149/49/31 150/50/31 151/51/31 152/52/31 153/53/31 154/54/31 155/55/31 156/56/31 157/57/31 158/58/31 159/59/31 160/60/31 161/61/31 162/62/31 163/63/31 164/64/31
f 163/32/32 165/2/32 164/65/32
f 164/65/33 165/2/33 133/1/33
f 166/1/1 198/2/1 167/3/1
f 167/3/2 198/2/2 168/4/2
f 168/4/3 198/2/3 169/5/3
f 169/5/4 198/2/4 170/6/4
f 170/6/5 198/2/5 171/7/5
f 171/7/6 198/2/6 172/8/6
f 172/8/7 198/2/7 173/9/7
f 173/9/8 198/2/8 174/10/8
f 174/10/9 198/2/9 175/11/9
f 175/11/10 198/2/10 176/12/10
f 176/12/11 198/2/11 177/13/11
f 177/13/12 198/2/12 178/14/12
f 178/14/13 198/2/13 179/15/13
f 179/15/14 198/2/14 180/16/14
f 180/16/15 198/2/15 181/17/15
f 181/17/16 198/2/16 182/18/16
f 182/18/17 198/2/17 183/19/17
f 183/19/18 198/2/18 184/20/18
f 184/20/19 198/2/19 185/21/19
f 185/21/20 198/2/20 186/22/20
f 186/22/21 198/2/21 187/23/21
f 187/23/22 198/2/22 188/24/22
f 188/24/23 198/2/23 189/25/23
f 189/25/24 198/2/24 190/26/24
f 190/26/25 198/2/25 191/27/25
f 191/27/26 198/2/26 192/28/26
f 192/28/27 198/2/27 193/29/27
f 193/29/28 198/2/28 194/30/28
f 194/30/29 198/2/29 195/31/29
f 195/31/30 198/2/30 196/32/30
f 166/33/31 167/34/31 168/35/31 169/36/31 170/37/31 171/38/31 172/39/31 173/40/31 174/41/31 175/42/31 176/43/31 177/44/31 178/45/31 179/46/31 180/47/31 181/48/31 182/49/31 183/50/31 184/51/31 185/52/31 186/53/31 187/54/31 188/55/31 189/56/31 190/57/31 191/58/31 192/59/31 193/60/31 194/61/31 195/62/31 196/63/31 197/64/31
f 196/32/32 198/2/32 197/65/32
f 197/65/33 198/2/33 166/1/33
f 199/1/1 231/2/1 200/3/1
f 200/3/2 231/2/2 201/4/2
f 201/4/3 231/2/3 202/5/3
f 202/5/4 231/2/4 203/6/4
f 203/6/5 231/2/5 204/7/5
f 204/7/6 231/2/6 205/8/6
f 205/8/7 231/2/7 206/9/7
f 206/9/8 231/2/8 207/10/8
f 207/10/9 231/2/9 208/11/9
f 208/11/10 231/2/10 209/12/10
f 209/12/11 231/2/11 210/13/11
f 210/13/12 231/2/12 211/14/12
f 211/14/13 231/2/13 212/15/13
f 212/15/14 231/2/14 213/16/14
f 213/16/15 231/2/15 214/17/15
f 214/17/16 231/2/16 215/18/16
f 215/18/17 231/2/17 216/19/17
f 216/19/18 231/2/18 217/20/18
f 217/20/19 231/2/19 218/21/19
f 218/21/20 231/2/20 219/22/20
f 219/22/21 231/2/21 220/23/21
f 220/23/22 231/2/22 221/24/22
f 221/24/23 231/2/23 222/25/23
f 222/25/24 231/2/24 223/26/24
f 223/26/25 231/2/25 224/27/25
f 224/27/26 231/2/26 225/28/26
f 225/28/27 231/2/27 226/29/27
f 226/29/28 231/2/28 227/30/28
f 227/30/29 231/2/29 228/31/29
f 228/31/30 231/2/30 229/32/30
f 199/33/31 200/34/31 201/35/31 202/36/31 203/37/31 204/38/31 205/39/31 206/40/31 207/41/31 208/42/31 209/43/31 210/44/31 211/45/31 212/46/31 213/47/31 214/48/31 215/49/31 216/50/31 217/51/31 218/52/31 219/53/31 220/54/31 221/55/31 222/56/31 223/57/31 224/58/31 225/59/31 226/60/31 227/61/31 228/62/31 229/63/31 230/64/31
f 229/32/32 231/2/32 230/65/32
f 230/65/33 231/2/33 199/1/33
f 232/1/1 264/2/1 233/3/1
f 233/3/2 264/2/2 234/4/2
f 234/4/3 264/2/3 235/5/3
f 235/5/4 264/2/4 236/6/4
f 236/6/5 264/2/5 237/7/5
f 237/7/6 264/2/6 238/8/6
f 238/8/7 264/2/7 239/9/7
f 239/9/8 264/2/8 240/10/8
f 240/10/9 264/2/9 241/11/9
f 241/11/10 264/2/10 242/12/10
f 242/12/11 264/2/11 243/13/11
f 243/13/12 264/2/12 244/14/12
f 244/14/13 264/2/13 245/15/13
f 245/15/14 264/2/14 246/16/14
f 246/16/15 264/2/15 247/17/15
f 247/17/16 264/2/16 248/18/16
f 248/18/17 264/2/17 249/19/17
f 249/19/18 264/2/18 250/20/18
f 250/20/19 264/2/19 251/21/19
f 251/21/20 264/2/20 252/22/20
f 252/22/21 264/2/21 253/23/21
f 253/23/22 264/2/22 254/24/22
f 254/24/23 264/2/23 255/25/23
f 255/25/24 264/2/24 256/26/24
f 256/26/25 264/2/25 257/27/25
f 257/27/26 264/2/26 258/28/26
f 258/28/27 264/2/27 259/29/27
f 259/29/28 264/2/28 260/30/28
f 260/30/29 264/2/29 261/31/29
f 261/31/30 264/2/30 262/32/30
f 232/33/31 233/34/31 234/35/31 235/36/31 236/37/31 237/38/31 238/39/31 239/40/31 240/41/31 241/42/31 242/43/31 243/44/31 244/45/31 245/46/31 246/47/31 247/48/31 248/49/31 249/50/31 250/51/31 251/52/31 252/53/31 253/54/31 254/55/31 255/56/31 256/57/31 257/58/31 258/59/31 259/60/31 260/61/31 261/62/31 262/63/31 263/64/31
f 262/32/32 264/2/32 263/65/32
f 263/65/33 264/2/33 232/1/33
f 265/1/1 297/2/1 266/3/1
f 266/3/2 297/2/2 267/4/2
f 267/4/3 297/2/3 268/5/3
f 268/5/4 297/2/4 269/6/4
f 269/6/5 297/2/5 270/7/5
f 270/7/6 297/2/6 271/8/6
f 271/8/7 297/2/7 272/9/7
f 272/9/8 297/2/8 273/10/8
f 273/10/9 297/2/9 274/11/9
f 274/11/10 297/2/10 275/12/10
f 275/12/11 297/2/11 276/13/11
f 276/13/12 297/2/12 277/14/12
f 277/14/13 297/2/13 278/15/13
f 278/15/14 297/2/14 279/16/14
f 279/16/15 297/2/15 280/17/15
f 280/17/16 297/2/16 281/18/16
f 281/18/17 297/2/17 282/19/17
f 282/19/18 297/2/18 283/20/18
f 283/20/19 297/2/19 284/21/19
f 284/21/20 297/2/20 285/22/20
f 285/22/21 297/2/21 286/23/21
f 286/23/22 297/2/22 287/24/22
f 287/24/23 297/2/23 288/25/23
f 288/25/24 297/2/24 289/26/24
f 289/26/25 297/2/25 290/27/25
f 290/27/26 297/2/26 291/28/26
f 291/28/27 297/2/27 292/29/27
f 292/29/28 297/2/28 293/30/28
f 293/30/29 297/2/29 294/31/29
f 294/31/30 297/2/30 295/32/30
f 265/33/31 266/34/31 267/35/31 268/36/31 269/37/31 270/38/31 271/39/31 272/40/31 273/41/31 274/42/31 275/43/31 276/44/31 277/45/31 278/46/31 279/47/31 280/48/31 281/49/31 282/50/31 283/51/31 284/52/31 285/53/31 286/54/31 287/55/31 288/56/31 289/57/31 290/58/31 291/59/31 292/60/31 293/61/31 294/62/31 295/63/31 296/64/31
f 295/32/32 297/2/32 296/65/32
f 296/65/33 297/2/33 265/1/33
f 298/1/1 330/2/1 299/3/1
f 299/3/2 330/2/2 300/4/2
f 300/4/3 330/2/3 301/5/3
f 301/5/4 330/2/4 302/6/4
f 302/6/5 330/2/5 303/7/5
f 303/7/6 330/2/6 304/8/6
f 304/8/7 330/2/7 305/9/7
f 305/9/8 330/2/8 306/10/8
f 306/10/9 330/2/9 307/11/9
f 307/11/10 330/2/10 308/12/10
f 308/12/11 330/2/11 309/13/11
f 309/13/12 330/2/12 310/14/12
f 310/14/13 330/2/13 311/15/13
f 311/15/14 330/2/14 312/16/14
f 312/16/15 330/2/15 313/17/15
f 313/17/16 330/2/16 314/18/16
f 314/18/17 330/2/17 315/19/17
f 315/19/18 330/2/18 316/20/18
f 316/20/19 330/2/19 317/21/19
f 317/21/20 330/2/20 318/22/20
f 318/22/21 330/2/21 319/23/21
f 319/23/22 330/2/22 320/24/22
f 320/24/23 330/2/23 321/25/23
f 321/25/24 330/2/24 322/26/24
f 322/26/25 330/2/25 323/27/25
f 323/27/26 330/2/26 324/28/26
f 324/28/27 330/2/27 325/29/27
f 325/29/28 330/2/28 326/30/28
f 326/30/29 330/2/29 327/31/29
f 327/31/30 330/2/30 328/32/30
f 298/33/31 299/34/31 300/35/31 301/36/31 302/37/31 303/38/31 304/39/31 305/40/31 306/41/31 307/42/31 308/43/31 309/44/31 310/45/31 311/46/31 312/47/31 313/48/31 314/49/31 315/50/31 316/51/31 317/52/31 318/53/31 319/54/31 320/55/31 321/56/31 322/57/31 323/58/31 324/59/31 325/60/31 326/61/31 327/62/31 328/63/31 329/64/31
f 328/32/32 330/2/32 329/65/32
f 329/65/33 330/2/33 298/1/33
f 331/1/1 363/2/1 332/3/1
f 332/3/2 363/2/2 333/4/2
f 333/4/3 363/2/3 334/5/3
f 334/5/4 363/2/4 335/6/4
f 335/6/5 363/2/5 336/7/5
f 336/7/6 363/2/6 337/8/6
f 337/8/7 363/2/7 338/9/7
f 338/9/8 363/2/8 339/10/8
f 339/10/9 363/2/9 340/11/9
f 340/11/10 363/2/10 341/12/10
f 341/12/11 363/2/11 342/13/11
f 342/13/12 363/2/12 343/14/12
f 343/14/13 363/2/13 344/15/13
f 344/15/14 363/2/14 345/16/14
f 345/16/15 363/2/15 346/17/15
f 346/17/16 363/2/16 347/18/16
f 347/18/17 363/2/17 348/19/17
f 348/19/18 363/2/18 349/20/18
f 349/20/19 363/2/19 350/21/19
f 350/21/20 363/2/20 351/22/20
f 351/22/21 363/2/21 352/23/21
f 352/23/22 363/2/22 353/24/22
f 353/24/23 363/2/23 354/25/23
f 354/25/24 363/2/24 355/26/24
f 355/26/25 363/2/25 356/27/25
f 356/27/26 363/2/26 357/28/26
f 357/28/27 363/2/27 358/29/27
f 358/29/28 363/2/28 359/30/28
f 359/30/29 363/2/29 360/31/29
f 360/31/30 363/2/30 361/32/30
f 331/33/31 332/34/31 333/35/31 334/36/31 335/37/31 336/38/31 337/39/31 338/40/31 339/41/31 340/42/31 341/43/31 342/44/31 343/45/31 344/46/31 345/47/31 346/48/31 347/49/31 348/50/31 349/51/31 350/52/31 351/53/31 352/54/31 353/55/31 354/56/31 355/57/31 356/58/31 357/59/31 358/60/31 359/61/31 360/62/31 361/63/31 362/64/31
f 361/32/32 363/2/32 362/65/32
f 362/65/33 363/2/33 331/1/33
f 364/1/1 396/2/1 365/3/1
f 365/3/2 396/2/2 366/4/2
f 366/4/3 396/2/3 367/5/3
f 367/5/4 396/2/4 368/6/4
f 368/6/5 396/2/5 369/7/5
f 369/7/6 396/2/6 370/8/6
f 370/8/7 396/2/7 371/9/7
f 371/9/8 396/2/8 372/10/8
f 372/10/9 396/2/9 373/11/9
f 373/11/10 396/2/10 374/12/10
f 374/12/11 396/2/11 375/13/11
f 375/13/12 396/2/12 376/14/12
f 376/14/13 396/2/13 377/15/13
f 377/15/14 396/2/14 378/16/14
f 378/16/15 396/2/15 379/17/15
f 379/17/16 396/2/16 380/18/16
f 380/18/17 396/2/17 381/19/17
f 381/19/18 396/2/18 382/20/18
f 382/20/19 396/2/19 383/21/19
f 383/21/20 396/2/20 384/22/20
f 384/22/21 396/2/21 385/23/21
f 385/23/22 396/2/22 386/24/22
f 386/24/23 396/2/23 387/25/23
f 387/25/24 396/2/24 388/26/24
f 388/26/25 396/2/25 389/27/25
f 389/27/26 396/2/26 390/28/26
f 390/28/27 396/2/27 391/29/27
f 391/29/28 396/2/28 392/30/28
f 392/30/29 396/2/29 393/31/29
f 393/31/30 396/2/30 394/32/30
f 364/33/31 365/34/31 366/35/31 367/36/31 368/37/31 369/38/31 370/39/31 371/40/31 372/41/31 373/42/31 374/43/31 375/44/31 376/45/31 377/46/31 378/47/31 379/48/31 380/49/31 381/50/31 382/51/31 383/52/31 384/53/31 385/54/31 386/55/31 387/56/31 388/57/31 389/58/31 390/59/31 391/60/31 392/61/31 393/62/31 394/63/31 395/64/31
f 394/32/32 396/2/32 395/65/32
f 395/65/33 396/2/33 364/1/33
