# Blender 4.3.2
# www.blender.org
mtllib axe6.mtl
o Icosphere.012
v 0.000000 1.710289 -0.431382
v 0.144720 1.820846 -0.326238
v -0.055277 1.820846 -0.261254
v -0.178885 1.820846 -0.431382
v -0.055277 1.820846 -0.601510
v 0.144720 1.820846 -0.536526
v 0.055277 1.999732 -0.261254
v -0.144720 1.999732 -0.326238
v -0.144720 1.999732 -0.536526
v 0.055277 1.999732 -0.601510
v 0.178885 1.999732 -0.431382
v 0.000000 2.110289 -0.431382
v 0.000000 -0.200000 0.000000
v 0.144720 -0.089443 0.105144
v -0.055277 -0.089443 0.170128
v -0.178885 -0.089443 0.000000
v -0.055277 -0.089443 -0.170128
v 0.144720 -0.089443 -0.105144
v 0.055277 0.089443 0.170128
v -0.144720 0.089443 0.105144
v -0.144720 0.089443 -0.105144
v 0.055277 0.089443 -0.170128
v 0.178885 0.089443 0.000000
v 0.000000 0.200000 0.000000
v 0.000000 0.108498 0.000000
v 0.144720 0.219055 0.105144
v -0.055277 0.219055 0.170128
v -0.178885 0.219055 0.000000
v -0.055277 0.219055 -0.170128
v 0.144720 0.219055 -0.105144
v 0.055277 0.397941 0.170128
v -0.144720 0.397941 0.105144
v -0.144720 0.397941 -0.105144
v 0.055277 0.397941 -0.170128
v 0.178885 0.397941 0.000000
v 0.000000 0.508498 0.000000
v 0.000000 0.408201 0.000000
v 0.144720 0.518758 0.105144
v -0.055277 0.518758 0.170128
v -0.178885 0.518758 0.000000
v -0.055277 0.518758 -0.170128
v 0.144720 0.518758 -0.105144
v 0.055277 0.697644 0.170128
v -0.144720 0.697644 0.105144
v -0.144720 0.697644 -0.105144
v 0.055277 0.697644 -0.170128
v 0.178885 0.697644 0.000000
v 0.000000 0.808201 0.000000
v 0.000000 0.718691 0.000000
v 0.144720 0.829248 0.105144
v -0.055277 0.829248 0.170128
v -0.178885 0.829248 0.000000
v -0.055277 0.829248 -0.170128
v 0.144720 0.829248 -0.105144
v 0.055277 1.008134 0.170128
v -0.144720 1.008134 0.105144
v -0.144720 1.008134 -0.105144
v 0.055277 1.008134 -0.170128
v 0.178885 1.008134 0.000000
v 0.000000 1.118691 0.000000
v 0.000000 1.015671 0.000000
v 0.144720 1.126228 0.105144
v -0.055277 1.126228 0.170128
v -0.178885 1.126228 0.000000
v -0.055277 1.126228 -0.170128
v 0.144720 1.126228 -0.105144
v 0.055277 1.305114 0.170128
v -0.144720 1.305114 0.105144
v -0.144720 1.305114 -0.105144
v 0.055277 1.305114 -0.170128
v 0.178885 1.305114 0.000000
v 0.000000 1.415671 0.000000
v 0.000000 1.291433 0.000000
v 0.144720 1.401990 0.105144
v -0.055277 1.401990 0.170128
v -0.178885 1.401990 0.000000
v -0.055277 1.401990 -0.170128
v 0.144720 1.401990 -0.105144
v 0.055277 1.580876 0.170128
v -0.144720 1.580876 0.105144
v -0.144720 1.580876 -0.105144
v 0.055277 1.580876 -0.170128
v 0.178885 1.580876 0.000000
v 0.000000 1.691433 0.000000
v 0.000000 1.605203 0.000000
v 0.144720 1.715760 0.105144
v -0.055277 1.715760 0.170128
v -0.178885 1.715760 0.000000
v -0.055277 1.715760 -0.170128
v 0.144720 1.715760 -0.105144
v 0.055277 1.894646 0.170128
v -0.144720 1.894646 0.105144
v -0.144720 1.894646 -0.105144
v 0.055277 1.894646 -0.170128
v 0.178885 1.894646 0.000000
v 0.000000 2.005203 0.000000
v 0.000000 1.897709 0.000000
v 0.144720 2.008266 0.105144
v -0.055277 2.008266 0.170128
v -0.178885 2.008266 0.000000
v -0.055277 2.008266 -0.170128
v 0.144720 2.008266 -0.105144
v 0.055277 2.187152 0.170128
v -0.144720 2.187152 0.105144
v -0.144720 2.187152 -0.105144
v 0.055277 2.187152 -0.170128
v 0.178885 2.187152 0.000000
v 0.000000 2.297709 0.000000
v 0.000000 2.188974 0.000000
v 0.144720 2.299531 0.105144
v -0.055277 2.299531 0.170128
v -0.178885 2.299531 0.000000
v -0.055277 2.299531 -0.170128
v 0.144720 2.299531 -0.105144
v 0.055277 2.478417 0.170128
v -0.144720 2.478417 0.105144
v -0.144720 2.478417 -0.105144
v 0.055277 2.478417 -0.170128
v 0.178885 2.478417 0.000000
v 0.000000 2.588974 0.000000
v 0.000000 1.949075 -0.232481
v 0.144720 2.059632 -0.127337
v -0.055277 2.059632 -0.062353
v -0.178885 2.059632 -0.232481
v -0.055277 2.059632 -0.402609
v 0.144720 2.059632 -0.337625
v 0.055277 2.238518 -0.062353
v -0.144720 2.238518 -0.127337
v -0.144720 2.238518 -0.337625
v 0.055277 2.238518 -0.402609
v 0.178885 2.238518 -0.232481
v 0.000000 2.349075 -0.232481
v 0.000000 1.710221 -0.232481
v 0.144720 1.820778 -0.127337
v -0.055277 1.820778 -0.062353
v -0.178885 1.820778 -0.232481
v -0.055277 1.820778 -0.402609
v 0.144720 1.820778 -0.337625
v 0.055277 1.999664 -0.062353
v -0.144720 1.999664 -0.127337
v -0.144720 1.999664 -0.337625
v 0.055277 1.999664 -0.402609
v 0.178885 1.999664 -0.232481
v 0.000000 2.110221 -0.232481
v 0.000000 1.710289 -0.682389
v 0.144720 1.820846 -0.577245
v -0.055277 1.820846 -0.512261
v -0.178885 1.820846 -0.682389
v -0.055277 1.820846 -0.852517
v 0.144720 1.820846 -0.787533
v 0.055277 1.999732 -0.512261
v -0.144720 1.999732 -0.577245
v -0.144720 1.999732 -0.787533
v 0.055277 1.999732 -0.852517
v 0.178885 1.999732 -0.682389
v 0.000000 2.110289 -0.682389
vn 0.1876 -0.7947 0.5774
vn 0.6071 -0.7947 -0.0000
vn -0.4911 -0.7947 0.3568
vn -0.4911 -0.7947 -0.3568
vn 0.1876 -0.7947 -0.5774
vn 0.9822 -0.1876 -0.0000
vn 0.3035 -0.1876 0.9342
vn -0.7946 -0.1876 0.5774
vn -0.7946 -0.1876 -0.5774
vn 0.3035 -0.1876 -0.9342
vn 0.7946 0.1876 0.5774
vn -0.3035 0.1876 0.9342
vn -0.9822 0.1876 -0.0000
vn -0.3035 0.1876 -0.9342
vn 0.7946 0.1876 -0.5774
vn 0.4911 0.7947 0.3568
vn -0.1876 0.7947 0.5774
vn -0.6071 0.7947 -0.0000
vn -0.1876 0.7947 -0.5774
vn 0.4911 0.7947 -0.3568
vt 0.181819 0.000000
vt 0.272728 0.157461
vt 0.090910 0.157461
vt 0.363637 0.000000
vt 0.454546 0.157461
vt 0.909091 0.000000
vt 1.000000 0.157461
vt 0.818182 0.157461
vt 0.727273 0.000000
vt 0.636364 0.157461
vt 0.545455 0.000000
vt 0.363637 0.314921
vt 0.181819 0.314921
vt 0.909091 0.314921
vt 0.727273 0.314921
vt 0.545455 0.314921
vt 0.000000 0.314921
vt 0.272728 0.472382
vt 0.090910 0.472382
vt 0.818182 0.472382
vt 0.636364 0.472382
vt 0.454546 0.472382
s 0
f 1/1/1 2/2/1 3/3/1
f 2/2/2 1/4/2 6/5/2
f 1/6/3 3/7/3 4/8/3
f 1/9/4 4/8/4 5/10/4
f 1/11/5 5/10/5 6/5/5
f 2/2/6 6/5/6 11/12/6
f 3/3/7 2/2/7 7/13/7
f 4/8/8 3/7/8 8/14/8
f 5/10/9 4/8/9 9/15/9
f 6/5/10 5/10/10 10/16/10
f 2/2/11 11/12/11 7/13/11
f 3/3/12 7/13/12 8/17/12
f 4/8/13 8/14/13 9/15/13
f 5/10/14 9/15/14 10/16/14
f 6/5/15 10/16/15 11/12/15
f 7/13/16 11/12/16 12/18/16
f 8/17/17 7/13/17 12/19/17
f 9/15/18 8/14/18 12/20/18
f 10/16/19 9/15/19 12/21/19
f 11/12/20 10/16/20 12/22/20
f 13/1/1 14/2/1 15/3/1
f 14/2/2 13/4/2 18/5/2
f 13/6/3 15/7/3 16/8/3
f 13/9/4 16/8/4 17/10/4
f 13/11/5 17/10/5 18/5/5
f 14/2/6 18/5/6 23/12/6
f 15/3/7 14/2/7 19/13/7
f 16/8/8 15/7/8 20/14/8
f 17/10/9 16/8/9 21/15/9
f 18/5/10 17/10/10 22/16/10
f 14/2/11 23/12/11 19/13/11
f 15/3/12 19/13/12 20/17/12
f 16/8/13 20/14/13 21/15/13
f 17/10/14 21/15/14 22/16/14
f 18/5/15 22/16/15 23/12/15
f 19/13/16 23/12/16 24/18/16
f 20/17/17 19/13/17 24/19/17
f 21/15/18 20/14/18 24/20/18
f 22/16/19 21/15/19 24/21/19
f 23/12/20 22/16/20 24/22/20
f 25/1/1 26/2/1 27/3/1
f 26/2/2 25/4/2 30/5/2
f 25/6/3 27/7/3 28/8/3
f 25/9/4 28/8/4 29/10/4
f 25/11/5 29/10/5 30/5/5
f 26/2/6 30/5/6 35/12/6
f 27/3/7 26/2/7 31/13/7
f 28/8/8 27/7/8 32/14/8
f 29/10/9 28/8/9 33/15/9
f 30/5/10 29/10/10 34/16/10
f 26/2/11 35/12/11 31/13/11
f 27/3/12 31/13/12 32/17/12
f 28/8/13 32/14/13 33/15/13
f 29/10/14 33/15/14 34/16/14
f 30/5/15 34/16/15 35/12/15
f 31/13/16 35/12/16 36/18/16
f 32/17/17 31/13/17 36/19/17
f 33/15/18 32/14/18 36/20/18
f 34/16/19 33/15/19 36/21/19
f 35/12/20 34/16/20 36/22/20
f 37/1/1 38/2/1 39/3/1
f 38/2/2 37/4/2 42/5/2
f 37/6/3 39/7/3 40/8/3
f 37/9/4 40/8/4 41/10/4
f 37/11/5 41/10/5 42/5/5
f 38/2/6 42/5/6 47/12/6
f 39/3/7 38/2/7 43/13/7
f 40/8/8 39/7/8 44/14/8
f 41/10/9 40/8/9 45/15/9
f 42/5/10 41/10/10 46/16/10
f 38/2/11 47/12/11 43/13/11
f 39/3/12 43/13/12 44/17/12
f 40/8/13 44/14/13 45/15/13
f 41/10/14 45/15/14 46/16/14
f 42/5/15 46/16/15 47/12/15
f 43/13/16 47/12/16 48/18/16
f 44/17/17 43/13/17 48/19/17
f 45/15/18 44/14/18 48/20/18
f 46/16/19 45/15/19 48/21/19
f 47/12/20 46/16/20 48/22/20
f 49/1/1 50/2/1 51/3/1
f 50/2/2 49/4/2 54/5/2
f 49/6/3 51/7/3 52/8/3
f 49/9/4 52/8/4 53/10/4
f 49/11/5 53/10/5 54/5/5
f 50/2/6 54/5/6 59/12/6
f 51/3/7 50/2/7 55/13/7
f 52/8/8 51/7/8 56/14/8
f 53/10/9 52/8/9 57/15/9
f 54/5/10 53/10/10 58/16/10
f 50/2/11 59/12/11 55/13/11
f 51/3/12 55/13/12 56/17/12
f 52/8/13 56/14/13 57/15/13
f 53/10/14 57/15/14 58/16/14
f 54/5/15 58/16/15 59/12/15
f 55/13/16 59/12/16 60/18/16
f 56/17/17 55/13/17 60/19/17
f 57/15/18 56/14/18 60/20/18
f 58/16/19 57/15/19 60/21/19
f 59/12/20 58/16/20 60/22/20
f 61/1/1 62/2/1 63/3/1
f 62/2/2 61/4/2 66/5/2
f 61/6/3 63/7/3 64/8/3
f 61/9/4 64/8/4 65/10/4
f 61/11/5 65/10/5 66/5/5
f 62/2/6 66/5/6 71/12/6
f 63/3/7 62/2/7 67/13/7
f 64/8/8 63/7/8 68/14/8
f 65/10/9 64/8/9 69/15/9
f 66/5/10 65/10/10 70/16/10
f 62/2/11 71/12/11 67/13/11
f 63/3/12 67/13/12 68/17/12
f 64/8/13 68/14/13 69/15/13
f 65/10/14 69/15/14 70/16/14
f 66/5/15 70/16/15 71/12/15
f 67/13/16 71/12/16 72/18/16
f 68/17/17 67/13/17 72/19/17
f 69/15/18 68/14/18 72/20/18
f 70/16/19 69/15/19 72/21/19
f 71/12/20 70/16/20 72/22/20
f 73/1/1 74/2/1 75/3/1
f 74/2/2 73/4/2 78/5/2
f 73/6/3 75/7/3 76/8/3
f 73/9/4 76/8/4 77/10/4
f 73/11/5 77/10/5 78/5/5
f 74/2/6 78/5/6 83/12/6
f 75/3/7 74/2/7 79/13/7
f 76/8/8 75/7/8 80/14/8
f 77/10/9 76/8/9 81/15/9
f 78/5/10 77/10/10 82/16/10
f 74/2/11 83/12/11 79/13/11
f 75/3/12 79/13/12 80/17/12
f 76/8/13 80/14/13 81/15/13
f 77/10/14 81/15/14 82/16/14
f 78/5/15 82/16/15 83/12/15
f 79/13/16 83/12/16 84/18/16
f 80/17/17 79/13/17 84/19/17
f 81/15/18 80/14/18 84/20/18
f 82/16/19 81/15/19 84/21/19
f 83/12/20 82/16/20 84/22/20
f 85/1/1 86/2/1 87/3/1
f 86/2/2 85/4/2 90/5/2
f 85/6/3 87/7/3 88/8/3
f 85/9/4 88/8/4 89/10/4
f 85/11/5 89/10/5 90/5/5
f 86/2/6 90/5/6 95/12/6
f 87/3/7 86/2/7 91/13/7
f 88/8/8 87/7/8 92/14/8
f 89/10/9 88/8/9 93/15/9
f 90/5/10 89/10/10 94/16/10
f 86/2/11 95/12/11 91/13/11
f 87/3/12 91/13/12 92/17/12
f 88/8/13 92/14/13 93/15/13
f 89/10/14 93/15/14 94/16/14
f 90/5/15 94/16/15 95/12/15
f 91/13/16 95/12/16 96/18/16
f 92/17/17 91/13/17 96/19/17
f 93/15/18 92/14/18 96/20/18
f 94/16/19 93/15/19 96/21/19
f 95/12/20 94/16/20 96/22/20
f 97/1/1 98/2/1 99/3/1
f 98/2/2 97/4/2 102/5/2
f 97/6/3 99/7/3 100/8/3
f 97/9/4 100/8/4 101/10/4
f 97/11/5 101/10/5 102/5/5
f 98/2/6 102/5/6 107/12/6
f 99/3/7 98/2/7 103/13/7
f 100/8/8 99/7/8 104/14/8
f 101/10/9 100/8/9 105/15/9
f 102/5/10 101/10/10 106/16/10
f 98/2/11 107/12/11 103/13/11
f 99/3/12 103/13/12 104/17/12
f 100/8/13 104/14/13 105/15/13
f 101/10/14 105/15/14 106/16/14
f 102/5/15 106/16/15 107/12/15
f 103/13/16 107/12/16 108/18/16
f 104/17/17 103/13/17 108/19/17
f 105/15/18 104/14/18 108/20/18
f 106/16/19 105/15/19 108/21/19
f 107/12/20 106/16/20 108/22/20
f 109/1/1 110/2/1 111/3/1
f 110/2/2 109/4/2 114/5/2
f 109/6/3 111/7/3 112/8/3
f 109/9/4 112/8/4 113/10/4
f 109/11/5 113/10/5 114/5/5
f 110/2/6 114/5/6 119/12/6
f 111/3/7 110/2/7 115/13/7
f 112/8/8 111/7/8 116/14/8
f 113/10/9 112/8/9 117/15/9
f 114/5/10 113/10/10 118/16/10
f 110/2/11 119/12/11 115/13/11
f 111/3/12 115/13/12 116/17/12
f 112/8/13 116/14/13 117/15/13
f 113/10/14 117/15/14 118/16/14
f 114/5/15 118/16/15 119/12/15
f 115/13/16 119/12/16 120/18/16
f 116/17/17 115/13/17 120/19/17
f 117/15/18 116/14/18 120/20/18
f 118/16/19 117/15/19 120/21/19
f 119/12/20 118/16/20 120/22/20
f 121/1/1 122/2/1 123/3/1
f 122/2/2 121/4/2 126/5/2
f 121/6/3 123/7/3 124/8/3
f 121/9/4 124/8/4 125/10/4
f 121/11/5 125/10/5 126/5/5
f 122/2/6 126/5/6 131/12/6
f 123/3/7 122/2/7 127/13/7
f 124/8/8 123/7/8 128/14/8
f 125/10/9 124/8/9 129/15/9
f 126/5/10 125/10/10 130/16/10
f 122/2/11 131/12/11 127/13/11
f 123/3/12 127/13/12 128/17/12
f 124/8/13 128/14/13 129/15/13
f 125/10/14 129/15/14 130/16/14
f 126/5/15 130/16/15 131/12/15
f 127/13/16 131/12/16 132/18/16
f 128/17/17 127/13/17 132/19/17
f 129/15/18 128/14/18 132/20/18
f 130/16/19 129/15/19 132/21/19
f 131/12/20 130/16/20 132/22/20
f 133/1/1 134/2/1 135/3/1
f 134/2/2 133/4/2 138/5/2
f 133/6/3 135/7/3 136/8/3
f 133/9/4 136/8/4 137/10/4
f 133/11/5 137/10/5 138/5/5
f 134/2/6 138/5/6 143/12/6
f 135/3/7 134/2/7 139/13/7
f 136/8/8 135/7/8 140/14/8
f 137/10/9 136/8/9 141/15/9
f 138/5/10 137/10/10 142/16/10
f 134/2/11 143/12/11 139/13/11
f 135/3/12 139/13/12 140/17/12
f 136/8/13 140/14/13 141/15/13
f 137/10/14 141/15/14 142/16/14
f 138/5/15 142/16/15 143/12/15
f 139/13/16 143/12/16 144/18/16
f 140/17/17 139/13/17 144/19/17
f 141/15/18 140/14/18 144/20/18
f 142/16/19 141/15/19 144/21/19
f 143/12/20 142/16/20 144/22/20
f 145/1/1 146/2/1 147/3/1
f 146/2/2 145/4/2 150/5/2
f 145/6/3 147/7/3 148/8/3
f 145/9/4 148/8/4 149/10/4
f 145/11/5 149/10/5 150/5/5
f 146/2/6 150/5/6 155/12/6
f 147/3/7 146/2/7 151/13/7
f 148/8/8 147/7/8 152/14/8
f 149/10/9 148/8/9 153/15/9
f 150/5/10 149/10/10 154/16/10
f 146/2/11 155/12/11 151/13/11
f 147/3/12 151/13/12 152/17/12
f 148/8/13 152/14/13 153/15/13
f 149/10/14 153/15/14 154/16/14
f 150/5/15 154/16/15 155/12/15
f 151/13/16 155/12/16 156/18/16
f 152/17/17 151/13/17 156/19/17
f 153/15/18 152/14/18 156/20/18
f 154/16/19 153/15/19 156/21/19
f 155/12/20 154/16/20 156/22/20
