# Blender 4.3.2
# www.blender.org
mtllib axe8.mtl
o Cylinder.004
v 0.000000 2.488729 -0.200000
v 0.000000 2.888730 -0.200000
v 0.039018 2.488729 -0.196157
v 0.039018 2.888730 -0.196157
v 0.076537 2.488729 -0.184776
v 0.076537 2.888730 -0.184776
v 0.111114 2.488729 -0.166294
v 0.111114 2.888730 -0.166294
v 0.141421 2.488729 -0.141421
v 0.141421 2.888730 -0.141421
v 0.166294 2.488729 -0.111114
v 0.166294 2.888730 -0.111114
v 0.184776 2.488729 -0.076537
v 0.184776 2.888730 -0.076537
v 0.196157 2.488729 -0.039018
v 0.196157 2.888730 -0.039018
v 0.200000 2.488729 0.000000
v 0.200000 2.888730 0.000000
v 0.196157 2.488729 0.039018
v 0.196157 2.888730 0.039018
v 0.184776 2.488729 0.076537
v 0.184776 2.888730 0.076537
v 0.166294 2.488729 0.111114
v 0.166294 2.888730 0.111114
v 0.141421 2.488729 0.141421
v 0.141421 2.888730 0.141421
v 0.111114 2.488729 0.166294
v 0.111114 2.888730 0.166294
v 0.076537 2.488729 0.184776
v 0.076537 2.888730 0.184776
v 0.039018 2.488729 0.196157
v 0.039018 2.888730 0.196157
v 0.000000 2.488729 0.200000
v 0.000000 2.888730 0.200000
v -0.039018 2.488729 0.196157
v -0.039018 2.888730 0.196157
v -0.076537 2.488729 0.184776
v -0.076537 2.888730 0.184776
v -0.111114 2.488729 0.166294
v -0.111114 2.888730 0.166294
v -0.141421 2.488729 0.141421
v -0.141421 2.888730 0.141421
v -0.166294 2.488729 0.111114
v -0.166294 2.888730 0.111114
v -0.184776 2.488729 0.076537
v -0.184776 2.888730 0.076537
v -0.196157 2.488729 0.039018
v -0.196157 2.888730 0.039018
v -0.200000 2.488729 0.000000
v -0.200000 2.888730 0.000000
v -0.196157 2.488729 -0.039018
v -0.196157 2.888730 -0.039018
v -0.184776 2.488729 -0.076537
v -0.184776 2.888730 -0.076537
v -0.166294 2.488729 -0.111114
v -0.166294 2.888730 -0.111114
v -0.141421 2.488729 -0.141421
v -0.141421 2.888730 -0.141421
v -0.111114 2.488729 -0.166294
v -0.111114 2.888730 -0.166294
v -0.076537 2.488729 -0.184776
v -0.076537 2.888730 -0.184776
v -0.039018 2.488729 -0.196157
v -0.039018 2.888730 -0.196157
v 0.000000 -0.200000 -0.200000
v 0.039018 -0.200000 -0.196157
v 0.076537 -0.200000 -0.184776
v 0.111114 -0.200000 -0.166294
v 0.141421 -0.200000 -0.141421
v 0.166294 -0.200000 -0.111114
v 0.184776 -0.200000 -0.076537
v 0.196157 -0.200000 -0.039018
v 0.200000 -0.200000 0.000000
v 0.196157 -0.200000 0.039018
v 0.184776 -0.200000 0.076537
v 0.166294 -0.200000 0.111114
v 0.141421 -0.200000 0.141421
v 0.111114 -0.200000 0.166294
v 0.076537 -0.200000 0.184776
v 0.039018 -0.200000 0.196157
v 0.000000 -0.200000 0.200000
v -0.039018 -0.200000 0.196157
v -0.076537 -0.200000 0.184776
v -0.111114 -0.200000 0.166294
v -0.141421 -0.200000 0.141421
v -0.166294 -0.200000 0.111114
v -0.184776 -0.200000 0.076537
v -0.196157 -0.200000 0.039018
v -0.200000 -0.200000 0.000000
v -0.196157 -0.200000 -0.039018
v -0.184776 -0.200000 -0.076537
v -0.166294 -0.200000 -0.111114
v -0.141421 -0.200000 -0.141421
v -0.111114 -0.200000 -0.166294
v -0.076537 -0.200000 -0.184776
v -0.039018 -0.200000 -0.196157
v 0.000000 0.200000 0.000000
v 0.000000 0.185550 -0.200000
v 0.000000 0.585551 -0.200000
v 0.039018 0.185550 -0.196157
v 0.039018 0.585551 -0.196157
v 0.076537 0.185550 -0.184776
v 0.076537 0.585551 -0.184776
v 0.111114 0.185550 -0.166294
v 0.111114 0.585551 -0.166294
v 0.141421 0.185550 -0.141421
v 0.141421 0.585551 -0.141421
v 0.166294 0.185550 -0.111114
v 0.166294 0.585551 -0.111114
v 0.184776 0.185550 -0.076537
v 0.184776 0.585551 -0.076537
v 0.196157 0.185550 -0.039018
v 0.196157 0.585551 -0.039018
v 0.200000 0.185550 0.000000
v 0.200000 0.585551 0.000000
v 0.196157 0.185550 0.039018
v 0.196157 0.585551 0.039018
v 0.184776 0.185550 0.076537
v 0.184776 0.585551 0.076537
v 0.166294 0.185550 0.111114
v 0.166294 0.585551 0.111114
v 0.141421 0.185550 0.141421
v 0.141421 0.585551 0.141421
v 0.111114 0.185550 0.166294
v 0.111114 0.585551 0.166294
v 0.076537 0.185550 0.184776
v 0.076537 0.585551 0.184776
v 0.039018 0.185550 0.196157
v 0.039018 0.585551 0.196157
v 0.000000 0.185550 0.200000
v 0.000000 0.585551 0.200000
v -0.039018 0.185550 0.196157
v -0.039018 0.585551 0.196157
v -0.076537 0.185550 0.184776
v -0.076537 0.585551 0.184776
v -0.111114 0.185550 0.166294
v -0.111114 0.585551 0.166294
v -0.141421 0.185550 0.141421
v -0.141421 0.585551 0.141421
v -0.166294 0.185550 0.111114
v -0.166294 0.585551 0.111114
v -0.184776 0.185550 0.076537
v -0.184776 0.585551 0.076537
v -0.196157 0.185550 0.039018
v -0.196157 0.585551 0.039018
v -0.200000 0.185550 0.000000
v -0.200000 0.585551 0.000000
v -0.196157 0.185550 -0.039018
v -0.196157 0.585551 -0.039018
v -0.184776 0.185550 -0.076537
v -0.184776 0.585551 -0.076537
v -0.166294 0.185550 -0.111114
v -0.166294 0.585551 -0.111114
v -0.141421 0.185550 -0.141421
v -0.141421 0.585551 -0.141421
v -0.111114 0.185550 -0.166294
v -0.111114 0.585551 -0.166294
v -0.076537 0.185550 -0.184776
v -0.076537 0.585551 -0.184776
v -0.039018 0.185550 -0.196157
v -0.039018 0.585551 -0.196157
v 0.000000 0.984640 0.200000
v 0.039018 0.984640 0.196157
v 0.076537 0.984640 0.184776
v 0.111114 0.984640 0.166294
v 0.141421 0.984640 0.141421
v 0.166294 0.984640 0.111114
v 0.184776 0.984640 0.076537
v 0.196157 0.984640 0.039018
v 0.200000 0.984640 0.000000
v 0.196157 0.984640 -0.039018
v 0.184776 0.984640 -0.076537
v 0.166294 0.984640 -0.111114
v 0.141421 0.984640 -0.141421
v 0.111114 0.984640 -0.166294
v 0.076537 0.984640 -0.184776
v 0.039018 0.984640 -0.196157
v 0.000000 0.984640 -0.200000
v -0.039018 0.984640 -0.196157
v -0.076537 0.984640 -0.184776
v -0.111114 0.984640 -0.166294
v -0.141421 0.984640 -0.141421
v -0.166294 0.984640 -0.111114
v -0.184776 0.984640 -0.076537
v -0.196157 0.984640 -0.039018
v -0.200000 0.984640 0.000000
v -0.196157 0.984640 0.039018
v -0.184776 0.984640 0.076537
v -0.166294 0.984640 0.111114
v -0.141421 0.984640 0.141421
v -0.111114 0.984640 0.166294
v -0.076537 0.984640 0.184776
v -0.039018 0.984640 0.196157
v 0.000000 0.584640 -0.000000
v 0.000000 0.185550 -0.200000
v 0.000000 0.585551 -0.200000
v 0.039018 0.185550 -0.196157
v 0.039018 0.585551 -0.196157
v 0.076537 0.185550 -0.184776
v 0.076537 0.585551 -0.184776
v 0.111114 0.185550 -0.166294
v 0.111114 0.585551 -0.166294
v 0.141421 0.185550 -0.141421
v 0.141421 0.585551 -0.141421
v 0.166294 0.185550 -0.111114
v 0.166294 0.585551 -0.111114
v 0.184776 0.185550 -0.076537
v 0.184776 0.585551 -0.076537
v 0.196157 0.185550 -0.039018
v 0.196157 0.585551 -0.039018
v 0.200000 0.185550 0.000000
v 0.200000 0.585551 0.000000
v 0.196157 0.185550 0.039018
v 0.196157 0.585551 0.039018
v 0.184776 0.185550 0.076537
v 0.184776 0.585551 0.076537
v 0.166294 0.185550 0.111114
v 0.166294 0.585551 0.111114
v 0.141421 0.185550 0.141421
v 0.141421 0.585551 0.141421
v 0.111114 0.185550 0.166294
v 0.111114 0.585551 0.166294
v 0.076537 0.185550 0.184776
v 0.076537 0.585551 0.184776
v 0.039018 0.185550 0.196157
v 0.039018 0.585551 0.196157
v 0.000000 0.185550 0.200000
v 0.000000 0.585551 0.200000
v -0.039018 0.185550 0.196157
v -0.039018 0.585551 0.196157
v -0.076537 0.185550 0.184776
v -0.076537 0.585551 0.184776
v -0.111114 0.185550 0.166294
v -0.111114 0.585551 0.166294
v -0.141421 0.185550 0.141421
v -0.141421 0.585551 0.141421
v -0.166294 0.185550 0.111114
v -0.166294 0.585551 0.111114
v -0.184776 0.185550 0.076537
v -0.184776 0.585551 0.076537
v -0.196157 0.185550 0.039018
v -0.196157 0.585551 0.039018
v -0.200000 0.185550 0.000000
v -0.200000 0.585551 0.000000
v -0.196157 0.185550 -0.039018
v -0.196157 0.585551 -0.039018
v -0.184776 0.185550 -0.076537
v -0.184776 0.585551 -0.076537
v -0.166294 0.185550 -0.111114
v -0.166294 0.585551 -0.111114
v -0.141421 0.185550 -0.141421
v -0.141421 0.585551 -0.141421
v -0.111114 0.185550 -0.166294
v -0.111114 0.585551 -0.166294
v -0.076537 0.185550 -0.184776
v -0.076537 0.585551 -0.184776
v -0.039018 0.185550 -0.196157
v -0.039018 0.585551 -0.196157
v 0.000000 1.354430 0.200000
v 0.039018 1.354430 0.196157
v 0.076537 1.354430 0.184776
v 0.111114 1.354430 0.166294
v 0.141421 1.354430 0.141421
v 0.166294 1.354430 0.111114
v 0.184776 1.354430 0.076537
v 0.196157 1.354430 0.039018
v 0.200000 1.354430 0.000000
v 0.196157 1.354430 -0.039018
v 0.184776 1.354430 -0.076537
v 0.166294 1.354430 -0.111114
v 0.141421 1.354430 -0.141421
v 0.111114 1.354430 -0.166294
v 0.076537 1.354430 -0.184776
v 0.039018 1.354430 -0.196157
v 0.000000 1.354430 -0.200000
v -0.039018 1.354430 -0.196157
v -0.076537 1.354430 -0.184776
v -0.111114 1.354430 -0.166294
v -0.141421 1.354430 -0.141421
v -0.166294 1.354430 -0.111114
v -0.184776 1.354430 -0.076537
v -0.196157 1.354430 -0.039018
v -0.200000 1.354430 0.000000
v -0.196157 1.354430 0.039018
v -0.184776 1.354430 0.076537
v -0.166294 1.354430 0.111114
v -0.141421 1.354430 0.141421
v -0.111114 1.354430 0.166294
v -0.076537 1.354430 0.184776
v -0.039018 1.354430 0.196157
v 0.000000 0.954430 -0.000000
v 0.000000 1.730698 0.200000
v 0.039018 1.730698 0.196157
v 0.076537 1.730698 0.184776
v 0.111114 1.730698 0.166294
v 0.141421 1.730698 0.141421
v 0.166294 1.730698 0.111114
v 0.184776 1.730698 0.076537
v 0.196157 1.730698 0.039018
v 0.200000 1.730698 0.000000
v 0.196157 1.730698 -0.039018
v 0.184776 1.730698 -0.076537
v 0.166294 1.730698 -0.111114
v 0.141421 1.730698 -0.141421
v 0.111114 1.730698 -0.166294
v 0.076537 1.730698 -0.184776
v 0.039018 1.730698 -0.196157
v 0.000000 1.730698 -0.200000
v -0.039018 1.730698 -0.196157
v -0.076537 1.730698 -0.184776
v -0.111114 1.730698 -0.166294
v -0.141421 1.730698 -0.141421
v -0.166294 1.730698 -0.111114
v -0.184776 1.730698 -0.076537
v -0.196157 1.730698 -0.039018
v -0.200000 1.730698 0.000000
v -0.196157 1.730698 0.039018
v -0.184776 1.730698 0.076537
v -0.166294 1.730698 0.111114
v -0.141421 1.730698 0.141421
v -0.111114 1.730698 0.166294
v -0.076537 1.730698 0.184776
v -0.039018 1.730698 0.196157
v 0.000000 1.330698 -0.000000
v 0.000000 1.712343 -0.200000
v 0.000000 2.112343 -0.200000
v 0.039018 1.712343 -0.196157
v 0.039018 2.112343 -0.196157
v 0.076537 1.712343 -0.184776
v 0.076537 2.112343 -0.184776
v 0.111114 1.712343 -0.166294
v 0.111114 2.112343 -0.166294
v 0.141421 1.712343 -0.141421
v 0.141421 2.112343 -0.141421
v 0.166294 1.712343 -0.111114
v 0.166294 2.112343 -0.111114
v 0.184776 1.712343 -0.076537
v 0.184776 2.112343 -0.076537
v 0.196157 1.712343 -0.039018
v 0.196157 2.112343 -0.039018
v 0.200000 1.712343 0.000000
v 0.200000 2.112343 0.000000
v 0.196157 1.712343 0.039018
v 0.196157 2.112343 0.039018
v 0.184776 1.712343 0.076537
v 0.184776 2.112343 0.076537
v 0.166294 1.712343 0.111114
v 0.166294 2.112343 0.111114
v 0.141421 1.712343 0.141421
v 0.141421 2.112343 0.141421
v 0.111114 1.712343 0.166294
v 0.111114 2.112343 0.166294
v 0.076537 1.712343 0.184776
v 0.076537 2.112343 0.184776
v 0.039018 1.712343 0.196157
v 0.039018 2.112343 0.196157
v 0.000000 1.712343 0.200000
v 0.000000 2.112343 0.200000
v -0.039018 1.712343 0.196157
v -0.039018 2.112343 0.196157
v -0.076537 1.712343 0.184776
v -0.076537 2.112343 0.184776
v -0.111114 1.712343 0.166294
v -0.111114 2.112343 0.166294
v -0.141421 1.712343 0.141421
v -0.141421 2.112343 0.141421
v -0.166294 1.712343 0.111114
v -0.166294 2.112343 0.111114
v -0.184776 1.712343 0.076537
v -0.184776 2.112343 0.076537
v -0.196157 1.712343 0.039018
v -0.196157 2.112343 0.039018
v -0.200000 1.712343 0.000000
v -0.200000 2.112343 0.000000
v -0.196157 1.712343 -0.039018
v -0.196157 2.112343 -0.039018
v -0.184776 1.712343 -0.076537
v -0.184776 2.112343 -0.076537
v -0.166294 1.712343 -0.111114
v -0.166294 2.112343 -0.111114
v -0.141421 1.712343 -0.141421
v -0.141421 2.112343 -0.141421
v -0.111114 1.712343 -0.166294
v -0.111114 2.112343 -0.166294
v -0.076537 1.712343 -0.184776
v -0.076537 2.112343 -0.184776
v -0.039018 1.712343 -0.196157
v -0.039018 2.112343 -0.196157
v 0.000000 2.121430 -0.200000
v 0.000000 2.521430 -0.200000
v 0.039018 2.121430 -0.196157
v 0.039018 2.521430 -0.196157
v 0.076537 2.121430 -0.184776
v 0.076537 2.521430 -0.184776
v 0.111114 2.121430 -0.166294
v 0.111114 2.521430 -0.166294
v 0.141421 2.121430 -0.141421
v 0.141421 2.521430 -0.141421
v 0.166294 2.121430 -0.111114
v 0.166294 2.521430 -0.111114
v 0.184776 2.121430 -0.076537
v 0.184776 2.521430 -0.076537
v 0.196157 2.121430 -0.039018
v 0.196157 2.521430 -0.039018
v 0.200000 2.121430 0.000000
v 0.200000 2.521430 0.000000
v 0.196157 2.121430 0.039018
v 0.196157 2.521430 0.039018
v 0.184776 2.121430 0.076537
v 0.184776 2.521430 0.076537
v 0.166294 2.121430 0.111114
v 0.166294 2.521430 0.111114
v 0.141421 2.121430 0.141421
v 0.141421 2.521430 0.141421
v 0.111114 2.121430 0.166294
v 0.111114 2.521430 0.166294
v 0.076537 2.121430 0.184776
v 0.076537 2.521430 0.184776
v 0.039018 2.121430 0.196157
v 0.039018 2.521430 0.196157
v 0.000000 2.121430 0.200000
v 0.000000 2.521430 0.200000
v -0.039018 2.121430 0.196157
v -0.039018 2.521430 0.196157
v -0.076537 2.121430 0.184776
v -0.076537 2.521430 0.184776
v -0.111114 2.121430 0.166294
v -0.111114 2.521430 0.166294
v -0.141421 2.121430 0.141421
v -0.141421 2.521430 0.141421
v -0.166294 2.121430 0.111114
v -0.166294 2.521430 0.111114
v -0.184776 2.121430 0.076537
v -0.184776 2.521430 0.076537
v -0.196157 2.121430 0.039018
v -0.196157 2.521430 0.039018
v -0.200000 2.121430 0.000000
v -0.200000 2.521430 0.000000
v -0.196157 2.121430 -0.039018
v -0.196157 2.521430 -0.039018
v -0.184776 2.121430 -0.076537
v -0.184776 2.521430 -0.076537
v -0.166294 2.121430 -0.111114
v -0.166294 2.521430 -0.111114
v -0.141421 2.121430 -0.141421
v -0.141421 2.521430 -0.141421
v -0.111114 2.121430 -0.166294
v -0.111114 2.521430 -0.166294
v -0.076537 2.121430 -0.184776
v -0.076537 2.521430 -0.184776
v -0.039018 2.121430 -0.196157
v -0.039018 2.521430 -0.196157
v 0.000000 2.138113 -0.148674
v 0.039018 2.141956 -0.148674
v 0.076537 2.153337 -0.148674
v 0.111114 2.171819 -0.148674
v 0.141421 2.196692 -0.148674
v 0.166294 2.227000 -0.148674
v 0.184776 2.261577 -0.148674
v 0.196157 2.299095 -0.148674
v 0.200000 2.338114 -0.148674
v 0.196157 2.377131 -0.148674
v 0.184776 2.414650 -0.148674
v 0.166294 2.449228 -0.148674
v 0.141421 2.479535 -0.148674
v 0.111114 2.504407 -0.148674
v 0.076537 2.522889 -0.148674
v 0.039018 2.534271 -0.148674
v 0.000000 2.538113 -0.148674
v -0.039018 2.534271 -0.148674
v -0.076537 2.522889 -0.148674
v -0.111114 2.504407 -0.148674
v -0.141421 2.479535 -0.148674
v -0.166294 2.449228 -0.148674
v -0.184776 2.414650 -0.148674
v -0.196157 2.377131 -0.148674
v -0.200000 2.338114 -0.148674
v -0.196157 2.299095 -0.148674
v -0.184776 2.261577 -0.148674
v -0.166294 2.227000 -0.148674
v -0.141421 2.196692 -0.148674
v -0.111114 2.171819 -0.148674
v -0.076537 2.153337 -0.148674
v -0.039018 2.141956 -0.148674
v 0.000000 2.338114 -0.548674
v 0.000000 2.138113 -0.503720
v 0.039018 2.141956 -0.503720
v 0.076537 2.153337 -0.503720
v 0.111114 2.171819 -0.503720
v 0.141421 2.196692 -0.503720
v 0.166294 2.227000 -0.503720
v 0.184776 2.261577 -0.503720
v 0.196157 2.299095 -0.503720
v 0.200000 2.338114 -0.503720
v 0.196157 2.377131 -0.503720
v 0.184776 2.414650 -0.503720
v 0.166294 2.449228 -0.503720
v 0.141421 2.479535 -0.503720
v 0.111114 2.504407 -0.503720
v 0.076537 2.522889 -0.503720
v 0.039018 2.534271 -0.503720
v 0.000000 2.538113 -0.503720
v -0.039018 2.534271 -0.503720
v -0.076537 2.522889 -0.503720
v -0.111114 2.504407 -0.503720
v -0.141421 2.479535 -0.503720
v -0.166294 2.449228 -0.503720
v -0.184776 2.414650 -0.503720
v -0.196157 2.377131 -0.503720
v -0.200000 2.338114 -0.503720
v -0.196157 2.299095 -0.503720
v -0.184776 2.261577 -0.503720
v -0.166294 2.227000 -0.503720
v -0.141421 2.196692 -0.503720
v -0.111114 2.171819 -0.503720
v -0.076537 2.153337 -0.503720
v -0.039018 2.141956 -0.503720
v 0.000000 2.338114 -0.903720
vn 0.0980 -0.0000 -0.9952
vn 0.2903 -0.0000 -0.9569
vn 0.4714 -0.0000 -0.8819
vn 0.6344 -0.0000 -0.7730
vn 0.7730 -0.0000 -0.6344
vn 0.8819 -0.0000 -0.4714
vn 0.9569 -0.0000 -0.2903
vn 0.9952 -0.0000 -0.0980
vn 0.9952 -0.0000 0.0980
vn 0.9569 -0.0000 0.2903
vn 0.8819 -0.0000 0.4714
vn 0.7730 -0.0000 0.6344
vn 0.6344 -0.0000 0.7730
vn 0.4714 -0.0000 0.8819
vn 0.2903 -0.0000 0.9569
vn 0.0980 -0.0000 0.9952
vn -0.0980 -0.0000 0.9952
vn -0.2903 -0.0000 0.9569
vn -0.4714 -0.0000 0.8819
vn -0.6344 -0.0000 0.7730
vn -0.7730 -0.0000 0.6344
vn -0.8819 -0.0000 0.4714
vn -0.9569 -0.0000 0.2903
vn -0.9952 -0.0000 0.0980
vn -0.9952 -0.0000 -0.0980
vn -0.9569 -0.0000 -0.2903
vn -0.8819 -0.0000 -0.4714
vn -0.7730 -0.0000 -0.6344
vn -0.6344 -0.0000 -0.7730
vn -0.4714 -0.0000 -0.8819
vn -0.0000 1.0000 -0.0000
vn -0.2903 -0.0000 -0.9569
vn -0.0980 -0.0000 -0.9952
vn -0.0000 -1.0000 -0.0000
vn 0.0878 0.4455 -0.8910
vn 0.2599 0.4455 -0.8567
vn 0.4220 0.4455 -0.7896
vn 0.5680 0.4455 -0.6921
vn 0.6921 0.4455 -0.5680
vn 0.7896 0.4455 -0.4220
vn 0.8567 0.4455 -0.2599
vn 0.8910 0.4455 -0.0878
vn 0.8910 0.4455 0.0878
vn 0.8567 0.4455 0.2599
vn 0.7896 0.4455 0.4220
vn 0.6921 0.4455 0.5680
vn 0.5680 0.4455 0.6921
vn 0.4220 0.4455 0.7896
vn 0.2599 0.4455 0.8567
vn 0.0878 0.4455 0.8910
vn -0.0878 0.4455 0.8910
vn -0.2599 0.4455 0.8567
vn -0.4220 0.4455 0.7896
vn -0.5680 0.4455 0.6921
vn -0.6921 0.4455 0.5680
vn -0.7896 0.4455 0.4220
vn -0.8567 0.4455 0.2599
vn -0.8910 0.4455 0.0878
vn -0.8910 0.4455 -0.0878
vn -0.8567 0.4455 -0.2599
vn -0.7896 0.4455 -0.4220
vn -0.6921 0.4455 -0.5680
vn -0.5680 0.4455 -0.6921
vn -0.4220 0.4455 -0.7896
vn -0.2599 0.4455 -0.8567
vn -0.0878 0.4455 -0.8910
vn 0.0878 -0.4455 0.8910
vn 0.2599 -0.4455 0.8567
vn 0.4220 -0.4455 0.7896
vn 0.5680 -0.4455 0.6921
vn 0.6921 -0.4455 0.5680
vn 0.7896 -0.4455 0.4220
vn 0.8567 -0.4455 0.2599
vn 0.8910 -0.4455 0.0878
vn 0.8910 -0.4455 -0.0878
vn 0.8567 -0.4455 -0.2599
vn 0.7896 -0.4455 -0.4220
vn 0.6921 -0.4455 -0.5680
vn 0.5680 -0.4455 -0.6921
vn 0.4220 -0.4455 -0.7896
vn 0.2599 -0.4455 -0.8567
vn 0.0878 -0.4455 -0.8910
vn -0.0878 -0.4455 -0.8910
vn -0.2599 -0.4455 -0.8567
vn -0.4220 -0.4455 -0.7896
vn -0.5680 -0.4455 -0.6921
vn -0.6921 -0.4455 -0.5680
vn -0.7896 -0.4455 -0.4220
vn -0.8567 -0.4455 -0.2599
vn -0.8910 -0.4455 -0.0878
vn -0.8910 -0.4455 0.0878
vn -0.8567 -0.4455 0.2599
vn -0.7896 -0.4455 0.4220
vn -0.6921 -0.4455 0.5680
vn -0.5680 -0.4455 0.6921
vn -0.4220 -0.4455 0.7896
vn -0.2599 -0.4455 0.8567
vn -0.0878 -0.4455 0.8910
vn 0.0878 -0.8910 -0.4455
vn 0.2599 -0.8567 -0.4455
vn 0.4220 -0.7896 -0.4455
vn 0.5680 -0.6921 -0.4455
vn 0.6921 -0.5680 -0.4455
vn 0.7896 -0.4220 -0.4455
vn 0.8567 -0.2599 -0.4455
vn 0.8910 -0.0878 -0.4455
vn 0.8910 0.0878 -0.4455
vn 0.8567 0.2599 -0.4455
vn 0.7896 0.4220 -0.4455
vn 0.6921 0.5680 -0.4455
vn 0.5680 0.6921 -0.4455
vn 0.4220 0.7896 -0.4455
vn 0.2599 0.8567 -0.4455
vn 0.0878 0.8910 -0.4455
vn -0.0878 0.8910 -0.4455
vn -0.2599 0.8567 -0.4455
vn -0.4220 0.7896 -0.4455
vn -0.5680 0.6921 -0.4455
vn -0.6921 0.5680 -0.4455
vn -0.7896 0.4220 -0.4455
vn -0.8567 0.2599 -0.4455
vn -0.8910 0.0878 -0.4455
vn -0.8910 -0.0878 -0.4455
vn -0.8567 -0.2599 -0.4455
vn -0.7896 -0.4220 -0.4455
vn -0.6921 -0.5680 -0.4455
vn -0.5680 -0.6921 -0.4455
vn -0.4220 -0.7896 -0.4455
vn -0.0000 -0.0000 1.0000
vn -0.2599 -0.8567 -0.4455
vn -0.0878 -0.8910 -0.4455
vt 1.000000 0.500000
vt 1.000000 1.000000
vt 0.968750 1.000000
vt 0.968750 0.500000
vt 0.937500 1.000000
vt 0.937500 0.500000
vt 0.906250 1.000000
vt 0.906250 0.500000
vt 0.875000 1.000000
vt 0.875000 0.500000
vt 0.843750 1.000000
vt 0.843750 0.500000
vt 0.812500 1.000000
vt 0.812500 0.500000
vt 0.781250 1.000000
vt 0.781250 0.500000
vt 0.750000 1.000000
vt 0.750000 0.500000
vt 0.718750 1.000000
vt 0.718750 0.500000
vt 0.687500 1.000000
vt 0.687500 0.500000
vt 0.656250 1.000000
vt 0.656250 0.500000
vt 0.625000 1.000000
vt 0.625000 0.500000
vt 0.593750 1.000000
vt 0.593750 0.500000
vt 0.562500 1.000000
vt 0.562500 0.500000
vt 0.531250 1.000000
vt 0.531250 0.500000
vt 0.500000 1.000000
vt 0.500000 0.500000
vt 0.468750 1.000000
vt 0.468750 0.500000
vt 0.437500 1.000000
vt 0.437500 0.500000
vt 0.406250 1.000000
vt 0.406250 0.500000
vt 0.375000 1.000000
vt 0.375000 0.500000
vt 0.343750 1.000000
vt 0.343750 0.500000
vt 0.312500 1.000000
vt 0.312500 0.500000
vt 0.281250 1.000000
vt 0.281250 0.500000
vt 0.250000 1.000000
vt 0.250000 0.500000
vt 0.218750 1.000000
vt 0.218750 0.500000
vt 0.187500 1.000000
vt 0.187500 0.500000
vt 0.156250 1.000000
vt 0.156250 0.500000
vt 0.125000 1.000000
vt 0.125000 0.500000
vt 0.093750 1.000000
vt 0.093750 0.500000
vt 0.062500 1.000000
vt 0.062500 0.500000
vt 0.296822 0.485388
vt 0.250000 0.490000
vt 0.203178 0.485388
vt 0.158156 0.471731
vt 0.116663 0.449553
vt 0.080294 0.419706
vt 0.050447 0.383337
vt 0.028269 0.341844
vt 0.014612 0.296822
vt 0.010000 0.250000
vt 0.014612 0.203178
vt 0.028269 0.158156
vt 0.050447 0.116663
vt 0.080294 0.080294
vt 0.116663 0.050447
vt 0.158156 0.028269
vt 0.203178 0.014612
vt 0.250000 0.010000
vt 0.296822 0.014612
vt 0.341844 0.028269
vt 0.383337 0.050447
vt 0.419706 0.080294
vt 0.449553 0.116663
vt 0.471731 0.158156
vt 0.485388 0.203178
vt 0.490000 0.250000
vt 0.485388 0.296822
vt 0.471731 0.341844
vt 0.449553 0.383337
vt 0.419706 0.419706
vt 0.383337 0.449553
vt 0.341844 0.471731
vt 0.031250 1.000000
vt 0.031250 0.500000
vt 0.000000 1.000000
vt 0.000000 0.500000
vt 0.750000 0.490000
vt 0.796822 0.485388
vt 0.841844 0.471731
vt 0.883337 0.449553
vt 0.919706 0.419706
vt 0.949553 0.383337
vt 0.971731 0.341844
vt 0.985388 0.296822
vt 0.990000 0.250000
vt 0.985388 0.203178
vt 0.971731 0.158156
vt 0.949553 0.116663
vt 0.919706 0.080294
vt 0.883337 0.050447
vt 0.841844 0.028269
vt 0.796822 0.014612
vt 0.750000 0.010000
vt 0.703178 0.014612
vt 0.658156 0.028269
vt 0.616663 0.050447
vt 0.580294 0.080294
vt 0.550447 0.116663
vt 0.528269 0.158156
vt 0.514612 0.203178
vt 0.510000 0.250000
vt 0.514612 0.296822
vt 0.528269 0.341844
vt 0.550447 0.383337
vt 0.580294 0.419706
vt 0.616663 0.449553
vt 0.658156 0.471731
vt 0.703178 0.485388
vt 0.250000 0.250000
s 0
f 1/1/1 2/2/1 4/3/1 3/4/1
f 3/4/2 4/3/2 6/5/2 5/6/2
f 5/6/3 6/5/3 8/7/3 7/8/3
f 7/8/4 8/7/4 10/9/4 9/10/4
f 9/10/5 10/9/5 12/11/5 11/12/5
f 11/12/6 12/11/6 14/13/6 13/14/6
f 13/14/7 14/13/7 16/15/7 15/16/7
f 15/16/8 16/15/8 18/17/8 17/18/8
f 17/18/9 18/17/9 20/19/9 19/20/9
f 19/20/10 20/19/10 22/21/10 21/22/10
f 21/22/11 22/21/11 24/23/11 23/24/11
f 23/24/12 24/23/12 26/25/12 25/26/12
f 25/26/13 26/25/13 28/27/13 27/28/13
f 27/28/14 28/27/14 30/29/14 29/30/14
f 29/30/15 30/29/15 32/31/15 31/32/15
f 31/32/16 32/31/16 34/33/16 33/34/16
f 33/34/17 34/33/17 36/35/17 35/36/17
f 35/36/18 36/35/18 38/37/18 37/38/18
f 37/38/19 38/37/19 40/39/19 39/40/19
f 39/40/20 40/39/20 42/41/20 41/42/20
f 41/42/21 42/41/21 44/43/21 43/44/21
f 43/44/22 44/43/22 46/45/22 45/46/22
f 45/46/23 46/45/23 48/47/23 47/48/23
f 47/48/24 48/47/24 50/49/24 49/50/24
f 49/50/25 50/49/25 52/51/25 51/52/25
f 51/52/26 52/51/26 54/53/26 53/54/26
f 53/54/27 54/53/27 56/55/27 55/56/27
f 55/56/28 56/55/28 58/57/28 57/58/28
f 57/58/29 58/57/29 60/59/29 59/60/29
f 59/60/30 60/59/30 62/61/30 61/62/30
f 4/63/31 2/64/31 64/65/31 62/66/31 60/67/31 58/68/31 56/69/31 54/70/31 52/71/31 50/72/31 48/73/31 46/74/31 44/75/31 42/76/31 40/77/31 38/78/31 36/79/31 34/80/31 32/81/31 30/82/31 28/83/31 26/84/31 24/85/31 22/86/31 20/87/31 18/88/31 16/89/31 14/90/31 12/91/31 10/92/31 8/93/31 6/94/31
f 61/62/32 62/61/32 64/95/32 63/96/32
f 63/96/33 64/95/33 2/97/33 1/98/33
f 1/99/34 3/100/34 5/101/34 7/102/34 9/103/34 11/104/34 13/105/34 15/106/34 17/107/34 19/108/34 21/109/34 23/110/34 25/111/34 27/112/34 29/113/34 31/114/34 33/115/34 35/116/34 37/117/34 39/118/34 41/119/34 43/120/34 45/121/34 47/122/34 49/123/34 51/124/34 53/125/34 55/126/34 57/127/34 59/128/34 61/129/34 63/130/34
f 65/64/35 97/131/35 66/63/35
f 66/63/36 97/131/36 67/94/36
f 67/94/37 97/131/37 68/93/37
f 68/93/38 97/131/38 69/92/38
f 69/92/39 97/131/39 70/91/39
f 70/91/40 97/131/40 71/90/40
f 71/90/41 97/131/41 72/89/41
f 72/89/42 97/131/42 73/88/42
f 73/88/43 97/131/43 74/87/43
f 74/87/44 97/131/44 75/86/44
f 75/86/45 97/131/45 76/85/45
f 76/85/46 97/131/46 77/84/46
f 77/84/47 97/131/47 78/83/47
f 78/83/48 97/131/48 79/82/48
f 79/82/49 97/131/49 80/81/49
f 80/81/50 97/131/50 81/80/50
f 81/80/51 97/131/51 82/79/51
f 82/79/52 97/131/52 83/78/52
f 83/78/53 97/131/53 84/77/53
f 84/77/54 97/131/54 85/76/54
f 85/76/55 97/131/55 86/75/55
f 86/75/56 97/131/56 87/74/56
f 87/74/57 97/131/57 88/73/57
f 88/73/58 97/131/58 89/72/58
f 89/72/59 97/131/59 90/71/59
f 90/71/60 97/131/60 91/70/60
f 91/70/61 97/131/61 92/69/61
f 92/69/62 97/131/62 93/68/62
f 93/68/63 97/131/63 94/67/63
f 94/67/64 97/131/64 95/66/64
f 65/99/34 66/100/34 67/101/34 68/102/34 69/103/34 70/104/34 71/105/34 72/106/34 73/107/34 74/108/34 75/109/34 76/110/34 77/111/34 78/112/34 79/113/34 80/114/34 81/115/34 82/116/34 83/117/34 84/118/34 85/119/34 86/120/34 87/121/34 88/122/34 89/123/34 90/124/34 91/125/34 92/126/34 93/127/34 94/128/34 95/129/34 96/130/34
f 95/66/65 97/131/65 96/65/65
f 96/65/66 97/131/66 65/64/66
f 98/1/1 99/2/1 101/3/1 100/4/1
f 100/4/2 101/3/2 103/5/2 102/6/2
f 102/6/3 103/5/3 105/7/3 104/8/3
f 104/8/4 105/7/4 107/9/4 106/10/4
f 106/10/5 107/9/5 109/11/5 108/12/5
f 108/12/6 109/11/6 111/13/6 110/14/6
f 110/14/7 111/13/7 113/15/7 112/16/7
f 112/16/8 113/15/8 115/17/8 114/18/8
f 114/18/9 115/17/9 117/19/9 116/20/9
f 116/20/10 117/19/10 119/21/10 118/22/10
f 118/22/11 119/21/11 121/23/11 120/24/11
f 120/24/12 121/23/12 123/25/12 122/26/12
f 122/26/13 123/25/13 125/27/13 124/28/13
f 124/28/14 125/27/14 127/29/14 126/30/14
f 126/30/15 127/29/15 129/31/15 128/32/15
f 128/32/16 129/31/16 131/33/16 130/34/16
f 130/34/17 131/33/17 133/35/17 132/36/17
f 132/36/18 133/35/18 135/37/18 134/38/18
f 134/38/19 135/37/19 137/39/19 136/40/19
f 136/40/20 137/39/20 139/41/20 138/42/20
f 138/42/21 139/41/21 141/43/21 140/44/21
f 140/44/22 141/43/22 143/45/22 142/46/22
f 142/46/23 143/45/23 145/47/23 144/48/23
f 144/48/24 145/47/24 147/49/24 146/50/24
f 146/50/25 147/49/25 149/51/25 148/52/25
f 148/52/26 149/51/26 151/53/26 150/54/26
f 150/54/27 151/53/27 153/55/27 152/56/27
f 152/56/28 153/55/28 155/57/28 154/58/28
f 154/58/29 155/57/29 157/59/29 156/60/29
f 156/60/30 157/59/30 159/61/30 158/62/30
f 101/63/31 99/64/31 161/65/31 159/66/31 157/67/31 155/68/31 153/69/31 151/70/31 149/71/31 147/72/31 145/73/31 143/74/31 141/75/31 139/76/31 137/77/31 135/78/31 133/79/31 131/80/31 129/81/31 127/82/31 125/83/31 123/84/31 121/85/31 119/86/31 117/87/31 115/88/31 113/89/31 111/90/31 109/91/31 107/92/31 105/93/31 103/94/31
f 158/62/32 159/61/32 161/95/32 160/96/32
f 160/96/33 161/95/33 99/97/33 98/98/33
f 98/99/34 100/100/34 102/101/34 104/102/34 106/103/34 108/104/34 110/105/34 112/106/34 114/107/34 116/108/34 118/109/34 120/110/34 122/111/34 124/112/34 126/113/34 128/114/34 130/115/34 132/116/34 134/117/34 136/118/34 138/119/34 140/120/34 142/121/34 144/122/34 146/123/34 148/124/34 150/125/34 152/126/34 154/127/34 156/128/34 158/129/34 160/130/34
f 162/64/67 194/131/67 163/63/67
f 163/63/68 194/131/68 164/94/68
f 164/94/69 194/131/69 165/93/69
f 165/93/70 194/131/70 166/92/70
f 166/92/71 194/131/71 167/91/71
f 167/91/72 194/131/72 168/90/72
f 168/90/73 194/131/73 169/89/73
f 169/89/74 194/131/74 170/88/74
f 170/88/75 194/131/75 171/87/75
f 171/87/76 194/131/76 172/86/76
f 172/86/77 194/131/77 173/85/77
f 173/85/78 194/131/78 174/84/78
f 174/84/79 194/131/79 175/83/79
f 175/83/80 194/131/80 176/82/80
f 176/82/81 194/131/81 177/81/81
f 177/81/82 194/131/82 178/80/82
f 178/80/83 194/131/83 179/79/83
f 179/79/84 194/131/84 180/78/84
f 180/78/85 194/131/85 181/77/85
f 181/77/86 194/131/86 182/76/86
f 182/76/87 194/131/87 183/75/87
f 183/75/88 194/131/88 184/74/88
f 184/74/89 194/131/89 185/73/89
f 185/73/90 194/131/90 186/72/90
f 186/72/91 194/131/91 187/71/91
f 187/71/92 194/131/92 188/70/92
f 188/70/93 194/131/93 189/69/93
f 189/69/94 194/131/94 190/68/94
f 190/68/95 194/131/95 191/67/95
f 191/67/96 194/131/96 192/66/96
f 162/99/31 163/100/31 164/101/31 165/102/31 166/103/31 167/104/31 168/105/31 169/106/31 170/107/31 171/108/31 172/109/31 173/110/31 174/111/31 175/112/31 176/113/31 177/114/31 178/115/31 179/116/31 180/117/31 181/118/31 182/119/31 183/120/31 184/121/31 185/122/31 186/123/31 187/124/31 188/125/31 189/126/31 190/127/31 191/128/31 192/129/31 193/130/31
f 192/66/97 194/131/97 193/65/97
f 193/65/98 194/131/98 162/64/98
f 195/1/1 196/2/1 198/3/1 197/4/1
f 197/4/2 198/3/2 200/5/2 199/6/2
f 199/6/3 200/5/3 202/7/3 201/8/3
f 201/8/4 202/7/4 204/9/4 203/10/4
f 203/10/5 204/9/5 206/11/5 205/12/5
f 205/12/6 206/11/6 208/13/6 207/14/6
f 207/14/7 208/13/7 210/15/7 209/16/7
f 209/16/8 210/15/8 212/17/8 211/18/8
f 211/18/9 212/17/9 214/19/9 213/20/9
f 213/20/10 214/19/10 216/21/10 215/22/10
f 215/22/11 216/21/11 218/23/11 217/24/11
f 217/24/12 218/23/12 220/25/12 219/26/12
f 219/26/13 220/25/13 222/27/13 221/28/13
f 221/28/14 222/27/14 224/29/14 223/30/14
f 223/30/15 224/29/15 226/31/15 225/32/15
f 225/32/16 226/31/16 228/33/16 227/34/16
f 227/34/17 228/33/17 230/35/17 229/36/17
f 229/36/18 230/35/18 232/37/18 231/38/18
f 231/38/19 232/37/19 234/39/19 233/40/19
f 233/40/20 234/39/20 236/41/20 235/42/20
f 235/42/21 236/41/21 238/43/21 237/44/21
f 237/44/22 238/43/22 240/45/22 239/46/22
f 239/46/23 240/45/23 242/47/23 241/48/23
f 241/48/24 242/47/24 244/49/24 243/50/24
f 243/50/25 244/49/25 246/51/25 245/52/25
f 245/52/26 246/51/26 248/53/26 247/54/26
f 247/54/27 248/53/27 250/55/27 249/56/27
f 249/56/28 250/55/28 252/57/28 251/58/28
f 251/58/29 252/57/29 254/59/29 253/60/29
f 253/60/30 254/59/30 256/61/30 255/62/30
f 198/63/31 196/64/31 258/65/31 256/66/31 254/67/31 252/68/31 250/69/31 248/70/31 246/71/31 244/72/31 242/73/31 240/74/31 238/75/31 236/76/31 234/77/31 232/78/31 230/79/31 228/80/31 226/81/31 224/82/31 222/83/31 220/84/31 218/85/31 216/86/31 214/87/31 212/88/31 210/89/31 208/90/31 206/91/31 204/92/31 202/93/31 200/94/31
f 255/62/32 256/61/32 258/95/32 257/96/32
f 257/96/33 258/95/33 196/97/33 195/98/33
f 195/99/34 197/100/34 199/101/34 201/102/34 203/103/34 205/104/34 207/105/34 209/106/34 211/107/34 213/108/34 215/109/34 217/110/34 219/111/34 221/112/34 223/113/34 225/114/34 227/115/34 229/116/34 231/117/34 233/118/34 235/119/34 237/120/34 239/121/34 241/122/34 243/123/34 245/124/34 247/125/34 249/126/34 251/127/34 253/128/34 255/129/34 257/130/34
f 259/64/67 291/131/67 260/63/67
f 260/63/68 291/131/68 261/94/68
f 261/94/69 291/131/69 262/93/69
f 262/93/70 291/131/70 263/92/70
f 263/92/71 291/131/71 264/91/71
f 264/91/72 291/131/72 265/90/72
f 265/90/73 291/131/73 266/89/73
f 266/89/74 291/131/74 267/88/74
f 267/88/75 291/131/75 268/87/75
f 268/87/76 291/131/76 269/86/76
f 269/86/77 291/131/77 270/85/77
f 270/85/78 291/131/78 271/84/78
f 271/84/79 291/131/79 272/83/79
f 272/83/80 291/131/80 273/82/80
f 273/82/81 291/131/81 274/81/81
f 274/81/82 291/131/82 275/80/82
f 275/80/83 291/131/83 276/79/83
f 276/79/84 291/131/84 277/78/84
f 277/78/85 291/131/85 278/77/85
f 278/77/86 291/131/86 279/76/86
f 279/76/87 291/131/87 280/75/87
f 280/75/88 291/131/88 281/74/88
f 281/74/89 291/131/89 282/73/89
f 282/73/90 291/131/90 283/72/90
f 283/72/91 291/131/91 284/71/91
f 284/71/92 291/131/92 285/70/92
f 285/70/93 291/131/93 286/69/93
f 286/69/94 291/131/94 287/68/94
f 287/68/95 291/131/95 288/67/95
f 288/67/96 291/131/96 289/66/96
f 259/99/31 260/100/31 261/101/31 262/102/31 263/103/31 264/104/31 265/105/31 266/106/31 267/107/31 268/108/31 269/109/31 270/110/31 271/111/31 272/112/31 273/113/31 274/114/31 275/115/31 276/116/31 277/117/31 278/118/31 279/119/31 280/120/31 281/121/31 282/122/31 283/123/31 284/124/31 285/125/31 286/126/31 287/127/31 288/128/31 289/129/31 290/130/31
f 289/66/97 291/131/97 290/65/97
f 290/65/98 291/131/98 259/64/98
f 292/64/67 324/131/67 293/63/67
f 293/63/68 324/131/68 294/94/68
f 294/94/69 324/131/69 295/93/69
f 295/93/70 324/131/70 296/92/70
f 296/92/71 324/131/71 297/91/71
f 297/91/72 324/131/72 298/90/72
f 298/90/73 324/131/73 299/89/73
f 299/89/74 324/131/74 300/88/74
f 300/88/75 324/131/75 301/87/75
f 301/87/76 324/131/76 302/86/76
f 302/86/77 324/131/77 303/85/77
f 303/85/78 324/131/78 304/84/78
f 304/84/79 324/131/79 305/83/79
f 305/83/80 324/131/80 306/82/80
f 306/82/81 324/131/81 307/81/81
f 307/81/82 324/131/82 308/80/82
f 308/80/83 324/131/83 309/79/83
f 309/79/84 324/131/84 310/78/84
f 310/78/85 324/131/85 311/77/85
f 311/77/86 324/131/86 312/76/86
f 312/76/87 324/131/87 313/75/87
f 313/75/88 324/131/88 314/74/88
f 314/74/89 324/131/89 315/73/89
f 315/73/90 324/131/90 316/72/90
f 316/72/91 324/131/91 317/71/91
f 317/71/92 324/131/92 318/70/92
f 318/70/93 324/131/93 319/69/93
f 319/69/94 324/131/94 320/68/94
f 320/68/95 324/131/95 321/67/95
f 321/67/96 324/131/96 322/66/96
f 292/99/31 293/100/31 294/101/31 295/102/31 296/103/31 297/104/31 298/105/31 299/106/31 300/107/31 301/108/31 302/109/31 303/110/31 304/111/31 305/112/31 306/113/31 307/114/31 308/115/31 309/116/31 310/117/31 311/118/31 312/119/31 313/120/31 314/121/31 315/122/31 316/123/31 317/124/31 318/125/31 319/126/31 320/127/31 321/128/31 322/129/31 323/130/31
f 322/66/97 324/131/97 323/65/97
f 323/65/98 324/131/98 292/64/98
f 325/1/1 326/2/1 328/3/1 327/4/1
f 327/4/2 328/3/2 330/5/2 329/6/2
f 329/6/3 330/5/3 332/7/3 331/8/3
f 331/8/4 332/7/4 334/9/4 333/10/4
f 333/10/5 334/9/5 336/11/5 335/12/5
f 335/12/6 336/11/6 338/13/6 337/14/6
f 337/14/7 338/13/7 340/15/7 339/16/7
f 339/16/8 340/15/8 342/17/8 341/18/8
f 341/18/9 342/17/9 344/19/9 343/20/9
f 343/20/10 344/19/10 346/21/10 345/22/10
f 345/22/11 346/21/11 348/23/11 347/24/11
f 347/24/12 348/23/12 350/25/12 349/26/12
f 349/26/13 350/25/13 352/27/13 351/28/13
f 351/28/14 352/27/14 354/29/14 353/30/14
f 353/30/15 354/29/15 356/31/15 355/32/15
f 355/32/16 356/31/16 358/33/16 357/34/16
f 357/34/17 358/33/17 360/35/17 359/36/17
f 359/36/18 360/35/18 362/37/18 361/38/18
f 361/38/19 362/37/19 364/39/19 363/40/19
f 363/40/20 364/39/20 366/41/20 365/42/20
f 365/42/21 366/41/21 368/43/21 367/44/21
f 367/44/22 368/43/22 370/45/22 369/46/22
f 369/46/23 370/45/23 372/47/23 371/48/23
f 371/48/24 372/47/24 374/49/24 373/50/24
f 373/50/25 374/49/25 376/51/25 375/52/25
f 375/52/26 376/51/26 378/53/26 377/54/26
f 377/54/27 378/53/27 380/55/27 379/56/27
f 379/56/28 380/55/28 382/57/28 381/58/28
f 381/58/29 382/57/29 384/59/29 383/60/29
f 383/60/30 384/59/30 386/61/30 385/62/30
f 328/63/31 326/64/31 388/65/31 386/66/31 384/67/31 382/68/31 380/69/31 378/70/31 376/71/31 374/72/31 372/73/31 370/74/31 368/75/31 366/76/31 364/77/31 362/78/31 360/79/31 358/80/31 356/81/31 354/82/31 352/83/31 350/84/31 348/85/31 346/86/31 344/87/31 342/88/31 340/89/31 338/90/31 336/91/31 334/92/31 332/93/31 330/94/31
f 385/62/32 386/61/32 388/95/32 387/96/32
f 387/96/33 388/95/33 326/97/33 325/98/33
f 325/99/34 327/100/34 329/101/34 331/102/34 333/103/34 335/104/34 337/105/34 339/106/34 341/107/34 343/108/34 345/109/34 347/110/34 349/111/34 351/112/34 353/113/34 355/114/34 357/115/34 359/116/34 361/117/34 363/118/34 365/119/34 367/120/34 369/121/34 371/122/34 373/123/34 375/124/34 377/125/34 379/126/34 381/127/34 383/128/34 385/129/34 387/130/34
f 389/1/1 390/2/1 392/3/1 391/4/1
f 391/4/2 392/3/2 394/5/2 393/6/2
f 393/6/3 394/5/3 396/7/3 395/8/3
f 395/8/4 396/7/4 398/9/4 397/10/4
f 397/10/5 398/9/5 400/11/5 399/12/5
f 399/12/6 400/11/6 402/13/6 401/14/6
f 401/14/7 402/13/7 404/15/7 403/16/7
f 403/16/8 404/15/8 406/17/8 405/18/8
f 405/18/9 406/17/9 408/19/9 407/20/9
f 407/20/10 408/19/10 410/21/10 409/22/10
f 409/22/11 410/21/11 412/23/11 411/24/11
f 411/24/12 412/23/12 414/25/12 413/26/12
f 413/26/13 414/25/13 416/27/13 415/28/13
f 415/28/14 416/27/14 418/29/14 417/30/14
f 417/30/15 418/29/15 420/31/15 419/32/15
f 419/32/16 420/31/16 422/33/16 421/34/16
f 421/34/17 422/33/17 424/35/17 423/36/17
f 423/36/18 424/35/18 426/37/18 425/38/18
f 425/38/19 426/37/19 428/39/19 427/40/19
f 427/40/20 428/39/20 430/41/20 429/42/20
f 429/42/21 430/41/21 432/43/21 431/44/21
f 431/44/22 432/43/22 434/45/22 433/46/22
f 433/46/23 434/45/23 436/47/23 435/48/23
f 435/48/24 436/47/24 438/49/24 437/50/24
f 437/50/25 438/49/25 440/51/25 439/52/25
f 439/52/26 440/51/26 442/53/26 441/54/26
f 441/54/27 442/53/27 444/55/27 443/56/27
f 443/56/28 444/55/28 446/57/28 445/58/28
f 445/58/29 446/57/29 448/59/29 447/60/29
f 447/60/30 448/59/30 450/61/30 449/62/30
f 392/63/31 390/64/31 452/65/31 450/66/31 448/67/31 446/68/31 444/69/31 442/70/31 440/71/31 438/72/31 436/73/31 434/74/31 432/75/31 430/76/31 428/77/31 426/78/31 424/79/31 422/80/31 420/81/31 418/82/31 416/83/31 414/84/31 412/85/31 410/86/31 408/87/31 406/88/31 404/89/31 402/90/31 400/91/31 398/92/31 396/93/31 394/94/31
f 449/62/32 450/61/32 452/95/32 451/96/32
f 451/96/33 452/95/33 390/97/33 389/98/33
f 389/99/34 391/100/34 393/101/34 395/102/34 397/103/34 399/104/34 401/105/34 403/106/34 405/107/34 407/108/34 409/109/34 411/110/34 413/111/34 415/112/34 417/113/34 419/114/34 421/115/34 423/116/34 425/117/34 427/118/34 429/119/34 431/120/34 433/121/34 435/122/34 437/123/34 439/124/34 441/125/34 443/126/34 445/127/34 447/128/34 449/129/34 451/130/34
f 453/64/99 485/131/99 454/63/99
f 454/63/100 485/131/100 455/94/100
f 455/94/101 485/131/101 456/93/101
f 456/93/102 485/131/102 457/92/102
f 457/92/103 485/131/103 458/91/103
f 458/91/104 485/131/104 459/90/104
f 459/90/105 485/131/105 460/89/105
f 460/89/106 485/131/106 461/88/106
f 461/88/107 485/131/107 462/87/107
f 462/87/108 485/131/108 463/86/108
f 463/86/109 485/131/109 464/85/109
f 464/85/110 485/131/110 465/84/110
f 465/84/111 485/131/111 466/83/111
f 466/83/112 485/131/112 467/82/112
f 467/82/113 485/131/113 468/81/113
f 468/81/114 485/131/114 469/80/114
f 469/80/115 485/131/115 470/79/115
f 470/79/116 485/131/116 471/78/116
f 471/78/117 485/131/117 472/77/117
f 472/77/118 485/131/118 473/76/118
f 473/76/119 485/131/119 474/75/119
f 474/75/120 485/131/120 475/74/120
f 475/74/121 485/131/121 476/73/121
f 476/73/122 485/131/122 477/72/122
f 477/72/123 485/131/123 478/71/123
f 478/71/124 485/131/124 479/70/124
f 479/70/125 485/131/125 480/69/125
f 480/69/126 485/131/126 481/68/126
f 481/68/127 485/131/127 482/67/127
f 482/67/128 485/131/128 483/66/128
f 453/99/129 454/100/129 455/101/129 456/102/129 457/103/129 458/104/129 459/105/129 460/106/129 461/107/129 462/108/129 463/109/129 464/110/129 465/111/129 466/112/129 467/113/129 468/114/129 469/115/129 470/116/129 471/117/129 472/118/129 473/119/129 474/120/129 475/121/129 476/122/129 477/123/129 478/124/129 479/125/129 480/126/129 481/127/129 482/128/129 483/129/129 484/130/129
f 483/66/130 485/131/130 484/65/130
f 484/65/131 485/131/131 453/64/131
f 486/64/99 518/131/99 487/63/99
f 487/63/100 518/131/100 488/94/100
f 488/94/101 518/131/101 489/93/101
f 489/93/102 518/131/102 490/92/102
f 490/92/103 518/131/103 491/91/103
f 491/91/104 518/131/104 492/90/104
f 492/90/105 518/131/105 493/89/105
f 493/89/106 518/131/106 494/88/106
f 494/88/107 518/131/107 495/87/107
f 495/87/108 518/131/108 496/86/108
f 496/86/109 518/131/109 497/85/109
f 497/85/110 518/131/110 498/84/110
f 498/84/111 518/131/111 499/83/111
f 499/83/112 518/131/112 500/82/112
f 500/82/113 518/131/113 501/81/113
f 501/81/114 518/131/114 502/80/114
f 502/80/115 518/131/115 503/79/115
f 503/79/116 518/131/116 504/78/116
f 504/78/117 518/131/117 505/77/117
f 505/77/118 518/131/118 506/76/118
f 506/76/119 518/131/119 507/75/119
f 507/75/120 518/131/120 508/74/120
f 508/74/121 518/131/121 509/73/121
f 509/73/122 518/131/122 510/72/122
f 510/72/123 518/131/123 511/71/123
f 511/71/124 518/131/124 512/70/124
f 512/70/125 518/131/125 513/69/125
f 513/69/126 518/131/126 514/68/126
f 514/68/127 518/131/127 515/67/127
f 515/67/128 518/131/128 516/66/128
f 486/99/129 487/100/129 488/101/129 489/102/129 490/103/129 491/104/129 492/105/129 493/106/129 494/107/129 495/108/129 496/109/129 497/110/129 498/111/129 499/112/129 500/113/129 501/114/129 502/115/129 503/116/129 504/117/129 505/118/129 506/119/129 507/120/129 508/121/129 509/122/129 510/123/129 511/124/129 512/125/129 513/126/129 514/127/129 515/128/129 516/129/129 517/130/129
f 516/66/130 518/131/130 517/65/130
f 517/65/131 518/131/131 486/64/131
