#created with MagicaVoxel and VoxelOptimizer  - v:8 - f:6
o 404
mtllib 404.mtl
vn 0 1 0
vn 0 -1 0
vn -1 0 0
vn 1 0 0
vn 0 0 1
vn 0 0 -1
v -8 -8 -8
v -8 -8 8
v 8 -8 8
v 8 -8 -8
v -8 8 -8
v -8 8 8
v 8 8 8
v 8 8 -8
vt 0.000000000000000 1.000000000000000
vt 0.000000000000000 0.500000000000000
vt 0.500000000000000 0.500000000000000
vt 0.500000000000000 1.000000000000000
vt 1.000000000000000 0.500000000000000
vt 1.000000000000000 1.000000000000000
vt 0.000000000000000 0.000000000000000
vt 0.500000000000000 0.000000000000000
usemtl x
f 5/2/1 6/3/1 7/4/1 8/1/1
f 4/3/2 3/5/2 2/6/2 1/4/2
f 4/7/6 1/8/6 5/3/6 8/2/6
f 2/7/5 3/8/5 7/3/5 6/2/5
f 1/3/3 2/2/3 6/1/3 5/4/3
f 3/3/4 4/2/4 8/1/4 7/4/4
