# Blender 4.3.2
# www.blender.org
mtllib tree3.mtl
o Cone
v 0.068400 0.053957 -1.416909
v 0.361036 0.053957 -1.388087
v 0.642426 0.053957 -1.302728
v 0.901756 0.053957 -1.164113
v 1.129061 0.053957 -0.977569
v 1.315605 0.053957 -0.750264
v 1.454220 0.053957 -0.490934
v 1.539578 0.053957 -0.209545
v 1.568401 0.053957 0.083091
v 1.539578 0.053957 0.375726
v 1.454220 0.053957 0.657116
v 1.315605 0.053957 0.916446
v 1.129061 0.053957 1.143751
v 0.901756 0.053957 1.330295
v 0.642426 0.053957 1.468910
v 0.361036 0.053957 1.554269
v 0.068400 0.053957 1.583091
v -0.224235 0.053957 1.554269
v -0.505625 0.053957 1.468910
v -0.764955 0.053957 1.330295
v -0.992260 0.053957 1.143751
v -1.178804 0.053957 0.916446
v -1.317419 0.053957 0.657116
v -1.402777 0.053957 0.375726
v -1.431599 0.053957 0.083091
v -1.402777 0.053957 -0.209545
v -1.317419 0.053957 -0.490934
v -1.178804 0.053957 -0.750264
v -0.992260 0.053957 -0.977569
v -0.764955 0.053957 -1.164113
v -0.505625 0.053957 -1.302728
v -0.224235 0.053957 -1.388087
v 0.068400 3.053957 0.083091
v 0.068400 2.406620 -1.616909
v 0.400054 2.406620 -1.584244
v 0.718962 2.406620 -1.487504
v 1.012870 2.406620 -1.330408
v 1.270482 2.406620 -1.118991
v 1.481899 2.406620 -0.861379
v 1.638996 2.406620 -0.567471
v 1.735736 2.406620 -0.248563
v 1.768401 2.406620 0.083091
v 1.735736 2.406620 0.414745
v 1.638996 2.406620 0.733653
v 1.481899 2.406620 1.027561
v 1.270482 2.406620 1.285173
v 1.012870 2.406620 1.496590
v 0.718962 2.406620 1.653686
v 0.400054 2.406620 1.750426
v 0.068400 2.406620 1.783091
v -0.263253 2.406620 1.750426
v -0.582161 2.406620 1.653686
v -0.876069 2.406620 1.496590
v -1.133681 2.406620 1.285173
v -1.345098 2.406620 1.027561
v -1.502195 2.406620 0.733653
v -1.598935 2.406620 0.414745
v -1.631600 2.406620 0.083091
v -1.598935 2.406620 -0.248563
v -1.502195 2.406620 -0.567471
v -1.345098 2.406620 -0.861379
v -1.133681 2.406620 -1.118991
v -0.876069 2.406620 -1.330408
v -0.582161 2.406620 -1.487504
v -0.263253 2.406620 -1.584244
v 0.068400 5.806621 0.083091
v 0.068400 5.193696 -1.816909
v 0.439072 5.193696 -1.780401
v 0.795499 5.193696 -1.672280
v 1.123984 5.193696 -1.496701
v 1.411903 5.193696 -1.260412
v 1.648193 5.193696 -0.972492
v 1.823771 5.193696 -0.644008
v 1.931892 5.193696 -0.287581
v 1.968400 5.193696 0.083091
v 1.931892 5.193696 0.453763
v 1.823771 5.193696 0.810190
v 1.648193 5.193696 1.138674
v 1.411903 5.193696 1.426594
v 1.123984 5.193696 1.662883
v 0.795499 5.193696 1.838462
v 0.439072 5.193696 1.946583
v 0.068400 5.193696 1.983091
v -0.302271 5.193696 1.946583
v -0.658698 5.193696 1.838462
v -0.987183 5.193696 1.662883
v -1.275102 5.193696 1.426594
v -1.511392 5.193696 1.138674
v -1.686970 5.193696 0.810190
v -1.795091 5.193696 0.453763
v -1.831599 5.193696 0.083091
v -1.795091 5.193696 -0.287581
v -1.686970 5.193696 -0.644008
v -1.511392 5.193696 -0.972492
v -1.275102 5.193696 -1.260412
v -0.987183 5.193696 -1.496701
v -0.658698 5.193696 -1.672280
v -0.302271 5.193696 -1.780401
v 0.068400 8.993696 0.083091
v 0.068400 8.235806 -2.016909
v 0.478090 8.235806 -1.976558
v 0.872036 8.235806 -1.857056
v 1.235098 8.235806 -1.662995
v 1.553325 8.235806 -1.401833
v 1.814487 8.235806 -1.083606
v 2.008547 8.235806 -0.720544
v 2.128049 8.235806 -0.326599
v 2.168400 8.235806 0.083091
v 2.128049 8.235806 0.492781
v 2.008547 8.235806 0.886726
v 1.814487 8.235806 1.249789
v 1.553325 8.235806 1.568015
v 1.235098 8.235806 1.829177
v 0.872036 8.235806 2.023238
v 0.478090 8.235806 2.142740
v 0.068400 8.235806 2.183091
v -0.341289 8.235806 2.142740
v -0.735235 8.235806 2.023238
v -1.098297 8.235806 1.829177
v -1.416524 8.235806 1.568015
v -1.677686 8.235806 1.249789
v -1.871746 8.235806 0.886726
v -1.991248 8.235806 0.492781
v -2.031600 8.235806 0.083091
v -1.991248 8.235806 -0.326599
v -1.871746 8.235806 -0.720544
v -1.677686 8.235806 -1.083606
v -1.416524 8.235806 -1.401833
v -1.098297 8.235806 -1.662995
v -0.735235 8.235806 -1.857056
v -0.341289 8.235806 -1.976558
v 0.068400 12.435806 0.083091
vn 0.0878 0.4455 -0.8910
vn 0.2599 0.4455 -0.8567
vn 0.4220 0.4455 -0.7896
vn 0.5680 0.4455 -0.6921
vn 0.6921 0.4455 -0.5680
vn 0.7896 0.4455 -0.4220
vn 0.8567 0.4455 -0.2599
vn 0.8910 0.4455 -0.0878
vn 0.8910 0.4455 0.0878
vn 0.8567 0.4455 0.2599
vn 0.7896 0.4455 0.4220
vn 0.6921 0.4455 0.5680
vn 0.5680 0.4455 0.6921
vn 0.4220 0.4455 0.7896
vn 0.2599 0.4455 0.8567
vn 0.0878 0.4455 0.8910
vn -0.0878 0.4455 0.8910
vn -0.2599 0.4455 0.8567
vn -0.4220 0.4455 0.7896
vn -0.5680 0.4455 0.6921
vn -0.6921 0.4455 0.5680
vn -0.7896 0.4455 0.4220
vn -0.8567 0.4455 0.2599
vn -0.8910 0.4455 0.0878
vn -0.8910 0.4455 -0.0878
vn -0.8567 0.4455 -0.2599
vn -0.7896 0.4455 -0.4220
vn -0.6921 0.4455 -0.5680
vn -0.5680 0.4455 -0.6921
vn -0.4220 0.4455 -0.7896
vn -0.0000 -1.0000 -0.0000
vn -0.2599 0.4455 -0.8567
vn -0.0878 0.4455 -0.8910
vt 0.250000 0.490000
vt 0.250000 0.250000
vt 0.296822 0.485388
vt 0.341844 0.471731
vt 0.383337 0.449553
vt 0.419706 0.419706
vt 0.449553 0.383337
vt 0.471731 0.341844
vt 0.485388 0.296822
vt 0.490000 0.250000
vt 0.485388 0.203178
vt 0.471731 0.158156
vt 0.449553 0.116663
vt 0.419706 0.080294
vt 0.383337 0.050447
vt 0.341844 0.028269
vt 0.296822 0.014612
vt 0.250000 0.010000
vt 0.203178 0.014612
vt 0.158156 0.028269
vt 0.116663 0.050447
vt 0.080294 0.080294
vt 0.050447 0.116663
vt 0.028269 0.158156
vt 0.014612 0.203178
vt 0.010000 0.250000
vt 0.014612 0.296822
vt 0.028269 0.341844
vt 0.050447 0.383337
vt 0.080294 0.419706
vt 0.116663 0.449553
vt 0.158156 0.471731
vt 0.750000 0.490000
vt 0.796822 0.485388
vt 0.841844 0.471731
vt 0.883337 0.449553
vt 0.919706 0.419706
vt 0.949553 0.383337
vt 0.971731 0.341844
vt 0.985388 0.296822
vt 0.990000 0.250000
vt 0.985388 0.203178
vt 0.971731 0.158156
vt 0.949553 0.116663
vt 0.919706 0.080294
vt 0.883337 0.050447
vt 0.841844 0.028269
vt 0.796822 0.014612
vt 0.750000 0.010000
vt 0.703178 0.014612
vt 0.658156 0.028269
vt 0.616663 0.050447
vt 0.580294 0.080294
vt 0.550447 0.116663
vt 0.528269 0.158156
vt 0.514612 0.203178
vt 0.510000 0.250000
vt 0.514612 0.296822
vt 0.528269 0.341844
vt 0.550447 0.383337
vt 0.580294 0.419706
vt 0.616663 0.449553
vt 0.658156 0.471731
vt 0.703178 0.485388
vt 0.203178 0.485388
s 0
f 1/1/1 33/2/1 2/3/1
f 2/3/2 33/2/2 3/4/2
f 3/4/3 33/2/3 4/5/3
f 4/5/4 33/2/4 5/6/4
f 5/6/5 33/2/5 6/7/5
f 6/7/6 33/2/6 7/8/6
f 7/8/7 33/2/7 8/9/7
f 8/9/8 33/2/8 9/10/8
f 9/10/9 33/2/9 10/11/9
f 10/11/10 33/2/10 11/12/10
f 11/12/11 33/2/11 12/13/11
f 12/13/12 33/2/12 13/14/12
f 13/14/13 33/2/13 14/15/13
f 14/15/14 33/2/14 15/16/14
f 15/16/15 33/2/15 16/17/15
f 16/17/16 33/2/16 17/18/16
f 17/18/17 33/2/17 18/19/17
f 18/19/18 33/2/18 19/20/18
f 19/20/19 33/2/19 20/21/19
f 20/21/20 33/2/20 21/22/20
f 21/22/21 33/2/21 22/23/21
f 22/23/22 33/2/22 23/24/22
f 23/24/23 33/2/23 24/25/23
f 24/25/24 33/2/24 25/26/24
f 25/26/25 33/2/25 26/27/25
f 26/27/26 33/2/26 27/28/26
f 27/28/27 33/2/27 28/29/27
f 28/29/28 33/2/28 29/30/28
f 29/30/29 33/2/29 30/31/29
f 30/31/30 33/2/30 31/32/30
f 1/33/31 2/34/31 3/35/31 4/36/31 5/37/31 6/38/31 7/39/31 8/40/31 9/41/31 10/42/31 11/43/31 12/44/31 13/45/31 14/46/31 15/47/31 16/48/31 17/49/31 18/50/31 19/51/31 20/52/31 21/53/31 22/54/31 23/55/31 24/56/31 25/57/31 26/58/31 27/59/31 28/60/31 29/61/31 30/62/31 31/63/31 32/64/31
f 31/32/32 33/2/32 32/65/32
f 32/65/33 33/2/33 1/1/33
f 34/1/1 66/2/1 35/3/1
f 35/3/2 66/2/2 36/4/2
f 36/4/3 66/2/3 37/5/3
f 37/5/4 66/2/4 38/6/4
f 38/6/5 66/2/5 39/7/5
f 39/7/6 66/2/6 40/8/6
f 40/8/7 66/2/7 41/9/7
f 41/9/8 66/2/8 42/10/8
f 42/10/9 66/2/9 43/11/9
f 43/11/10 66/2/10 44/12/10
f 44/12/11 66/2/11 45/13/11
f 45/13/12 66/2/12 46/14/12
f 46/14/13 66/2/13 47/15/13
f 47/15/14 66/2/14 48/16/14
f 48/16/15 66/2/15 49/17/15
f 49/17/16 66/2/16 50/18/16
f 50/18/17 66/2/17 51/19/17
f 51/19/18 66/2/18 52/20/18
f 52/20/19 66/2/19 53/21/19
f 53/21/20 66/2/20 54/22/20
f 54/22/21 66/2/21 55/23/21
f 55/23/22 66/2/22 56/24/22
f 56/24/23 66/2/23 57/25/23
f 57/25/24 66/2/24 58/26/24
f 58/26/25 66/2/25 59/27/25
f 59/27/26 66/2/26 60/28/26
f 60/28/27 66/2/27 61/29/27
f 61/29/28 66/2/28 62/30/28
f 62/30/29 66/2/29 63/31/29
f 63/31/30 66/2/30 64/32/30
f 34/33/31 35/34/31 36/35/31 37/36/31 38/37/31 39/38/31 40/39/31 41/40/31 42/41/31 43/42/31 44/43/31 45/44/31 46/45/31 47/46/31 48/47/31 49/48/31 50/49/31 51/50/31 52/51/31 53/52/31 54/53/31 55/54/31 56/55/31 57/56/31 58/57/31 59/58/31 60/59/31 61/60/31 62/61/31 63/62/31 64/63/31 65/64/31
f 64/32/32 66/2/32 65/65/32
f 65/65/33 66/2/33 34/1/33
f 67/1/1 99/2/1 68/3/1
f 68/3/2 99/2/2 69/4/2
f 69/4/3 99/2/3 70/5/3
f 70/5/4 99/2/4 71/6/4
f 71/6/5 99/2/5 72/7/5
f 72/7/6 99/2/6 73/8/6
f 73/8/7 99/2/7 74/9/7
f 74/9/8 99/2/8 75/10/8
f 75/10/9 99/2/9 76/11/9
f 76/11/10 99/2/10 77/12/10
f 77/12/11 99/2/11 78/13/11
f 78/13/12 99/2/12 79/14/12
f 79/14/13 99/2/13 80/15/13
f 80/15/14 99/2/14 81/16/14
f 81/16/15 99/2/15 82/17/15
f 82/17/16 99/2/16 83/18/16
f 83/18/17 99/2/17 84/19/17
f 84/19/18 99/2/18 85/20/18
f 85/20/19 99/2/19 86/21/19
f 86/21/20 99/2/20 87/22/20
f 87/22/21 99/2/21 88/23/21
f 88/23/22 99/2/22 89/24/22
f 89/24/23 99/2/23 90/25/23
f 90/25/24 99/2/24 91/26/24
f 91/26/25 99/2/25 92/27/25
f 92/27/26 99/2/26 93/28/26
f 93/28/27 99/2/27 94/29/27
f 94/29/28 99/2/28 95/30/28
f 95/30/29 99/2/29 96/31/29
f 96/31/30 99/2/30 97/32/30
f 67/33/31 68/34/31 69/35/31 70/36/31 71/37/31 72/38/31 73/39/31 74/40/31 75/41/31 76/42/31 77/43/31 78/44/31 79/45/31 80/46/31 81/47/31 82/48/31 83/49/31 84/50/31 85/51/31 86/52/31 87/53/31 88/54/31 89/55/31 90/56/31 91/57/31 92/58/31 93/59/31 94/60/31 95/61/31 96/62/31 97/63/31 98/64/31
f 97/32/32 99/2/32 98/65/32
f 98/65/33 99/2/33 67/1/33
f 100/1/1 132/2/1 101/3/1
f 101/3/2 132/2/2 102/4/2
f 102/4/3 132/2/3 103/5/3
f 103/5/4 132/2/4 104/6/4
f 104/6/5 132/2/5 105/7/5
f 105/7/6 132/2/6 106/8/6
f 106/8/7 132/2/7 107/9/7
f 107/9/8 132/2/8 108/10/8
f 108/10/9 132/2/9 109/11/9
f 109/11/10 132/2/10 110/12/10
f 110/12/11 132/2/11 111/13/11
f 111/13/12 132/2/12 112/14/12
f 112/14/13 132/2/13 113/15/13
f 113/15/14 132/2/14 114/16/14
f 114/16/15 132/2/15 115/17/15
f 115/17/16 132/2/16 116/18/16
f 116/18/17 132/2/17 117/19/17
f 117/19/18 132/2/18 118/20/18
f 118/20/19 132/2/19 119/21/19
f 119/21/20 132/2/20 120/22/20
f 120/22/21 132/2/21 121/23/21
f 121/23/22 132/2/22 122/24/22
f 122/24/23 132/2/23 123/25/23
f 123/25/24 132/2/24 124/26/24
f 124/26/25 132/2/25 125/27/25
f 125/27/26 132/2/26 126/28/26
f 126/28/27 132/2/27 127/29/27
f 127/29/28 132/2/28 128/30/28
f 128/30/29 132/2/29 129/31/29
f 129/31/30 132/2/30 130/32/30
f 100/33/31 101/34/31 102/35/31 103/36/31 104/37/31 105/38/31 106/39/31 107/40/31 108/41/31 109/42/31 110/43/31 111/44/31 112/45/31 113/46/31 114/47/31 115/48/31 116/49/31 117/50/31 118/51/31 119/52/31 120/53/31 121/54/31 122/55/31 123/56/31 124/57/31 125/58/31 126/59/31 127/60/31 128/61/31 129/62/31 130/63/31 131/64/31
f 130/32/32 132/2/32 131/65/32
f 131/65/33 132/2/33 100/1/33
