# MagicaVoxel @ Ephtracy

# group
o 

# material
mtllib rd.mtl
usemtl palette

# normals
vn -1 0 0
vn 1 0 0
vn 0 0 1
vn 0 0 -1
vn 0 -1 0
vn 0 1 0

# texcoords
vt 0.00195312 0.5
vt 0.0253906 0.5
vt 0.0371094 0.5
vt 0.0605469 0.5
vt 0.0761719 0.5
vt 0.0800781 0.5
vt 0.150391 0.5
vt 0.166016 0.5
vt 0.169922 0.5
vt 0.212891 0.5
vt 0.294922 0.5
vt 0.306641 0.5

# verts
v -0.6 1.5 0
v -0.6 1.5 -0.1
v -0.6 1.6 0
v -0.6 1.6 -0.1
v -0.5 1.3 0
v -0.5 1.3 -0.1
v -0.5 1.5 0
v -0.5 1.5 -0.1
v -0.5 1.6 0
v -0.5 1.6 -0.1
v -0.5 2.2 0
v -0.5 2.2 -0.1
v -0.4 1.4 0.1
v -0.4 1.4 0
v -0.4 1.4 -0.1
v -0.4 1.4 -0.2
v -0.4 2.2 0.1
v -0.4 2.2 0
v -0.4 2.2 -0.1
v -0.4 2.2 -0.2
v -0.3 0.9 0
v -0.3 0.9 -0.1
v -0.3 1 0
v -0.3 1 -0.1
v -0.2 1 0
v -0.2 1 -0.1
v -0.2 1.3 0
v -0.2 1.3 -0.1
v -0.2 2.2 0
v -0.2 2.2 -0.1
v -0.2 2.4 0.1
v -0.2 2.4 0
v -0.2 2.4 -0.1
v -0.2 2.4 -0.2
v -0.2 3 0.1
v -0.2 3 0
v -0.2 3 -0.1
v -0.2 3 -0.2
v -0.2 3.1 0
v -0.2 3.1 -0.1
v -0.1 3 0.1
v -0.1 3 0
v -0.1 3 -0.1
v -0.1 3 -0.2
v -0.1 3.1 0.1
v -0.1 3.1 0
v -0.1 3.1 -0.1
v -0.1 3.1 -0.2
v 0.1 0.9 0
v 0.1 0.9 -0.1
v 0.1 1.3 0
v 0.1 1.3 -0.1
v 0.5 1.8 -0.1
v 0.5 1.8 -0.2
v 0.5 1.9 0.1
v 0.5 1.9 0
v 0.5 2 0.1
v 0.5 2 0
v 0.5 2 -0.1
v 0.5 2 -0.2
v -0.1 0.9 0
v -0.1 0.9 -0.1
v -0.1 1.3 0
v -0.1 1.3 -0.1
v -5.96046e-08 2.2 0
v -5.96046e-08 2.2 -0.1
v -5.96046e-08 2.4 0
v -5.96046e-08 2.4 -0.1
v 0.1 2.5 0.1
v 0.1 2.5 -0.2
v 0.1 2.6 0.1
v 0.1 2.6 -0.2
v 0.2 1 0
v 0.2 1 -0.1
v 0.2 1.3 0
v 0.2 1.3 -0.1
v 0.3 0.9 0
v 0.3 0.9 -0.1
v 0.3 1 0
v 0.3 1 -0.1
v 0.3 2.1 0.1
v 0.3 2.1 -0.2
v 0.3 2.2 0.1
v 0.3 2.2 -0.2
v 0.4 1.3 0
v 0.4 1.3 -0.1
v 0.4 1.4 0.1
v 0.4 1.4 0
v 0.4 1.4 -0.1
v 0.4 1.4 -0.2
v 0.4 2 0.1
v 0.4 2 0
v 0.4 2 -0.1
v 0.4 2 -0.2
v 0.4 2.1 0
v 0.4 2.1 -0.1
v 0.4 2.4 -0.1
v 0.4 2.4 -0.2
v 0.4 2.5 -0.1
v 0.4 2.5 -0.2
v 0.4 3 0.1
v 0.4 3 0
v 0.4 3 -0.1
v 0.4 3 -0.2
v 0.4 3.1 0.1
v 0.4 3.1 0
v 0.4 3.1 -0.1
v 0.4 3.1 -0.2
v 0.5 2.4 0.1
v 0.5 2.4 -0.1
v 0.5 2.5 0.1
v 0.5 2.5 -0.1
v 0.5 3 0
v 0.5 3 -0.1
v 0.5 3.1 0
v 0.5 3.1 -0.1
v 0.6 1.8 -0.1
v 0.6 1.8 -0.2
v 0.6 1.9 0.1
v 0.6 1.9 0
v 0.6 2.1 0.1
v 0.6 2.1 0
v 0.6 2.1 -0.1
v 0.6 2.1 -0.2
v 0.6 2.6 0.1
v 0.6 2.6 -0.2
v 0.6 3 0.1
v 0.6 3 -0.2
v -0.4 1.4 0.1
v -0.4 2.2 0.1
v -0.3 1.4 0.1
v -0.3 2.2 0.1
v -0.2 1.4 0.1
v -0.2 2.2 0.1
v -0.2 2.4 0.1
v -0.2 3 0.1
v -0.1 1.4 0.1
v -0.1 2.2 0.1
v -0.1 2.4 0.1
v -0.1 3 0.1
v -0.1 3.1 0.1
v -5.96046e-08 1.4 0.1
v -5.96046e-08 2.2 0.1
v -5.96046e-08 2.4 0.1
v -5.96046e-08 3.1 0.1
v 0.1 1.4 0.1
v 0.1 2.2 0.1
v 0.1 2.4 0.1
v 0.1 2.5 0.1
v 0.1 2.6 0.1
v 0.1 3.1 0.1
v 0.2 1.4 0.1
v 0.2 2.2 0.1
v 0.2 2.4 0.1
v 0.2 2.5 0.1
v 0.2 2.6 0.1
v 0.2 2.8 0.1
v 0.2 2.9 0.1
v 0.2 3.1 0.1
v 0.3 1.4 0.1
v 0.3 2.1 0.1
v 0.3 2.2 0.1
v 0.3 2.4 0.1
v 0.3 2.5 0.1
v 0.3 2.6 0.1
v 0.3 2.8 0.1
v 0.3 2.9 0.1
v 0.3 3.1 0.1
v 0.4 1.4 0.1
v 0.4 2 0.1
v 0.4 2.1 0.1
v 0.4 2.4 0.1
v 0.4 2.5 0.1
v 0.4 2.6 0.1
v 0.4 3 0.1
v 0.4 3.1 0.1
v 0.5 1.9 0.1
v 0.5 2 0.1
v 0.5 2.1 0.1
v 0.5 2.4 0.1
v 0.5 2.5 0.1
v 0.5 2.6 0.1
v 0.5 3 0.1
v 0.6 1.9 0.1
v 0.6 2.1 0.1
v 0.6 2.6 0.1
v 0.6 3 0.1
v -0.6 1.5 0
v -0.6 1.6 0
v -0.5 1.3 0
v -0.5 1.5 0
v -0.5 1.6 0
v -0.5 2.2 0
v -0.4 1.3 0
v -0.4 1.4 0
v -0.4 2.2 0
v -0.3 0.9 0
v -0.3 1 0
v -0.3 1.4 0
v -0.2 1 0
v -0.2 1.3 0
v -0.2 1.4 0
v -0.2 2.2 0
v -0.2 2.4 0
v -0.2 3 0
v -0.2 3.1 0
v -0.1 0.9 0
v -0.1 1.3 0
v -0.1 1.4 0
v -0.1 2.2 0
v -0.1 2.4 0
v -0.1 3 0
v -0.1 3.1 0
v -5.96046e-08 1.3 0
v -5.96046e-08 1.4 0
v -5.96046e-08 2.2 0
v -5.96046e-08 2.4 0
v 0.1 0.9 0
v 0.1 1.3 0
v 0.1 1.4 0
v 0.2 1 0
v 0.2 1.3 0
v 0.2 1.4 0
v 0.3 0.9 0
v 0.3 1 0
v 0.3 1.3 0
v 0.3 1.4 0
v 0.4 1.3 0
v 0.4 1.4 0
v 0.4 3 0
v 0.4 3.1 0
v 0.5 3 0
v 0.5 3.1 0
v 0.4 2 -0.1
v 0.4 2.1 -0.1
v 0.5 1.8 -0.1
v 0.5 2 -0.1
v 0.5 2.1 -0.1
v 0.6 1.8 -0.1
v 0.6 2.1 -0.1
v 0.4 2 0
v 0.4 2.1 0
v 0.5 1.9 0
v 0.5 2 0
v 0.5 2.1 0
v 0.6 1.9 0
v 0.6 2.1 0
v -0.6 1.5 -0.1
v -0.6 1.6 -0.1
v -0.5 1.3 -0.1
v -0.5 1.5 -0.1
v -0.5 1.6 -0.1
v -0.5 2.2 -0.1
v -0.4 1.3 -0.1
v -0.4 1.4 -0.1
v -0.4 2.2 -0.1
v -0.3 0.9 -0.1
v -0.3 1 -0.1
v -0.3 1.4 -0.1
v -0.2 1 -0.1
v -0.2 1.3 -0.1
v -0.2 1.4 -0.1
v -0.2 2.2 -0.1
v -0.2 2.4 -0.1
v -0.2 3 -0.1
v -0.2 3.1 -0.1
v -0.1 0.9 -0.1
v -0.1 1.3 -0.1
v -0.1 1.4 -0.1
v -0.1 2.2 -0.1
v -0.1 2.4 -0.1
v -0.1 3 -0.1
v -0.1 3.1 -0.1
v -5.96046e-08 1.3 -0.1
v -5.96046e-08 1.4 -0.1
v -5.96046e-08 2.2 -0.1
v -5.96046e-08 2.4 -0.1
v 0.1 0.9 -0.1
v 0.1 1.3 -0.1
v 0.1 1.4 -0.1
v 0.2 1 -0.1
v 0.2 1.3 -0.1
v 0.2 1.4 -0.1
v 0.3 0.9 -0.1
v 0.3 1 -0.1
v 0.3 1.3 -0.1
v 0.3 1.4 -0.1
v 0.4 1.3 -0.1
v 0.4 1.4 -0.1
v 0.4 2.4 -0.1
v 0.4 2.5 -0.1
v 0.4 3 -0.1
v 0.4 3.1 -0.1
v 0.5 2.4 -0.1
v 0.5 2.5 -0.1
v 0.5 3 -0.1
v 0.5 3.1 -0.1
v -0.4 1.4 -0.2
v -0.4 2.2 -0.2
v -0.3 1.4 -0.2
v -0.3 2.2 -0.2
v -0.2 1.4 -0.2
v -0.2 2.2 -0.2
v -0.2 2.4 -0.2
v -0.2 3 -0.2
v -0.1 1.4 -0.2
v -0.1 2.2 -0.2
v -0.1 2.4 -0.2
v -0.1 3 -0.2
v -0.1 3.1 -0.2
v -5.96046e-08 1.4 -0.2
v -5.96046e-08 2.2 -0.2
v -5.96046e-08 2.4 -0.2
v -5.96046e-08 3.1 -0.2
v 0.1 1.4 -0.2
v 0.1 2.2 -0.2
v 0.1 2.4 -0.2
v 0.1 2.5 -0.2
v 0.1 2.6 -0.2
v 0.1 3.1 -0.2
v 0.2 1.4 -0.2
v 0.2 2.2 -0.2
v 0.2 2.4 -0.2
v 0.2 2.5 -0.2
v 0.2 2.6 -0.2
v 0.2 2.8 -0.2
v 0.2 2.9 -0.2
v 0.2 3.1 -0.2
v 0.3 1.4 -0.2
v 0.3 2.1 -0.2
v 0.3 2.2 -0.2
v 0.3 2.4 -0.2
v 0.3 2.5 -0.2
v 0.3 2.6 -0.2
v 0.3 2.8 -0.2
v 0.3 2.9 -0.2
v 0.3 3.1 -0.2
v 0.4 1.4 -0.2
v 0.4 2 -0.2
v 0.4 2.1 -0.2
v 0.4 2.4 -0.2
v 0.4 2.5 -0.2
v 0.4 2.6 -0.2
v 0.4 3 -0.2
v 0.4 3.1 -0.2
v 0.5 1.8 -0.2
v 0.5 2 -0.2
v 0.5 2.1 -0.2
v 0.5 2.6 -0.2
v 0.5 3 -0.2
v 0.6 1.8 -0.2
v 0.6 2.1 -0.2
v 0.6 2.6 -0.2
v 0.6 3 -0.2
v -0.3 0.9 0
v -0.1 0.9 0
v 0.1 0.9 0
v 0.3 0.9 0
v -0.3 0.9 -0.1
v -0.1 0.9 -0.1
v 0.1 0.9 -0.1
v 0.3 0.9 -0.1
v -0.5 1.3 0
v -0.4 1.3 0
v -0.2 1.3 0
v -0.1 1.3 0
v -5.96046e-08 1.3 0
v 0.1 1.3 0
v 0.2 1.3 0
v 0.3 1.3 0
v 0.4 1.3 0
v -0.5 1.3 -0.1
v -0.4 1.3 -0.1
v -0.2 1.3 -0.1
v -0.1 1.3 -0.1
v -5.96046e-08 1.3 -0.1
v 0.1 1.3 -0.1
v 0.2 1.3 -0.1
v 0.3 1.3 -0.1
v 0.4 1.3 -0.1
v -0.4 1.4 0.1
v -0.3 1.4 0.1
v -0.2 1.4 0.1
v -0.1 1.4 0.1
v -5.96046e-08 1.4 0.1
v 0.1 1.4 0.1
v 0.2 1.4 0.1
v 0.3 1.4 0.1
v 0.4 1.4 0.1
v -0.4 1.4 0
v -0.3 1.4 0
v -0.2 1.4 0
v -0.1 1.4 0
v -5.96046e-08 1.4 0
v 0.1 1.4 0
v 0.2 1.4 0
v 0.3 1.4 0
v 0.4 1.4 0
v -0.4 1.4 -0.1
v -0.3 1.4 -0.1
v -0.2 1.4 -0.1
v -0.1 1.4 -0.1
v -5.96046e-08 1.4 -0.1
v 0.1 1.4 -0.1
v 0.2 1.4 -0.1
v 0.3 1.4 -0.1
v 0.4 1.4 -0.1
v -0.4 1.4 -0.2
v -0.3 1.4 -0.2
v -0.2 1.4 -0.2
v -0.1 1.4 -0.2
v -5.96046e-08 1.4 -0.2
v 0.1 1.4 -0.2
v 0.2 1.4 -0.2
v 0.3 1.4 -0.2
v 0.4 1.4 -0.2
v -0.6 1.5 0
v -0.5 1.5 0
v -0.6 1.5 -0.1
v -0.5 1.5 -0.1
v 0.5 1.8 -0.1
v 0.6 1.8 -0.1
v 0.5 1.8 -0.2
v 0.6 1.8 -0.2
v 0.5 1.9 0.1
v 0.6 1.9 0.1
v 0.5 1.9 0
v 0.6 1.9 0
v 0.4 2 0.1
v 0.5 2 0.1
v 0.4 2 0
v 0.5 2 0
v 0.4 2 -0.1
v 0.5 2 -0.1
v 0.4 2 -0.2
v 0.5 2 -0.2
v -0.2 2.4 0.1
v -0.1 2.4 0.1
v -5.96046e-08 2.4 0.1
v 0.1 2.4 0.1
v 0.2 2.4 0.1
v 0.3 2.4 0.1
v 0.4 2.4 0.1
v 0.5 2.4 0.1
v -0.2 2.4 0
v -0.1 2.4 0
v -5.96046e-08 2.4 0
v -0.2 2.4 -0.1
v -0.1 2.4 -0.1
v -5.96046e-08 2.4 -0.1
v 0.4 2.4 -0.1
v 0.5 2.4 -0.1
v -0.2 2.4 -0.2
v -0.1 2.4 -0.2
v -5.96046e-08 2.4 -0.2
v 0.1 2.4 -0.2
v 0.2 2.4 -0.2
v 0.3 2.4 -0.2
v 0.4 2.4 -0.2
v 0.1 2.6 0.1
v 0.2 2.6 0.1
v 0.3 2.6 0.1
v 0.4 2.6 0.1
v 0.5 2.6 0.1
v 0.6 2.6 0.1
v 0.1 2.6 -0.2
v 0.2 2.6 -0.2
v 0.3 2.6 -0.2
v 0.4 2.6 -0.2
v 0.5 2.6 -0.2
v 0.6 2.6 -0.2
v -0.3 1 0
v -0.2 1 0
v 0.2 1 0
v 0.3 1 0
v -0.3 1 -0.1
v -0.2 1 -0.1
v 0.2 1 -0.1
v 0.3 1 -0.1
v -0.6 1.6 0
v -0.5 1.6 0
v -0.6 1.6 -0.1
v -0.5 1.6 -0.1
v 0.3 2.1 0.1
v 0.4 2.1 0.1
v 0.5 2.1 0.1
v 0.6 2.1 0.1
v 0.4 2.1 0
v 0.5 2.1 0
v 0.6 2.1 0
v 0.4 2.1 -0.1
v 0.5 2.1 -0.1
v 0.6 2.1 -0.1
v 0.3 2.1 -0.2
v 0.4 2.1 -0.2
v 0.5 2.1 -0.2
v 0.6 2.1 -0.2
v -0.4 2.2 0.1
v -0.3 2.2 0.1
v -0.2 2.2 0.1
v -0.1 2.2 0.1
v -5.96046e-08 2.2 0.1
v 0.1 2.2 0.1
v 0.2 2.2 0.1
v 0.3 2.2 0.1
v -0.5 2.2 0
v -0.4 2.2 0
v -0.2 2.2 0
v -0.1 2.2 0
v -5.96046e-08 2.2 0
v -0.5 2.2 -0.1
v -0.4 2.2 -0.1
v -0.2 2.2 -0.1
v -0.1 2.2 -0.1
v -5.96046e-08 2.2 -0.1
v -0.4 2.2 -0.2
v -0.3 2.2 -0.2
v -0.2 2.2 -0.2
v -0.1 2.2 -0.2
v -5.96046e-08 2.2 -0.2
v 0.1 2.2 -0.2
v 0.2 2.2 -0.2
v 0.3 2.2 -0.2
v 0.1 2.5 0.1
v 0.2 2.5 0.1
v 0.3 2.5 0.1
v 0.4 2.5 0.1
v 0.5 2.5 0.1
v 0.4 2.5 -0.1
v 0.5 2.5 -0.1
v 0.1 2.5 -0.2
v 0.2 2.5 -0.2
v 0.3 2.5 -0.2
v 0.4 2.5 -0.2
v -0.2 3 0.1
v -0.1 3 0.1
v 0.4 3 0.1
v 0.5 3 0.1
v 0.6 3 0.1
v -0.2 3 0
v -0.1 3 0
v 0.4 3 0
v 0.5 3 0
v -0.2 3 -0.1
v -0.1 3 -0.1
v 0.4 3 -0.1
v 0.5 3 -0.1
v -0.2 3 -0.2
v -0.1 3 -0.2
v 0.4 3 -0.2
v 0.5 3 -0.2
v 0.6 3 -0.2
v -0.1 3.1 0.1
v -5.96046e-08 3.1 0.1
v 0.1 3.1 0.1
v 0.2 3.1 0.1
v 0.3 3.1 0.1
v 0.4 3.1 0.1
v -0.2 3.1 0
v -0.1 3.1 0
v 0.4 3.1 0
v 0.5 3.1 0
v -0.2 3.1 -0.1
v -0.1 3.1 -0.1
v 0.4 3.1 -0.1
v 0.5 3.1 -0.1
v -0.1 3.1 -0.2
v -5.96046e-08 3.1 -0.2
v 0.1 3.1 -0.2
v 0.2 3.1 -0.2
v 0.3 3.1 -0.2
v 0.4 3.1 -0.2

# faces
f 3/12/1 2/12/1 1/12/1
f 4/12/1 2/12/1 3/12/1
f 7/12/1 6/12/1 5/12/1
f 8/12/1 6/12/1 7/12/1
f 11/12/1 10/12/1 9/12/1
f 12/12/1 10/12/1 11/12/1
f 17/8/1 14/8/1 13/8/1
f 18/8/1 14/8/1 17/8/1
f 19/8/1 16/8/1 15/8/1
f 20/8/1 16/8/1 19/8/1
f 23/10/1 22/10/1 21/10/1
f 24/10/1 22/10/1 23/10/1
f 27/10/1 26/10/1 25/10/1
f 28/10/1 26/10/1 27/10/1
f 32/10/1 30/10/1 29/10/1
f 33/10/1 30/10/1 32/10/1
f 35/10/1 33/10/1 32/10/1
f 35/10/1 34/10/1 33/10/1
f 35/10/1 32/10/1 31/10/1
f 36/10/1 34/10/1 35/10/1
f 37/10/1 34/10/1 36/10/1
f 38/10/1 34/10/1 37/10/1
f 39/10/1 37/10/1 36/10/1
f 40/10/1 37/10/1 39/10/1
f 45/2/1 42/2/1 41/2/1
f 46/2/1 42/2/1 45/2/1
f 47/2/1 44/2/1 43/2/1
f 48/2/1 44/2/1 47/2/1
f 51/6/1 50/6/1 49/6/1
f 52/6/1 50/6/1 51/6/1
f 57/11/1 56/11/1 55/11/1
f 58/11/1 56/11/1 57/11/1
f 59/11/1 54/11/1 53/11/1
f 60/11/1 54/11/1 59/11/1
f 61/10/2 62/10/2 63/10/2
f 63/10/2 62/10/2 64/10/2
f 65/2/2 66/2/2 67/2/2
f 67/2/2 66/2/2 68/2/2
f 69/5/2 70/5/2 71/5/2
f 71/5/2 70/5/2 72/5/2
f 73/6/2 74/6/2 75/6/2
f 75/6/2 74/6/2 76/6/2
f 77/6/2 78/6/2 79/6/2
f 79/6/2 78/6/2 80/6/2
f 81/4/2 82/4/2 83/4/2
f 83/4/2 82/4/2 84/4/2
f 85/3/2 86/3/2 88/3/2
f 88/3/2 86/3/2 89/3/2
f 87/3/2 88/3/2 91/3/2
f 89/3/2 90/3/2 91/3/2
f 88/3/2 89/3/2 91/3/2
f 91/3/2 90/3/2 92/3/2
f 92/3/2 90/3/2 93/3/2
f 93/3/2 90/3/2 94/3/2
f 92/3/2 93/3/2 95/3/2
f 95/3/2 93/3/2 96/3/2
f 97/3/2 98/3/2 99/3/2
f 99/3/2 98/3/2 100/3/2
f 101/3/2 102/3/2 105/3/2
f 105/3/2 102/3/2 106/3/2
f 103/3/2 104/3/2 107/3/2
f 107/3/2 104/3/2 108/3/2
f 109/7/2 110/7/2 111/7/2
f 111/7/2 110/7/2 112/7/2
f 113/7/2 114/7/2 115/7/2
f 115/7/2 114/7/2 116/7/2
f 119/11/2 120/11/2 121/11/2
f 121/11/2 120/11/2 122/11/2
f 117/11/2 118/11/2 123/11/2
f 123/11/2 118/11/2 124/11/2
f 125/11/2 126/11/2 127/11/2
f 127/11/2 126/11/2 128/11/2
f 131/8/3 130/8/3 129/8/3
f 132/8/3 130/8/3 131/8/3
f 133/9/3 132/9/3 131/9/3
f 134/9/3 132/9/3 133/9/3
f 137/10/3 134/10/3 133/10/3
f 138/10/3 134/10/3 137/10/3
f 139/10/3 136/10/3 135/10/3
f 140/10/3 136/10/3 139/10/3
f 142/2/3 138/2/3 137/2/3
f 143/2/3 138/2/3 142/2/3
f 144/2/3 141/2/3 140/2/3
f 144/2/3 140/2/3 139/2/3
f 145/2/3 141/2/3 144/2/3
f 146/5/3 143/5/3 142/5/3
f 147/5/3 143/5/3 146/5/3
f 148/5/3 145/5/3 144/5/3
f 149/5/3 145/5/3 148/5/3
f 150/5/3 145/5/3 149/5/3
f 151/5/3 145/5/3 150/5/3
f 152/6/3 147/6/3 146/6/3
f 153/6/3 147/6/3 152/6/3
f 154/6/3 149/6/3 148/6/3
f 155/6/3 149/6/3 154/6/3
f 156/6/3 151/6/3 150/6/3
f 157/6/3 151/6/3 156/6/3
f 158/6/3 151/6/3 157/6/3
f 159/6/3 151/6/3 158/6/3
f 160/4/3 153/4/3 152/4/3
f 161/4/3 153/4/3 160/4/3
f 162/4/3 153/4/3 161/4/3
f 163/4/3 155/4/3 154/4/3
f 164/4/3 155/4/3 163/4/3
f 165/4/3 157/4/3 156/4/3
f 166/1/3 158/1/3 157/1/3
f 166/4/3 157/4/3 165/4/3
f 167/4/3 159/4/3 158/4/3
f 167/1/3 158/1/3 166/1/3
f 168/4/3 159/4/3 167/4/3
f 169/3/3 161/3/3 160/3/3
f 170/3/3 161/3/3 169/3/3
f 171/3/3 161/3/3 170/3/3
f 172/3/3 164/3/3 163/3/3
f 173/3/3 164/3/3 172/3/3
f 174/3/3 166/3/3 165/3/3
f 174/3/3 168/3/3 167/3/3
f 174/3/3 167/3/3 166/3/3
f 175/3/3 168/3/3 174/3/3
f 176/3/3 168/3/3 175/3/3
f 178/7/3 171/7/3 170/7/3
f 179/7/3 171/7/3 178/7/3
f 180/7/3 173/7/3 172/7/3
f 181/7/3 173/7/3 180/7/3
f 182/7/3 175/7/3 174/7/3
f 183/7/3 175/7/3 182/7/3
f 184/11/3 179/11/3 178/11/3
f 184/11/3 178/11/3 177/11/3
f 185/11/3 179/11/3 184/11/3
f 186/11/3 183/11/3 182/11/3
f 187/11/3 183/11/3 186/11/3
f 191/12/3 189/12/3 188/12/3
f 192/12/3 189/12/3 191/12/3
f 194/12/3 191/12/3 190/12/3
f 194/12/3 193/12/3 192/12/3
f 194/12/3 192/12/3 191/12/3
f 195/12/3 193/12/3 194/12/3
f 196/12/3 193/12/3 195/12/3
f 199/8/3 195/8/3 194/8/3
f 200/10/3 198/10/3 197/10/3
f 201/8/3 199/8/3 194/8/3
f 202/8/3 199/8/3 201/8/3
f 207/10/3 202/10/3 201/10/3
f 207/10/3 201/10/3 200/10/3
f 207/10/3 200/10/3 197/10/3
f 208/10/3 202/10/3 207/10/3
f 209/10/3 202/10/3 208/10/3
f 210/10/3 204/10/3 203/10/3
f 211/10/3 204/10/3 210/10/3
f 212/10/3 206/10/3 205/10/3
f 213/10/3 206/10/3 212/10/3
f 214/2/3 209/2/3 208/2/3
f 215/2/3 209/2/3 214/2/3
f 216/2/3 211/2/3 210/2/3
f 217/2/3 211/2/3 216/2/3
f 219/5/3 215/5/3 214/5/3
f 220/5/3 215/5/3 219/5/3
f 221/6/3 219/6/3 218/6/3
f 221/6/3 220/6/3 219/6/3
f 222/6/3 220/6/3 221/6/3
f 223/6/3 220/6/3 222/6/3
f 224/6/3 221/6/3 218/6/3
f 225/6/3 221/6/3 224/6/3
f 226/4/3 223/4/3 222/4/3
f 227/4/3 223/4/3 226/4/3
f 228/3/3 227/3/3 226/3/3
f 229/3/3 227/3/3 228/3/3
f 232/7/3 231/7/3 230/7/3
f 233/7/3 231/7/3 232/7/3
f 237/7/3 235/7/3 234/7/3
f 238/7/3 235/7/3 237/7/3
f 239/11/3 237/11/3 236/11/3
f 239/11/3 238/11/3 237/11/3
f 240/11/3 238/11/3 239/11/3
f 241/7/4 242/7/4 244/7/4
f 244/7/4 242/7/4 245/7/4
f 243/11/4 244/11/4 246/11/4
f 244/11/4 245/11/4 246/11/4
f 246/11/4 245/11/4 247/11/4
f 248/12/4 249/12/4 251/12/4
f 251/12/4 249/12/4 252/12/4
f 250/12/4 251/12/4 254/12/4
f 252/12/4 253/12/4 254/12/4
f 251/12/4 252/12/4 254/12/4
f 254/12/4 253/12/4 255/12/4
f 255/12/4 253/12/4 256/12/4
f 254/8/4 255/8/4 259/8/4
f 257/10/4 258/10/4 260/10/4
f 254/8/4 259/8/4 261/8/4
f 261/8/4 259/8/4 262/8/4
f 261/10/4 262/10/4 267/10/4
f 260/10/4 261/10/4 267/10/4
f 257/10/4 260/10/4 267/10/4
f 267/10/4 262/10/4 268/10/4
f 268/10/4 262/10/4 269/10/4
f 263/10/4 264/10/4 270/10/4
f 270/10/4 264/10/4 271/10/4
f 265/10/4 266/10/4 272/10/4
f 272/10/4 266/10/4 273/10/4
f 268/2/4 269/2/4 274/2/4
f 274/2/4 269/2/4 275/2/4
f 270/2/4 271/2/4 276/2/4
f 276/2/4 271/2/4 277/2/4
f 274/5/4 275/5/4 279/5/4
f 279/5/4 275/5/4 280/5/4
f 278/6/4 279/6/4 281/6/4
f 279/6/4 280/6/4 281/6/4
f 281/6/4 280/6/4 282/6/4
f 282/6/4 280/6/4 283/6/4
f 278/6/4 281/6/4 284/6/4
f 284/6/4 281/6/4 285/6/4
f 282/4/4 283/4/4 286/4/4
f 286/4/4 283/4/4 287/4/4
f 286/3/4 287/3/4 288/3/4
f 288/3/4 287/3/4 289/3/4
f 290/7/4 291/7/4 294/7/4
f 294/7/4 291/7/4 295/7/4
f 292/7/4 293/7/4 296/7/4
f 296/7/4 293/7/4 297/7/4
f 298/8/4 299/8/4 300/8/4
f 300/8/4 299/8/4 301/8/4
f 300/9/4 301/9/4 302/9/4
f 302/9/4 301/9/4 303/9/4
f 302/10/4 303/10/4 306/10/4
f 306/10/4 303/10/4 307/10/4
f 304/10/4 305/10/4 308/10/4
f 308/10/4 305/10/4 309/10/4
f 306/2/4 307/2/4 311/2/4
f 311/2/4 307/2/4 312/2/4
f 309/2/4 310/2/4 313/2/4
f 308/2/4 309/2/4 313/2/4
f 313/2/4 310/2/4 314/2/4
f 311/5/4 312/5/4 315/5/4
f 315/5/4 312/5/4 316/5/4
f 313/5/4 314/5/4 317/5/4
f 317/5/4 314/5/4 318/5/4
f 318/5/4 314/5/4 319/5/4
f 319/5/4 314/5/4 320/5/4
f 315/6/4 316/6/4 321/6/4
f 321/6/4 316/6/4 322/6/4
f 317/6/4 318/6/4 323/6/4
f 323/6/4 318/6/4 324/6/4
f 319/6/4 320/6/4 325/6/4
f 325/6/4 320/6/4 326/6/4
f 326/6/4 320/6/4 327/6/4
f 327/6/4 320/6/4 328/6/4
f 321/4/4 322/4/4 329/4/4
f 329/4/4 322/4/4 330/4/4
f 330/4/4 322/4/4 331/4/4
f 323/4/4 324/4/4 332/4/4
f 332/4/4 324/4/4 333/4/4
f 325/4/4 326/4/4 334/4/4
f 326/1/4 327/1/4 335/1/4
f 334/4/4 326/4/4 335/4/4
f 327/4/4 328/4/4 336/4/4
f 335/1/4 327/1/4 336/1/4
f 336/4/4 328/4/4 337/4/4
f 329/3/4 330/3/4 338/3/4
f 338/3/4 330/3/4 339/3/4
f 339/3/4 330/3/4 340/3/4
f 332/3/4 333/3/4 341/3/4
f 341/3/4 333/3/4 342/3/4
f 334/3/4 335/3/4 343/3/4
f 336/3/4 337/3/4 343/3/4
f 335/3/4 336/3/4 343/3/4
f 343/3/4 337/3/4 344/3/4
f 344/3/4 337/3/4 345/3/4
f 339/7/4 340/7/4 347/7/4
f 347/7/4 340/7/4 348/7/4
f 343/7/4 344/7/4 349/7/4
f 349/7/4 344/7/4 350/7/4
f 347/11/4 348/11/4 351/11/4
f 346/11/4 347/11/4 351/11/4
f 351/11/4 348/11/4 352/11/4
f 349/11/4 350/11/4 353/11/4
f 353/11/4 350/11/4 354/11/4
f 359/10/5 356/10/5 355/10/5
f 360/10/5 356/10/5 359/10/5
f 361/6/5 358/6/5 357/6/5
f 362/6/5 358/6/5 361/6/5
f 372/12/5 364/12/5 363/12/5
f 373/8/5 365/8/5 364/8/5
f 373/12/5 364/12/5 372/12/5
f 374/8/5 365/8/5 373/8/5
f 375/2/5 367/2/5 366/2/5
f 376/5/5 368/5/5 367/5/5
f 376/2/5 367/2/5 375/2/5
f 377/5/5 368/5/5 376/5/5
f 378/4/5 370/4/5 369/4/5
f 379/3/5 371/3/5 370/3/5
f 379/4/5 370/4/5 378/4/5
f 380/3/5 371/3/5 379/3/5
f 390/8/5 382/8/5 381/8/5
f 391/9/5 383/9/5 382/9/5
f 391/8/5 382/8/5 390/8/5
f 392/10/5 384/10/5 383/10/5
f 392/9/5 383/9/5 391/9/5
f 393/2/5 385/2/5 384/2/5
f 393/10/5 384/10/5 392/10/5
f 394/5/5 386/5/5 385/5/5
f 394/2/5 385/2/5 393/2/5
f 395/6/5 387/6/5 386/6/5
f 395/5/5 386/5/5 394/5/5
f 396/4/5 388/4/5 387/4/5
f 396/6/5 387/6/5 395/6/5
f 397/3/5 389/3/5 388/3/5
f 397/4/5 388/4/5 396/4/5
f 398/3/5 389/3/5 397/3/5
f 408/8/5 400/8/5 399/8/5
f 409/9/5 401/9/5 400/9/5
f 409/8/5 400/8/5 408/8/5
f 410/10/5 402/10/5 401/10/5
f 410/9/5 401/9/5 409/9/5
f 411/2/5 403/2/5 402/2/5
f 411/10/5 402/10/5 410/10/5
f 412/5/5 404/5/5 403/5/5
f 412/2/5 403/2/5 411/2/5
f 413/6/5 405/6/5 404/6/5
f 413/5/5 404/5/5 412/5/5
f 414/4/5 406/4/5 405/4/5
f 414/6/5 405/6/5 413/6/5
f 415/3/5 407/3/5 406/3/5
f 415/4/5 406/4/5 414/4/5
f 416/3/5 407/3/5 415/3/5
f 419/12/5 418/12/5 417/12/5
f 420/12/5 418/12/5 419/12/5
f 423/11/5 422/11/5 421/11/5
f 424/11/5 422/11/5 423/11/5
f 427/11/5 426/11/5 425/11/5
f 428/11/5 426/11/5 427/11/5
f 431/7/5 430/7/5 429/7/5
f 432/7/5 430/7/5 431/7/5
f 435/7/5 434/7/5 433/7/5
f 436/7/5 434/7/5 435/7/5
f 445/10/5 438/10/5 437/10/5
f 446/2/5 439/2/5 438/2/5
f 446/10/5 438/10/5 445/10/5
f 447/5/5 440/5/5 439/5/5
f 447/2/5 439/2/5 446/2/5
f 450/5/5 440/5/5 447/5/5
f 451/7/5 444/7/5 443/7/5
f 451/3/5 443/3/5 442/3/5
f 452/7/5 444/7/5 451/7/5
f 453/10/5 449/10/5 448/10/5
f 454/2/5 450/2/5 449/2/5
f 454/10/5 449/10/5 453/10/5
f 455/5/5 440/5/5 450/5/5
f 455/2/5 450/2/5 454/2/5
f 456/6/5 441/6/5 440/6/5
f 456/5/5 440/5/5 455/5/5
f 457/4/5 442/4/5 441/4/5
f 457/6/5 441/6/5 456/6/5
f 458/3/5 451/3/5 442/3/5
f 458/4/5 442/4/5 457/4/5
f 459/3/5 451/3/5 458/3/5
f 466/6/5 461/6/5 460/6/5
f 467/4/5 462/4/5 461/4/5
f 467/6/5 461/6/5 466/6/5
f 468/3/5 463/3/5 462/3/5
f 468/4/5 462/4/5 467/4/5
f 469/7/5 464/7/5 463/7/5
f 469/3/5 463/3/5 468/3/5
f 470/11/5 465/11/5 464/11/5
f 470/7/5 464/7/5 469/7/5
f 471/11/5 465/11/5 470/11/5
f 472/10/6 473/10/6 476/10/6
f 476/10/6 473/10/6 477/10/6
f 474/6/6 475/6/6 478/6/6
f 478/6/6 475/6/6 479/6/6
f 480/12/6 481/12/6 482/12/6
f 482/12/6 481/12/6 483/12/6
f 484/3/6 485/3/6 488/3/6
f 485/7/6 486/7/6 488/7/6
f 486/11/6 487/11/6 489/11/6
f 488/7/6 486/7/6 489/7/6
f 489/11/6 487/11/6 490/11/6
f 484/3/6 488/3/6 491/3/6
f 484/3/6 491/3/6 494/3/6
f 491/7/6 492/7/6 495/7/6
f 494/3/6 491/3/6 495/3/6
f 492/11/6 493/11/6 496/11/6
f 495/7/6 492/7/6 496/7/6
f 496/11/6 493/11/6 497/11/6
f 498/8/6 499/8/6 507/8/6
f 499/9/6 500/9/6 508/9/6
f 500/10/6 501/10/6 508/10/6
f 501/2/6 502/2/6 509/2/6
f 508/10/6 501/10/6 509/10/6
f 502/5/6 503/5/6 510/5/6
f 509/2/6 502/2/6 510/2/6
f 506/12/6 507/12/6 511/12/6
f 507/8/6 499/8/6 512/8/6
f 511/12/6 507/12/6 512/12/6
f 499/9/6 508/9/6 513/9/6
f 510/5/6 503/5/6 515/5/6
f 512/8/6 499/8/6 516/8/6
f 499/9/6 513/9/6 517/9/6
f 516/8/6 499/8/6 517/8/6
f 513/10/6 514/10/6 518/10/6
f 517/9/6 513/9/6 518/9/6
f 514/2/6 515/2/6 519/2/6
f 518/10/6 514/10/6 519/10/6
f 515/5/6 503/5/6 520/5/6
f 519/2/6 515/2/6 520/2/6
f 503/6/6 504/6/6 521/6/6
f 520/5/6 503/5/6 521/5/6
f 504/4/6 505/4/6 522/4/6
f 521/6/6 504/6/6 522/6/6
f 522/4/6 505/4/6 523/4/6
f 526/3/6 527/3/6 529/3/6
f 527/7/6 528/7/6 529/7/6
f 529/7/6 528/7/6 530/7/6
f 524/6/6 525/6/6 531/6/6
f 525/4/6 526/4/6 532/4/6
f 531/6/6 525/6/6 532/6/6
f 526/3/6 529/3/6 533/3/6
f 532/4/6 526/4/6 533/4/6
f 533/3/6 529/3/6 534/3/6
f 535/10/6 536/10/6 540/10/6
f 540/10/6 536/10/6 541/10/6
f 537/7/6 538/7/6 542/7/6
f 538/11/6 539/11/6 543/11/6
f 542/7/6 538/7/6 543/7/6
f 543/11/6 539/11/6 547/11/6
f 544/10/6 545/10/6 548/10/6
f 548/10/6 545/10/6 549/10/6
f 546/7/6 547/7/6 550/7/6
f 547/11/6 539/11/6 551/11/6
f 550/7/6 547/7/6 551/7/6
f 551/11/6 539/11/6 552/11/6
f 553/2/6 554/2/6 560/2/6
f 557/3/6 558/3/6 561/3/6
f 559/10/6 560/10/6 563/10/6
f 560/2/6 554/2/6 564/2/6
f 563/10/6 560/10/6 564/10/6
f 561/7/6 562/7/6 565/7/6
f 557/3/6 561/3/6 565/3/6
f 565/7/6 562/7/6 566/7/6
f 564/2/6 554/2/6 567/2/6
f 554/5/6 555/5/6 568/5/6
f 567/2/6 554/2/6 568/2/6
f 555/6/6 556/6/6 569/6/6
f 568/5/6 555/5/6 569/5/6
f 556/4/6 557/4/6 570/4/6
f 569/6/6 556/6/6 570/6/6
f 557/3/6 565/3/6 571/3/6
f 570/4/6 557/4/6 571/4/6
f 571/3/6 565/3/6 572/3/6
