{
	"asset":{
		"generator":"Khronos glTF Blender I/O v4.3.47",
		"version":"2.0"
	},
	"scene":0,
	"scenes":[
		{
			"name":"Scene",
			"nodes":[
				0
			]
		}
	],
	"nodes":[
		{
			"mesh":0,
			"name":"Sphere"
		}
	],
	"animations":[
		{
			"channels":[
				{
					"sampler":0,
					"target":{
						"node":0,
						"path":"translation"
					}
				},
				{
					"sampler":1,
					"target":{
						"node":0,
						"path":"rotation"
					}
				},
				{
					"sampler":2,
					"target":{
						"node":0,
						"path":"scale"
					}
				}
			],
			"name":"SphereAction.001",
			"samplers":[
				{
					"input":4,
					"interpolation":"LINEAR",
					"output":5
				},
				{
					"input":6,
					"interpolation":"STEP",
					"output":7
				},
				{
					"input":6,
					"interpolation":"STEP",
					"output":8
				}
			]
		}
	],
	"meshes":[
		{
			"name":"Sphere",
			"primitives":[
				{
					"attributes":{
						"POSITION":0,
						"NORMAL":1,
						"TEXCOORD_0":2
					},
					"indices":3
				}
			]
		}
	],
	"accessors":[
		{
			"bufferView":0,
			"componentType":5126,
			"count":16256,
			"max":[
				0.9999998807907104,
				1,
				0.9999997615814209
			],
			"min":[
				-0.9999997019767761,
				-1,
				-1
			],
			"type":"VEC3"
		},
		{
			"bufferView":1,
			"componentType":5126,
			"count":16256,
			"type":"VEC3"
		},
		{
			"bufferView":2,
			"componentType":5126,
			"count":16256,
			"type":"VEC2"
		},
		{
			"bufferView":3,
			"componentType":5123,
			"count":24192,
			"type":"SCALAR"
		},
		{
			"bufferView":4,
			"componentType":5126,
			"count":21,
			"max":[
				0.8333333333333334
			],
			"min":[
				0
			],
			"type":"SCALAR"
		},
		{
			"bufferView":5,
			"componentType":5126,
			"count":21,
			"type":"VEC3"
		},
		{
			"bufferView":6,
			"componentType":5126,
			"count":2,
			"max":[
				0.8333333333333334
			],
			"min":[
				0
			],
			"type":"SCALAR"
		},
		{
			"bufferView":7,
			"componentType":5126,
			"count":2,
			"type":"VEC4"
		},
		{
			"bufferView":8,
			"componentType":5126,
			"count":2,
			"type":"VEC3"
		}
	],
	"bufferViews":[
		{
			"buffer":0,
			"byteLength":195072,
			"byteOffset":0,
			"target":34962
		},
		{
			"buffer":0,
			"byteLength":195072,
			"byteOffset":195072,
			"target":34962
		},
		{
			"buffer":0,
			"byteLength":130048,
			"byteOffset":390144,
			"target":34962
		},
		{
			"buffer":0,
			"byteLength":48384,
			"byteOffset":520192,
			"target":34963
		},
		{
			"buffer":0,
			"byteLength":84,
			"byteOffset":568576
		},
		{
			"buffer":0,
			"byteLength":252,
			"byteOffset":568660
		},
		{
			"buffer":0,
			"byteLength":8,
			"byteOffset":568912
		},
		{
			"buffer":0,
			"byteLength":32,
			"byteOffset":568920
		},
		{
			"buffer":0,
			"byteLength":24,
			"byteOffset":568952
		}
	],
	"buffers":[
		{
			"byteLength":568976,
			"uri":"data:application/octet-stream;base64,"
		}
	]
}
