{
	"asset":{
		"generator":"Khronos glTF Blender I/O v4.3.47",
		"version":"2.0"
	},
	"scene":0,
	"scenes":[
		{
			"name":"Scene",
			"nodes":[
				0,
				1,
				2,
				3,
				4
			]
		}
	],
	"nodes":[
		{
			"mesh":0,
			"name":"Cube",
			"rotation":[
				1,
				0,
				0,
				0
			],
			"scale":[
				-0.16414952278137207,
				-1.0731948614120483,
				-1.0878756046295166
			],
			"translation":[
				0,
				0.030045509338378906,
				0
			]
		},
		{
			"mesh":1,
			"name":"Cube.001",
			"rotation":[
				-0.9929677248001099,
				0,
				0,
				0.11838547140359879
			],
			"scale":[
				-0.08798367530107498,
				-1.1212522983551025,
				-0.18289020657539368
			],
			"translation":[
				0,
				-0.5496956706047058,
				-0.3129458725452423
			]
		},
		{
			"mesh":2,
			"name":"Cube.002",
			"rotation":[
				1,
				0,
				0,
				0
			],
			"scale":[
				-0.16414952278137207,
				-0.22920387983322144,
				-0.05716424435377121
			],
			"translation":[
				0.0977620929479599,
				0.030045509338378906,
				0.3382444977760315
			]
		},
		{
			"mesh":3,
			"name":"Cube.003",
			"rotation":[
				1,
				0,
				0,
				0
			],
			"scale":[
				-0.16414952278137207,
				-0.22920387983322144,
				-0.05716424435377121
			],
			"translation":[
				0.0977620929479599,
				0.030045509338378906,
				0.04022258520126343
			]
		},
		{
			"mesh":4,
			"name":"Cube.004",
			"rotation":[
				1,
				0,
				0,
				0
			],
			"scale":[
				-0.16414952278137207,
				-0.22920387983322144,
				-0.05716424435377121
			],
			"translation":[
				0.0977620929479599,
				0.030045509338378906,
				-0.2569935917854309
			]
		}
	],
	"materials":[
		{
			"doubleSided":true,
			"name":"Material",
			"pbrMetallicRoughness":{
				"baseColorTexture":{
					"index":0
				},
				"metallicFactor":0,
				"roughnessFactor":0.5
			}
		},
		{
			"doubleSided":true,
			"name":"Material.001",
			"pbrMetallicRoughness":{
				"baseColorTexture":{
					"index":1
				},
				"metallicFactor":0,
				"roughnessFactor":0.5
			}
		},
		{
			"doubleSided":true,
			"name":"Material.003",
			"pbrMetallicRoughness":{
				"metallicFactor":0,
				"roughnessFactor":0.5
			}
		},
		{
			"doubleSided":true,
			"name":"Material.004",
			"pbrMetallicRoughness":{
				"metallicFactor":0,
				"roughnessFactor":0.5
			}
		},
		{
			"doubleSided":true,
			"name":"Material.005",
			"pbrMetallicRoughness":{
				"baseColorTexture":{
					"index":2
				},
				"metallicFactor":0,
				"roughnessFactor":0.5
			}
		}
	],
	"meshes":[
		{
			"name":"Cube",
			"primitives":[
				{
					"attributes":{
						"POSITION":0,
						"NORMAL":1,
						"TEXCOORD_0":2
					},
					"indices":3,
					"material":0
				}
			]
		},
		{
			"name":"Cube.001",
			"primitives":[
				{
					"attributes":{
						"POSITION":4,
						"NORMAL":5,
						"TEXCOORD_0":6
					},
					"indices":3,
					"material":1
				}
			]
		},
		{
			"name":"Cube.003",
			"primitives":[
				{
					"attributes":{
						"POSITION":7,
						"NORMAL":8,
						"TEXCOORD_0":9
					},
					"indices":3,
					"material":2
				}
			]
		},
		{
			"name":"Cube.004",
			"primitives":[
				{
					"attributes":{
						"POSITION":10,
						"NORMAL":11,
						"TEXCOORD_0":12
					},
					"indices":3,
					"material":3
				}
			]
		},
		{
			"name":"Cube.005",
			"primitives":[
				{
					"attributes":{
						"POSITION":13,
						"NORMAL":14,
						"TEXCOORD_0":15
					},
					"indices":3,
					"material":4
				}
			]
		}
	],
	"textures":[
		{
			"sampler":0,
			"source":0
		},
		{
			"sampler":0,
			"source":0
		},
		{
			"sampler":0,
			"source":1
		}
	],
	"images":[
		{
			"bufferView":4,
			"mimeType":"image/png",
			"name":"Untitled"
		},
		{
			"bufferView":17,
			"mimeType":"image/png",
			"name":"tex"
		}
	],
	"accessors":[
		{
			"bufferView":0,
			"componentType":5126,
			"count":24,
			"max":[
				1,
				1,
				1
			],
			"min":[
				-1,
				-1,
				-1
			],
			"type":"VEC3"
		},
		{
			"bufferView":1,
			"componentType":5126,
			"count":24,
			"type":"VEC3"
		},
		{
			"bufferView":2,
			"componentType":5126,
			"count":24,
			"type":"VEC2"
		},
		{
			"bufferView":3,
			"componentType":5123,
			"count":36,
			"type":"SCALAR"
		},
		{
			"bufferView":5,
			"componentType":5126,
			"count":24,
			"max":[
				1,
				1,
				1
			],
			"min":[
				-1,
				-1,
				-1
			],
			"type":"VEC3"
		},
		{
			"bufferView":6,
			"componentType":5126,
			"count":24,
			"type":"VEC3"
		},
		{
			"bufferView":7,
			"componentType":5126,
			"count":24,
			"type":"VEC2"
		},
		{
			"bufferView":8,
			"componentType":5126,
			"count":24,
			"max":[
				1,
				1,
				1
			],
			"min":[
				-1,
				-1,
				-1
			],
			"type":"VEC3"
		},
		{
			"bufferView":9,
			"componentType":5126,
			"count":24,
			"type":"VEC3"
		},
		{
			"bufferView":10,
			"componentType":5126,
			"count":24,
			"type":"VEC2"
		},
		{
			"bufferView":11,
			"componentType":5126,
			"count":24,
			"max":[
				1,
				1,
				1
			],
			"min":[
				-1,
				-1,
				-1
			],
			"type":"VEC3"
		},
		{
			"bufferView":12,
			"componentType":5126,
			"count":24,
			"type":"VEC3"
		},
		{
			"bufferView":13,
			"componentType":5126,
			"count":24,
			"type":"VEC2"
		},
		{
			"bufferView":14,
			"componentType":5126,
			"count":24,
			"max":[
				1,
				1,
				1
			],
			"min":[
				-1,
				-1,
				-1
			],
			"type":"VEC3"
		},
		{
			"bufferView":15,
			"componentType":5126,
			"count":24,
			"type":"VEC3"
		},
		{
			"bufferView":16,
			"componentType":5126,
			"count":24,
			"type":"VEC2"
		}
	],
	"bufferViews":[
		{
			"buffer":0,
			"byteLength":288,
			"byteOffset":0,
			"target":34962
		},
		{
			"buffer":0,
			"byteLength":288,
			"byteOffset":288,
			"target":34962
		},
		{
			"buffer":0,
			"byteLength":192,
			"byteOffset":576,
			"target":34962
		},
		{
			"buffer":0,
			"byteLength":72,
			"byteOffset":768,
			"target":34963
		},
		{
			"buffer":0,
			"byteLength":20646,
			"byteOffset":840
		},
		{
			"buffer":0,
			"byteLength":288,
			"byteOffset":21488,
			"target":34962
		},
		{
			"buffer":0,
			"byteLength":288,
			"byteOffset":21776,
			"target":34962
		},
		{
			"buffer":0,
			"byteLength":192,
			"byteOffset":22064,
			"target":34962
		},
		{
			"buffer":0,
			"byteLength":288,
			"byteOffset":22256,
			"target":34962
		},
		{
			"buffer":0,
			"byteLength":288,
			"byteOffset":22544,
			"target":34962
		},
		{
			"buffer":0,
			"byteLength":192,
			"byteOffset":22832,
			"target":34962
		},
		{
			"buffer":0,
			"byteLength":288,
			"byteOffset":23024,
			"target":34962
		},
		{
			"buffer":0,
			"byteLength":288,
			"byteOffset":23312,
			"target":34962
		},
		{
			"buffer":0,
			"byteLength":192,
			"byteOffset":23600,
			"target":34962
		},
		{
			"buffer":0,
			"byteLength":288,
			"byteOffset":23792,
			"target":34962
		},
		{
			"buffer":0,
			"byteLength":288,
			"byteOffset":24080,
			"target":34962
		},
		{
			"buffer":0,
			"byteLength":192,
			"byteOffset":24368,
			"target":34962
		},
		{
			"buffer":0,
			"byteLength":20653,
			"byteOffset":24560
		}
	],
	"samplers":[
		{
			"magFilter":9729,
			"minFilter":9987
		}
	],
	"buffers":[
		{
			"byteLength":45216,
			"uri":"data:application/octet-stream;base64,"
		}
	]
}
