{
	"asset":{
		"generator":"Khronos glTF Blender I/O v4.3.47",
		"version":"2.0"
	},
	"scene":0,
	"scenes":[
		{
			"name":"Scene",
			"nodes":[
				0
			]
		}
	],
	"nodes":[
		{
			"mesh":0,
			"name":"Plane.008",
			"rotation":[
				0.2959318161010742,
				-0.6530402898788452,
				-0.6000937819480896,
				0.3547537326812744
			],
			"scale":[
				0.03572913631796837,
				0.3178500831127167,
				0.027843166142702103
			],
			"translation":[
				-0.054663509130477905,
				4.207993984222412,
				0.7785366177558899
			]
		}
	],
	"meshes":[
		{
			"name":"Plane.009",
			"primitives":[
				{
					"attributes":{
						"POSITION":0,
						"NORMAL":1,
						"TEXCOORD_0":2
					},
					"indices":3
				}
			]
		}
	],
	"accessors":[
		{
			"bufferView":0,
			"componentType":5126,
			"count":204,
			"max":[
				10.824065208435059,
				0.4373932480812073,
				3.6060948371887207
			],
			"min":[
				-3.3097004890441895,
				-2.3842520713806152,
				-13.593061447143555
			],
			"type":"VEC3"
		},
		{
			"bufferView":1,
			"componentType":5126,
			"count":204,
			"type":"VEC3"
		},
		{
			"bufferView":2,
			"componentType":5126,
			"count":204,
			"type":"VEC2"
		},
		{
			"bufferView":3,
			"componentType":5123,
			"count":456,
			"type":"SCALAR"
		}
	],
	"bufferViews":[
		{
			"buffer":0,
			"byteLength":2448,
			"byteOffset":0,
			"target":34962
		},
		{
			"buffer":0,
			"byteLength":2448,
			"byteOffset":2448,
			"target":34962
		},
		{
			"buffer":0,
			"byteLength":1632,
			"byteOffset":4896,
			"target":34962
		},
		{
			"buffer":0,
			"byteLength":912,
			"byteOffset":6528,
			"target":34963
		}
	],
	"buffers":[
		{
			"byteLength":7440,
			"uri":"data:application/octet-stream;base64,"
		}
	]
}
