{
	"asset":{
		"generator":"Khronos glTF Blender I/O v4.3.47",
		"version":"2.0"
	},
	"scene":0,
	"scenes":[
		{
			"name":"Scene",
			"nodes":[
				0
			]
		}
	],
	"nodes":[
		{
			"mesh":0,
			"name":"Cube",
			"scale":[
				0.6340799927711487,
				1.508541226387024,
				0.20140165090560913
			],
			"translation":[
				-0.0539553165435791,
				2.1996634006500244,
				0.1262805014848709
			]
		}
	],
	"meshes":[
		{
			"name":"Cube",
			"primitives":[
				{
					"attributes":{
						"POSITION":0,
						"NORMAL":1,
						"TEXCOORD_0":2
					},
					"indices":3
				}
			]
		}
	],
	"accessors":[
		{
			"bufferView":0,
			"componentType":5126,
			"count":529,
			"max":[
				1.7423245906829834,
				1,
				1
			],
			"min":[
				-1.7489807605743408,
				-1.4966439008712769,
				-1
			],
			"type":"VEC3"
		},
		{
			"bufferView":1,
			"componentType":5126,
			"count":529,
			"type":"VEC3"
		},
		{
			"bufferView":2,
			"componentType":5126,
			"count":529,
			"type":"VEC2"
		},
		{
			"bufferView":3,
			"componentType":5123,
			"count":2160,
			"type":"SCALAR"
		}
	],
	"bufferViews":[
		{
			"buffer":0,
			"byteLength":6348,
			"byteOffset":0,
			"target":34962
		},
		{
			"buffer":0,
			"byteLength":6348,
			"byteOffset":6348,
			"target":34962
		},
		{
			"buffer":0,
			"byteLength":4232,
			"byteOffset":12696,
			"target":34962
		},
		{
			"buffer":0,
			"byteLength":4320,
			"byteOffset":16928,
			"target":34963
		}
	],
	"buffers":[
		{
			"byteLength":21248,
			"uri":"data:application/octet-stream;base64,"
		}
	]
}
